<svg id="svg" version="1.1" xmlns="http://www.w3.org/2000/svg" xmlns:xlink="http://www.w3.org/1999/xlink" width="400" height="400" viewBox="0, 0, 400,400"><g id="svgg"><path id="path0" d="M1.895 1.949 L -0.011 3.800 -0.005 10.949 C 0.001 19.061,0.026 19.095,2.612 14.379 C 3.470 12.813,4.656 11.187,5.248 10.766 C 5.840 10.344,6.796 9.195,7.372 8.212 C 7.948 7.230,9.270 5.848,10.309 5.142 C 11.349 4.436,13.065 2.990,14.122 1.929 L 16.044 -0.000 9.922 0.049 L 3.800 0.098 1.895 1.949 M387.385 2.056 C 388.623 3.187,390.324 4.611,391.165 5.221 C 392.006 5.830,393.110 6.930,393.618 7.664 C 394.126 8.399,395.398 9.921,396.443 11.047 C 397.489 12.173,398.672 13.793,399.072 14.647 L 399.800 16.200 399.909 9.303 L 400.019 2.406 398.709 1.215 L 397.400 0.023 391.268 0.012 L 385.136 0.000 387.385 2.056 M203.866 16.242 C 200.073 16.834,198.491 17.645,197.345 19.585 C 196.973 20.216,196.288 20.905,195.823 21.117 C 194.167 21.871,192.477 23.624,191.598 25.498 C 191.108 26.544,190.105 28.067,189.370 28.883 C 187.474 30.986,186.509 34.625,185.996 41.600 C 185.284 51.270,184.257 53.461,182.592 48.862 C 181.574 46.051,180.867 45.120,178.708 43.748 C 177.888 43.227,176.833 42.048,176.364 41.130 C 172.383 33.326,163.181 29.893,152.200 32.115 C 145.716 33.427,143.375 34.527,142.191 36.816 C 141.866 37.447,140.769 38.533,139.756 39.231 C 137.788 40.584,136.670 42.571,135.380 47.008 C 135.014 48.267,134.186 50.048,133.540 50.965 C 131.225 54.249,130.792 73.734,132.415 101.600 C 133.107 113.481,132.884 114.783,130.014 115.643 C 127.460 116.408,127.150 115.862,126.771 109.929 C 125.469 89.544,125.668 90.373,120.763 84.845 C 115.114 78.480,112.822 77.347,103.649 76.389 C 91.499 75.120,81.501 82.751,79.405 94.894 C 79.062 96.883,78.871 98.800,78.982 99.155 C 79.092 99.510,79.544 106.820,79.987 115.400 C 80.852 132.162,81.416 137.143,82.945 141.520 C 84.398 145.679,85.335 154.793,85.790 169.200 C 85.911 173.050,86.299 178.810,86.652 182.000 C 87.263 187.517,87.685 189.342,89.519 194.400 C 90.674 197.583,91.253 206.731,91.230 221.400 C 91.195 242.718,91.990 255.815,94.028 267.496 C 95.604 276.528,95.790 278.976,96.814 304.200 C 97.283 315.755,97.660 317.679,100.062 320.761 C 100.475 321.290,101.281 323.270,101.856 325.161 C 103.081 329.199,104.357 331.863,105.940 333.685 C 106.568 334.408,107.645 336.189,108.334 337.642 C 109.250 339.577,110.015 340.569,111.190 341.346 C 112.073 341.930,113.233 343.101,113.768 343.949 C 114.303 344.796,115.307 345.920,115.999 346.445 C 116.691 346.970,117.650 347.811,118.129 348.314 C 118.608 348.816,119.552 349.806,120.227 350.514 C 120.902 351.221,122.162 352.047,123.027 352.348 C 123.892 352.650,125.716 353.750,127.080 354.792 C 129.455 356.608,131.535 357.532,136.451 358.957 C 137.690 359.317,139.366 360.137,140.176 360.781 C 143.645 363.538,141.099 363.400,188.600 363.400 C 236.499 363.400,234.343 363.523,238.686 360.550 C 239.833 359.764,242.131 358.703,243.791 358.190 C 247.135 357.159,249.150 356.055,249.885 354.852 C 250.152 354.415,251.862 353.245,253.686 352.251 C 255.509 351.257,257.630 349.788,258.400 348.986 C 259.170 348.185,260.661 347.089,261.713 346.551 C 262.767 346.013,264.115 344.882,264.713 344.036 C 265.311 343.191,266.700 341.884,267.800 341.133 C 268.900 340.381,270.160 339.155,270.600 338.409 C 271.040 337.663,272.321 336.141,273.446 335.026 C 274.572 333.912,275.865 332.370,276.320 331.600 C 276.775 330.830,277.800 329.570,278.599 328.800 C 279.397 328.030,280.788 326.050,281.689 324.400 C 282.590 322.750,284.092 320.654,285.027 319.742 C 286.159 318.638,287.024 317.269,287.616 315.644 C 288.106 314.302,289.265 312.225,290.194 311.030 C 291.796 308.966,292.162 308.066,294.264 301.000 C 294.592 299.900,295.286 298.370,295.808 297.600 C 296.329 296.830,297.469 294.170,298.340 291.688 C 299.407 288.647,300.402 286.592,301.390 285.386 C 302.196 284.402,303.412 282.233,304.091 280.566 C 304.834 278.742,305.943 276.892,306.877 275.920 C 308.652 274.072,309.230 273.055,310.514 269.517 C 311.019 268.126,312.174 266.000,313.080 264.794 C 313.985 263.587,315.197 261.435,315.772 260.010 C 316.346 258.586,317.333 256.876,317.964 256.210 C 319.264 254.837,320.016 253.455,321.236 250.195 C 321.779 248.744,322.756 247.250,323.943 246.056 C 325.303 244.687,326.000 243.547,326.548 241.794 C 327.447 238.914,328.678 236.400,329.188 236.400 C 329.921 236.400,331.688 233.582,332.766 230.690 C 333.371 229.070,334.599 226.766,335.496 225.572 C 336.393 224.377,337.587 222.258,338.150 220.863 C 338.713 219.467,339.798 217.635,340.561 216.791 C 345.406 211.427,345.296 191.532,340.407 189.004 C 339.794 188.687,338.816 187.616,338.235 186.624 C 337.592 185.526,336.492 184.419,335.423 183.792 C 334.457 183.226,333.193 182.141,332.613 181.381 C 328.886 176.495,311.328 176.743,305.719 181.760 C 304.664 182.704,303.029 183.961,302.087 184.552 C 301.144 185.143,299.884 186.354,299.287 187.243 C 298.689 188.131,297.280 189.920,296.156 191.217 C 295.032 192.514,293.469 194.796,292.682 196.288 C 291.821 197.922,290.550 199.585,289.484 200.472 C 288.510 201.282,287.346 202.722,286.895 203.672 C 286.020 205.519,281.218 210.768,279.662 211.579 C 278.328 212.275,276.999 210.918,276.199 208.041 C 275.856 206.808,275.412 205.412,275.213 204.938 C 274.983 204.388,275.048 202.938,275.392 200.938 C 275.689 199.212,276.311 194.380,276.773 190.200 C 277.558 183.107,277.708 182.420,279.013 179.900 C 280.825 176.401,281.544 173.188,282.020 166.466 C 282.559 158.839,283.392 154.368,285.428 148.181 C 286.969 143.496,287.237 142.142,287.615 137.121 C 288.200 129.351,288.902 125.510,290.538 121.117 C 292.064 117.021,293.015 111.915,293.393 105.800 C 293.835 98.640,294.384 95.656,295.999 91.641 C 299.907 81.926,299.915 66.343,296.015 61.912 C 295.172 60.954,294.198 59.492,293.852 58.663 C 293.167 57.024,288.134 51.621,286.200 50.448 C 279.993 46.685,264.525 48.209,259.657 53.063 C 258.478 54.238,257.335 55.200,257.118 55.200 C 256.107 55.200,254.403 56.993,253.421 59.091 C 252.827 60.361,251.802 62.079,251.144 62.909 C 249.068 65.528,248.059 68.314,247.417 73.203 C 246.986 76.484,246.522 78.340,245.772 79.786 C 245.197 80.894,244.358 82.518,243.908 83.395 C 243.436 84.316,242.768 87.107,242.329 89.995 C 241.176 97.584,240.774 98.975,239.690 99.129 C 236.830 99.535,236.318 93.293,236.869 64.741 C 237.363 39.159,237.384 39.395,234.032 32.556 C 232.965 30.380,231.611 27.569,231.022 26.310 C 230.385 24.948,229.434 23.667,228.676 23.149 C 227.974 22.670,226.410 21.324,225.200 20.157 C 220.788 15.903,214.012 14.659,203.866 16.242 M217.976 22.144 C 218.936 22.462,219.662 23.126,220.376 24.341 C 221.052 25.490,222.129 26.511,223.542 27.341 C 225.606 28.554,225.734 28.732,227.032 32.200 C 227.773 34.180,228.747 36.102,229.198 36.471 C 231.239 38.143,231.213 37.698,231.233 71.201 C 231.243 88.357,231.166 102.532,231.062 102.700 C 230.630 103.398,229.935 112.959,229.569 123.233 C 229.354 129.265,229.015 135.550,228.816 137.200 C 228.616 138.850,228.333 146.860,228.187 155.000 C 227.883 171.885,227.359 175.902,225.178 178.084 L 224.062 179.200 209.290 179.200 C 188.746 179.200,190.165 180.528,190.271 161.400 C 190.310 154.360,190.553 137.890,190.811 124.800 C 191.069 111.710,191.412 86.510,191.574 68.800 C 191.894 33.824,191.840 34.569,194.152 33.170 C 194.939 32.694,195.917 31.416,196.800 29.711 C 197.849 27.686,198.586 26.793,199.740 26.153 C 200.587 25.683,201.612 24.791,202.019 24.171 C 203.794 21.466,212.570 20.351,217.976 22.144 M162.389 38.047 C 166.416 38.680,168.601 39.790,169.778 41.799 C 170.330 42.740,171.676 44.386,172.770 45.458 C 176.495 49.105,176.167 45.423,177.161 94.800 C 177.963 134.692,178.418 151.018,178.863 156.006 C 179.941 168.054,178.948 176.216,176.194 177.963 L 174.440 179.075 159.427 179.360 C 146.078 179.613,144.264 179.573,143.059 179.001 C 140.406 177.742,140.502 178.720,140.000 147.800 C 139.750 132.400,139.387 118.540,139.194 117.000 C 139.000 115.460,138.832 111.466,138.821 108.124 C 138.807 104.216,138.645 101.952,138.367 101.780 C 137.370 101.163,136.433 98.079,136.830 96.719 C 137.495 94.441,137.947 86.853,137.574 84.221 C 137.381 82.853,137.149 76.349,137.058 69.767 C 136.885 57.097,136.957 56.453,138.794 54.117 C 139.242 53.547,140.145 51.366,140.800 49.271 C 141.936 45.637,143.167 43.600,144.228 43.600 C 144.774 43.600,147.200 40.984,147.200 40.395 C 147.200 39.591,149.443 38.617,152.748 37.988 C 156.268 37.318,157.811 37.328,162.389 38.047 M278.914 54.808 C 283.701 55.500,286.968 57.962,289.347 62.668 C 289.699 63.366,290.506 64.306,291.139 64.756 C 294.192 66.931,293.981 83.655,290.854 87.311 C 289.393 89.018,288.933 90.815,288.423 96.800 C 286.941 114.195,286.800 115.091,285.183 117.400 C 283.747 119.449,282.935 123.335,282.384 130.800 C 281.650 140.721,280.947 144.664,279.579 146.515 C 278.218 148.355,277.626 151.195,276.977 159.000 C 276.168 168.743,275.406 173.016,274.134 174.957 C 272.845 176.924,271.743 182.224,271.286 188.663 C 270.758 196.090,269.819 197.038,264.428 195.583 C 262.616 195.094,260.971 194.493,260.772 194.247 C 260.574 194.001,259.951 193.224,259.388 192.520 C 258.824 191.816,257.384 190.777,256.187 190.211 C 254.682 189.499,253.937 188.888,253.771 188.229 C 253.255 186.170,251.918 185.506,246.761 184.747 C 241.817 184.019,241.015 183.709,240.586 182.355 C 240.451 181.929,239.241 181.026,237.897 180.348 C 231.208 176.971,231.659 178.509,231.517 158.602 L 231.400 142.205 232.800 141.765 C 234.816 141.131,235.614 139.251,236.250 133.639 C 236.934 127.608,237.373 125.904,238.990 123.000 C 240.684 119.959,241.501 116.791,242.231 110.443 C 242.898 104.640,243.222 103.630,244.788 102.472 C 246.158 101.459,247.056 98.899,247.406 95.000 C 247.947 88.992,249.243 84.400,250.398 84.400 C 251.241 84.400,252.123 81.612,252.853 76.641 C 253.933 69.287,254.188 68.498,255.799 67.547 C 256.661 67.039,257.461 66.066,257.998 64.874 C 259.583 61.356,259.823 61.015,261.516 59.878 C 262.448 59.252,263.480 58.219,263.809 57.582 C 265.156 54.978,271.735 53.770,278.914 54.808 M108.283 82.975 C 112.390 83.839,113.083 84.202,113.977 85.955 C 114.423 86.828,115.753 88.377,116.934 89.396 C 119.709 91.792,119.947 92.610,120.433 101.400 C 121.007 111.780,122.142 117.737,123.635 118.211 C 125.390 118.768,125.494 119.523,125.766 133.678 C 126.045 148.167,126.570 153.120,128.631 160.731 C 129.955 165.617,131.181 174.113,131.192 178.469 C 131.203 183.050,130.614 183.806,125.766 185.433 C 122.763 186.441,122.154 186.805,121.289 188.105 C 120.508 189.278,119.836 189.742,118.243 190.208 C 115.655 190.964,114.135 191.966,113.172 193.550 C 112.754 194.238,112.214 194.800,111.973 194.800 C 110.819 194.800,102.323 202.873,101.786 204.480 C 101.484 205.384,100.222 205.747,99.228 205.215 C 97.472 204.275,96.418 201.553,95.588 195.815 C 94.980 191.616,94.553 189.921,93.762 188.571 C 92.412 186.267,91.971 181.526,90.792 156.600 C 90.280 145.784,89.602 141.008,88.196 138.319 C 85.939 134.004,84.143 94.873,86.025 91.023 C 86.341 90.376,87.403 89.379,88.383 88.807 C 89.482 88.166,90.566 87.082,91.207 85.983 C 93.070 82.788,100.864 81.415,108.283 82.975 M232.893 184.162 C 237.608 184.693,238.570 185.047,239.003 186.410 C 239.251 187.192,240.763 187.840,245.540 189.213 C 247.681 189.828,248.932 190.471,250.140 191.579 C 251.821 193.119,255.713 195.271,257.669 195.742 C 258.421 195.923,258.868 196.395,259.178 197.334 C 259.628 198.698,260.961 200.135,262.877 201.321 C 263.469 201.688,264.774 203.256,265.777 204.807 C 266.780 206.357,267.855 207.723,268.167 207.843 C 269.109 208.204,270.717 210.975,271.638 213.826 C 272.159 215.439,273.045 217.112,273.851 218.004 C 275.799 220.160,276.376 221.886,276.833 226.919 C 277.706 236.539,278.847 242.838,279.782 243.193 C 281.232 243.744,281.488 244.443,282.147 249.634 C 282.877 255.387,283.539 257.298,285.399 259.015 C 286.952 260.449,287.425 261.960,288.045 267.469 C 288.550 271.955,289.263 273.604,291.073 274.469 C 294.151 275.940,293.854 290.760,290.681 294.041 C 289.318 295.450,288.487 297.678,287.563 302.400 C 287.119 304.674,286.820 305.227,285.181 306.812 C 283.715 308.230,283.163 309.143,282.640 311.012 C 281.610 314.698,280.792 316.311,279.425 317.353 C 278.735 317.880,277.592 319.497,276.885 320.947 C 275.854 323.062,275.281 323.747,273.990 324.405 C 272.738 325.044,272.137 325.735,271.290 327.513 C 270.442 329.292,269.820 330.008,268.490 330.735 C 267.437 331.311,266.493 332.234,266.033 333.135 C 265.177 334.812,264.333 335.634,262.528 336.548 C 261.828 336.902,260.858 337.899,260.372 338.764 C 259.747 339.876,258.830 340.679,257.244 341.504 C 255.614 342.353,254.775 343.099,254.177 344.236 C 253.524 345.475,252.764 346.093,250.519 347.213 C 248.960 347.990,247.170 349.164,246.542 349.822 C 245.265 351.159,243.571 351.945,239.283 353.188 C 237.376 353.741,235.851 354.488,234.883 355.345 C 233.358 356.694,231.954 357.362,229.718 357.803 C 227.785 358.184,159.405 358.339,153.200 357.977 C 147.432 357.639,144.267 356.845,143.581 355.564 C 142.969 354.421,141.276 353.706,136.977 352.775 C 132.768 351.863,131.716 351.397,131.365 350.289 C 130.985 349.093,129.113 347.635,127.095 346.965 C 125.784 346.530,124.779 345.830,123.906 344.743 C 123.205 343.870,121.941 342.768,121.098 342.294 C 120.255 341.821,119.037 340.637,118.393 339.664 C 117.749 338.691,116.514 337.289,115.649 336.549 C 114.634 335.680,113.847 334.528,113.429 333.301 C 112.981 331.985,112.122 330.785,110.636 329.400 C 108.572 327.477,108.472 327.285,108.008 324.400 C 107.381 320.498,106.540 318.547,104.965 317.346 C 102.760 315.664,102.632 314.520,101.984 290.800 C 101.537 274.396,100.725 266.975,99.027 263.761 C 97.961 261.744,97.946 261.602,97.590 250.361 C 96.831 226.370,97.095 221.816,99.393 219.245 C 101.019 217.426,101.472 216.557,101.983 214.277 C 102.832 210.486,103.979 208.091,105.327 207.296 C 106.459 206.628,107.182 205.526,108.801 202.000 C 108.953 201.670,109.640 201.213,110.327 200.983 C 112.210 200.356,113.933 198.930,114.551 197.488 C 115.111 196.183,115.329 196.072,122.110 193.614 C 122.720 193.393,123.584 192.596,124.028 191.842 C 125.004 190.188,125.010 190.185,130.909 188.981 C 135.694 188.003,136.648 187.664,138.363 186.333 C 139.829 185.196,143.385 184.295,147.600 183.994 C 155.213 183.451,227.838 183.594,232.893 184.162 M324.399 184.037 C 325.768 184.331,327.007 184.967,328.172 185.976 C 329.126 186.801,330.555 187.877,331.347 188.367 C 333.487 189.690,337.024 194.156,337.658 196.337 C 339.093 201.270,338.087 211.521,336.066 212.566 C 334.355 213.451,333.757 214.400,332.769 217.800 C 331.971 220.546,331.553 221.286,329.820 223.020 C 328.112 224.728,327.661 225.513,326.902 228.105 C 326.245 230.347,325.636 231.537,324.633 232.541 C 323.103 234.070,321.947 236.138,321.173 238.727 C 320.700 240.310,320.079 241.146,318.371 242.501 C 318.025 242.776,317.245 244.350,316.637 246.000 C 316.029 247.650,315.339 249.512,315.102 250.137 C 314.863 250.769,314.111 251.541,313.407 251.877 C 311.811 252.638,311.439 253.246,310.625 256.428 C 309.758 259.821,308.808 261.692,307.672 262.248 C 306.219 262.958,305.529 264.258,304.526 268.170 C 303.244 273.168,302.603 273.718,298.462 273.368 C 293.637 272.959,293.204 272.306,291.979 263.600 C 291.374 259.294,290.763 257.808,289.283 257.043 C 288.022 256.391,287.680 255.471,286.809 250.400 C 286.042 245.933,284.450 241.600,283.576 241.600 C 282.221 241.600,281.415 239.762,281.579 237.042 C 281.660 235.699,281.704 233.610,281.676 232.400 C 281.648 231.190,281.576 227.974,281.517 225.253 L 281.409 220.305 283.713 218.253 C 285.394 216.755,286.206 215.667,286.717 214.227 C 287.235 212.770,287.866 211.934,289.130 211.027 C 290.290 210.196,291.158 209.109,291.822 207.658 C 292.361 206.480,293.639 204.590,294.661 203.458 C 295.684 202.326,297.176 200.231,297.978 198.803 C 298.780 197.374,299.832 196.008,300.316 195.767 C 301.777 195.038,302.706 194.012,303.573 192.169 C 304.206 190.821,304.848 190.186,306.346 189.427 C 308.147 188.515,309.584 187.158,310.616 185.398 C 311.484 183.916,319.940 183.081,324.399 184.037 M0.000 388.709 L 0.000 396.265 0.963 396.780 C 1.492 397.063,2.253 397.904,2.654 398.648 L 3.382 400.000 10.291 400.000 C 14.132 400.000,17.200 399.840,17.200 399.639 C 17.200 399.441,15.490 398.181,13.400 396.841 C 11.310 395.501,9.600 394.248,9.600 394.057 C 9.600 393.866,8.254 392.248,6.608 390.461 C 4.827 388.526,3.050 386.088,2.218 384.435 C 0.068 380.166,0.000 380.297,0.000 388.709 M398.647 385.655 C 396.832 388.885,390.943 394.980,387.515 397.177 C 383.031 400.049,382.967 400.000,391.176 400.000 C 397.014 400.000,398.400 399.895,398.400 399.454 C 398.400 399.154,398.764 398.445,399.210 397.878 C 399.960 396.924,400.012 396.363,399.910 390.225 L 399.800 383.601 398.647 385.655 " stroke="none" fill="#3b262b" fill-rule="evenodd"></path><path id="path1" d="M208.279 24.374 C 206.686 24.596,206.106 24.928,204.879 26.319 C 204.066 27.242,202.766 28.253,201.992 28.565 C 200.214 29.283,199.460 30.171,198.870 32.242 C 198.613 33.146,197.924 34.586,197.339 35.442 C 196.754 36.299,195.838 37.948,195.305 39.108 L 194.334 41.216 193.993 88.108 C 193.805 113.898,193.533 142.923,193.388 152.607 C 193.113 170.923,193.307 173.773,194.942 175.477 C 195.739 176.307,222.788 176.304,223.395 175.474 C 224.593 173.836,224.791 168.799,225.200 129.600 C 225.428 107.710,225.804 79.270,226.035 66.400 C 226.496 40.779,226.508 40.997,224.140 33.554 C 223.243 30.736,223.052 30.455,221.591 29.796 C 220.723 29.404,219.219 28.223,218.250 27.170 C 215.715 24.419,213.142 23.698,208.279 24.374 M153.286 40.829 C 151.690 41.230,150.460 41.784,150.213 42.211 C 149.295 43.795,147.393 45.689,146.012 46.394 C 144.414 47.209,143.554 49.378,142.761 54.600 C 142.400 56.977,143.054 172.444,143.444 175.095 C 143.720 176.974,144.486 177.211,148.828 176.757 C 150.903 176.540,157.190 176.301,162.800 176.225 L 173.000 176.086 173.800 174.543 C 174.936 172.352,174.892 83.603,173.743 58.232 L 173.490 52.663 171.997 51.032 C 171.176 50.134,170.137 48.675,169.689 47.789 C 166.727 41.930,160.093 39.115,153.286 40.829 M269.613 57.796 C 268.409 58.087,267.357 58.528,267.274 58.777 C 266.905 59.884,264.886 61.784,263.363 62.458 C 262.274 62.939,261.559 63.574,261.293 64.297 C 261.070 64.903,260.599 66.211,260.247 67.203 C 259.895 68.195,258.965 69.983,258.179 71.176 C 256.049 74.410,256.077 74.328,255.198 79.860 C 254.165 86.362,253.543 88.511,251.981 90.969 C 250.945 92.600,250.527 94.043,249.549 99.369 C 248.586 104.607,248.042 106.505,246.617 109.600 C 245.206 112.662,244.659 114.556,243.798 119.351 C 242.591 126.066,242.116 127.637,240.595 129.935 C 238.500 133.102,237.950 138.065,237.596 157.000 C 237.423 166.240,237.156 174.279,237.001 174.865 C 236.649 176.200,237.661 176.936,241.638 178.239 C 243.170 178.741,245.093 179.672,245.912 180.309 C 247.986 181.921,248.066 181.959,251.306 182.851 C 253.601 183.482,254.572 184.004,256.000 185.374 C 258.472 187.744,261.943 189.852,263.924 190.187 C 264.833 190.341,266.013 190.810,266.547 191.230 C 267.864 192.265,267.814 192.457,269.220 180.824 C 270.574 169.625,270.809 168.437,272.377 164.823 C 273.653 161.883,274.115 159.369,275.020 150.418 C 275.823 142.472,276.472 139.153,277.935 135.499 C 279.227 132.272,279.619 130.114,280.811 119.651 C 281.676 112.063,282.435 108.526,283.644 106.453 C 284.715 104.614,285.060 102.699,286.000 93.353 C 286.764 85.769,288.213 79.031,289.675 76.269 C 290.221 75.237,289.289 70.045,288.341 68.837 C 287.926 68.307,287.307 66.917,286.967 65.746 C 286.357 63.647,286.056 63.267,282.059 59.563 C 279.366 57.066,275.128 56.464,269.613 57.796 M97.400 85.809 C 96.300 86.115,95.284 86.373,95.142 86.382 C 95.000 86.392,94.331 87.255,93.657 88.300 C 92.982 89.345,91.626 90.704,90.643 91.319 C 86.788 93.733,86.758 108.823,90.583 122.384 C 91.462 125.503,91.867 129.362,92.788 143.400 C 93.825 159.202,94.598 166.681,95.559 170.200 C 96.907 175.134,97.190 177.195,97.994 187.957 C 98.988 201.259,99.343 202.135,102.158 198.239 C 103.015 197.052,104.365 195.716,105.158 195.269 C 105.951 194.821,107.539 193.463,108.687 192.249 C 110.142 190.711,111.711 189.592,113.866 188.556 C 115.566 187.738,117.597 186.404,118.378 185.591 C 119.397 184.533,120.594 183.858,122.600 183.211 C 127.696 181.569,128.194 180.344,126.390 173.895 C 125.598 171.064,124.662 162.471,123.417 146.600 C 123.023 141.575,122.472 137.577,121.790 134.800 C 119.775 126.586,118.591 116.921,117.730 101.666 C 117.512 97.810,117.336 96.942,116.553 95.866 C 116.047 95.170,115.282 93.970,114.853 93.200 C 111.062 86.385,104.829 83.746,97.400 85.809 M154.640 186.842 C 150.849 187.215,146.808 188.075,144.216 189.059 C 142.526 189.701,135.891 191.183,134.662 191.194 C 132.768 191.210,129.450 192.572,127.777 194.019 C 126.789 194.875,125.099 195.837,124.022 196.157 C 121.292 196.967,120.487 197.441,118.195 199.588 C 117.092 200.621,115.171 202.142,113.927 202.968 C 112.229 204.095,111.283 205.123,110.137 207.081 C 109.298 208.517,107.754 210.671,106.708 211.866 C 105.661 213.062,104.715 214.437,104.606 214.920 C 104.496 215.404,104.245 216.520,104.048 217.400 C 103.851 218.280,103.199 220.800,102.599 223.000 C 101.245 227.968,101.132 232.498,102.114 242.361 C 102.836 249.607,104.189 272.947,104.609 285.400 C 104.981 296.414,105.902 307.323,106.626 309.280 C 107.952 312.862,109.247 317.092,109.789 319.609 C 110.603 323.390,111.018 324.280,112.988 326.471 C 114.122 327.732,115.015 329.251,115.478 330.707 C 116.072 332.574,116.503 333.179,117.908 334.120 C 118.848 334.749,119.968 335.952,120.397 336.794 C 121.196 338.360,122.193 339.290,124.334 340.466 C 125.002 340.833,125.999 341.848,126.551 342.722 C 127.359 344.002,127.972 344.442,129.702 344.987 C 131.043 345.408,132.717 346.402,134.155 347.629 C 136.517 349.645,137.329 349.967,143.550 351.355 C 145.173 351.717,147.836 352.548,149.468 353.202 C 154.209 355.100,155.279 355.147,191.000 355.007 C 226.689 354.867,225.728 354.913,229.400 353.178 C 230.720 352.554,233.864 351.507,236.387 350.850 C 240.264 349.841,241.132 349.467,241.987 348.439 C 242.590 347.714,244.557 346.488,246.847 345.410 C 249.872 343.986,250.906 343.279,251.687 342.100 C 252.662 340.626,253.524 340.006,255.691 339.222 C 256.319 338.994,257.286 338.017,257.969 336.920 C 258.775 335.625,259.772 334.687,261.077 333.998 C 262.505 333.243,263.206 332.542,263.811 331.265 C 264.360 330.108,265.226 329.174,266.472 328.399 C 267.889 327.517,268.556 326.731,269.338 325.024 C 270.048 323.471,270.786 322.545,271.778 321.960 C 272.859 321.322,273.586 320.332,274.805 317.837 C 275.693 316.019,277.126 313.854,278.015 312.986 C 279.249 311.780,279.812 310.768,280.446 308.609 C 281.245 305.893,283.343 302.000,284.009 302.000 C 284.515 302.000,285.472 299.000,286.435 294.400 C 286.918 292.090,287.915 288.344,288.650 286.075 C 289.874 282.298,289.936 281.874,289.388 281.037 C 288.231 279.272,286.753 274.961,285.955 271.026 C 285.107 266.845,284.759 265.906,283.570 264.595 C 282.344 263.245,281.297 260.402,280.434 256.084 C 279.576 251.792,279.187 250.737,277.970 249.395 C 276.242 247.491,275.536 244.892,275.161 239.057 C 274.439 227.818,273.813 224.273,272.395 223.397 C 271.661 222.943,270.008 219.273,269.439 216.835 C 268.845 214.288,268.173 213.077,266.836 212.140 C 266.376 211.818,265.106 210.169,264.016 208.477 C 261.273 204.221,254.568 198.047,250.671 196.190 C 248.853 195.323,247.507 194.377,247.000 193.610 C 246.128 192.291,245.409 191.995,240.600 190.973 C 238.840 190.599,235.240 189.462,232.600 188.446 L 227.800 186.600 193.000 186.546 C 173.860 186.516,156.598 186.649,154.640 186.842 M314.800 187.845 C 313.370 188.635,311.838 189.614,311.395 190.021 C 310.952 190.428,309.720 191.146,308.657 191.616 C 307.055 192.325,306.583 192.790,305.902 194.328 C 305.451 195.349,304.144 197.178,303.000 198.392 C 301.855 199.606,300.188 201.860,299.295 203.400 C 298.373 204.992,297.161 206.499,296.486 206.893 C 295.736 207.331,294.819 208.552,293.993 210.214 C 293.017 212.178,292.298 213.064,291.149 213.721 C 289.992 214.383,289.461 215.043,288.999 216.392 C 288.662 217.378,287.874 218.822,287.248 219.600 C 286.622 220.379,285.700 222.141,285.199 223.515 L 284.288 226.014 285.532 228.507 C 286.561 230.568,286.887 231.937,287.411 236.400 C 288.339 244.299,289.502 249.548,290.670 251.106 C 292.371 253.374,293.544 256.468,294.416 260.987 C 295.489 266.548,295.492 266.552,298.434 267.378 C 301.457 268.226,301.601 268.117,302.779 264.109 C 303.402 261.989,304.160 260.555,305.618 258.738 C 307.025 256.986,307.846 255.461,308.418 253.538 C 309.038 251.458,309.637 250.404,310.965 249.057 C 312.268 247.735,313.070 246.343,314.183 243.471 C 315.317 240.544,315.978 239.406,316.999 238.628 C 317.908 237.935,318.551 236.942,319.021 235.506 C 320.097 232.220,321.397 229.910,322.929 228.563 C 323.871 227.734,324.478 226.743,324.768 225.563 C 325.357 223.161,327.123 219.718,328.203 218.869 C 329.265 218.034,330.273 216.170,331.026 213.649 C 331.329 212.632,332.303 210.925,333.189 209.856 C 334.075 208.787,334.800 207.867,334.800 207.811 C 334.800 207.755,334.975 206.786,335.189 205.657 C 335.790 202.488,335.128 198.173,333.891 197.200 C 333.352 196.776,332.540 195.568,332.087 194.514 C 331.064 192.135,329.889 191.008,327.590 190.197 C 326.607 189.850,325.262 189.048,324.601 188.415 C 323.746 187.595,322.717 187.139,321.027 186.832 C 317.735 186.233,317.713 186.237,314.800 187.845 " stroke="none" fill="#f2f2f2" fill-rule="evenodd"></path><path id="path2" d="M19.844 0.290 C 19.684 0.449,18.672 0.944,17.593 1.390 C 16.310 1.920,15.315 2.684,14.713 3.600 C 14.207 4.370,13.020 5.391,12.075 5.869 C 9.697 7.071,9.300 7.459,8.430 9.426 C 7.938 10.537,7.107 11.501,6.084 12.147 C 4.881 12.907,4.324 13.635,3.772 15.171 C 3.371 16.284,2.359 18.099,1.522 19.205 L -0.000 21.216 0.000 199.766 L 0.000 378.315 1.100 379.502 C 1.705 380.155,2.518 381.602,2.907 382.719 C 3.447 384.268,4.658 385.877,8.020 389.515 C 11.886 393.698,13.302 394.885,17.518 397.478 C 18.023 397.788,18.637 398.483,18.882 399.021 L 19.328 400.000 200.507 400.000 L 381.685 400.000 382.478 398.991 C 382.915 398.436,384.669 397.086,386.376 395.991 C 388.083 394.896,390.395 392.948,391.513 391.663 C 392.631 390.378,394.383 388.443,395.406 387.363 C 396.429 386.283,397.882 384.125,398.633 382.566 L 400.000 379.732 400.000 199.289 C 400.000 66.126,399.882 18.774,399.550 18.569 C 399.303 18.416,398.602 17.191,397.992 15.846 C 397.265 14.244,396.312 12.942,395.230 12.072 C 394.322 11.342,393.199 9.938,392.735 8.952 C 392.087 7.572,391.453 6.936,389.983 6.191 C 388.932 5.659,387.405 4.408,386.588 3.412 C 385.772 2.415,384.893 1.600,384.636 1.600 C 384.379 1.600,383.463 1.240,382.600 0.800 C 380.986 -0.023,20.663 -0.530,19.844 0.290 M217.294 14.838 C 222.763 15.934,223.802 16.435,226.607 19.321 C 227.931 20.684,229.524 22.136,230.146 22.547 C 230.817 22.991,231.729 24.304,232.391 25.780 C 233.004 27.147,234.041 28.880,234.695 29.633 C 237.814 33.220,238.115 36.552,237.945 65.552 C 237.795 91.073,238.006 94.800,239.600 94.800 C 240.128 94.800,241.016 91.442,241.982 85.800 C 242.618 82.084,243.160 80.277,244.384 77.800 C 245.518 75.506,246.191 73.377,246.762 70.281 C 247.634 65.555,249.072 61.911,250.332 61.236 C 250.777 60.998,251.699 59.622,252.382 58.177 C 253.279 56.278,253.980 55.363,254.911 54.875 C 255.620 54.504,257.108 53.242,258.218 52.070 C 260.329 49.843,260.738 49.650,270.000 46.542 C 273.512 45.363,277.914 45.487,280.400 46.835 C 281.170 47.252,283.103 48.026,284.695 48.555 C 288.875 49.944,292.600 53.246,294.730 57.451 C 295.190 58.359,295.835 59.205,296.164 59.331 C 301.022 61.195,301.184 86.088,296.408 96.800 C 295.566 98.689,295.126 100.549,294.798 103.600 C 293.043 119.943,292.444 123.422,290.735 127.200 C 289.787 129.297,289.444 130.884,288.966 135.400 C 287.962 144.870,286.419 153.550,285.182 156.675 C 283.946 159.798,283.373 162.545,282.985 167.200 C 282.628 171.490,281.330 179.488,280.647 181.600 C 280.327 182.590,279.606 184.672,279.044 186.226 C 275.616 195.721,276.482 214.296,280.127 209.436 C 280.607 208.796,282.016 207.266,283.257 206.036 C 284.499 204.806,285.887 203.054,286.343 202.143 C 286.799 201.232,287.870 199.882,288.722 199.143 C 289.591 198.389,291.094 196.282,292.147 194.339 C 293.196 192.402,294.592 190.444,295.315 189.892 C 296.027 189.349,296.870 188.387,297.190 187.753 C 298.369 185.414,299.307 184.362,300.934 183.553 C 301.850 183.097,303.410 181.869,304.400 180.823 C 309.397 175.545,328.859 175.338,333.821 180.510 C 334.713 181.440,336.128 182.719,336.966 183.353 C 337.804 183.986,338.843 185.106,339.276 185.840 C 339.709 186.574,340.660 187.543,341.389 187.993 C 346.688 191.268,346.612 213.043,341.283 218.534 C 340.166 219.685,339.269 221.237,338.383 223.554 C 337.635 225.511,336.520 227.550,335.709 228.448 C 334.943 229.295,333.795 231.272,333.156 232.842 C 332.518 234.411,331.301 236.528,330.453 237.547 C 328.711 239.640,327.978 240.961,326.781 244.160 C 326.260 245.550,325.442 246.802,324.597 247.498 C 323.584 248.333,322.884 249.563,321.801 252.406 C 320.784 255.078,319.900 256.673,318.812 257.800 C 317.780 258.868,316.844 260.502,315.997 262.717 C 315.263 264.636,314.102 266.757,313.242 267.752 C 312.378 268.750,311.294 270.734,310.655 272.485 C 309.957 274.398,308.916 276.249,307.807 277.548 C 306.304 279.310,304.400 283.156,304.400 284.432 C 304.400 284.653,303.608 285.682,302.639 286.717 C 300.549 288.951,299.116 292.007,298.415 295.719 C 298.127 297.249,297.496 298.982,296.962 299.711 C 295.427 301.809,294.474 303.997,293.565 307.508 C 292.860 310.229,292.400 311.158,290.971 312.748 C 289.998 313.829,288.848 315.710,288.358 317.020 C 287.848 318.382,286.770 320.121,285.777 321.183 C 284.839 322.186,283.326 324.389,282.415 326.077 C 281.370 328.014,280.286 329.446,279.479 329.957 C 278.735 330.428,277.698 331.735,277.000 333.080 C 276.094 334.826,275.378 335.624,274.073 336.341 C 273.089 336.882,272.174 337.743,271.946 338.345 C 271.397 339.796,270.081 341.134,268.308 342.043 C 267.488 342.464,266.560 343.301,266.246 343.904 C 265.519 345.303,264.247 346.438,262.080 347.627 C 261.134 348.145,259.990 349.169,259.537 349.901 C 258.985 350.796,257.798 351.694,255.925 352.638 C 254.392 353.410,252.386 354.727,251.468 355.564 C 249.432 357.423,248.728 357.801,245.398 358.830 C 243.962 359.273,242.180 360.169,241.439 360.819 C 237.090 364.638,234.948 364.802,189.660 364.788 C 143.399 364.772,141.367 364.621,136.555 360.836 C 136.003 360.402,133.718 359.451,131.476 358.723 C 128.049 357.611,127.144 357.133,125.792 355.725 C 124.868 354.761,123.081 353.554,121.587 352.884 C 119.592 351.989,118.812 351.388,118.221 350.292 C 117.799 349.507,116.751 348.470,115.893 347.988 C 114.978 347.474,113.777 346.241,112.988 345.007 C 112.247 343.850,110.991 342.520,110.195 342.050 C 109.119 341.415,108.448 340.534,107.576 338.612 C 106.877 337.070,105.903 335.659,105.162 335.114 C 103.654 334.004,102.766 332.338,101.580 328.395 C 101.085 326.748,100.171 324.680,99.549 323.800 C 97.085 320.314,96.282 316.269,95.619 304.000 C 95.126 294.876,94.593 289.367,93.801 285.200 C 92.340 277.515,90.433 247.186,90.412 231.298 C 90.393 217.292,89.787 209.475,87.986 200.000 C 86.376 191.529,85.063 179.020,84.585 167.600 C 84.257 159.773,83.749 155.725,82.591 151.730 C 81.381 147.556,80.323 137.511,78.975 117.400 C 78.626 112.204,77.580 103.197,77.003 100.427 C 76.495 97.990,76.517 97.724,77.411 95.427 C 77.930 94.092,78.851 91.311,79.457 89.247 C 80.281 86.439,80.852 85.230,81.724 84.447 C 83.484 82.867,85.681 80.648,86.800 79.320 C 87.350 78.668,88.700 77.809,89.800 77.411 C 90.900 77.014,93.600 75.980,95.800 75.113 C 100.263 73.356,104.128 73.246,107.200 74.790 C 107.970 75.177,110.130 75.981,112.000 76.577 C 115.464 77.681,118.800 79.352,118.800 79.984 C 118.800 80.176,120.118 81.744,121.728 83.467 C 125.350 87.342,125.846 88.572,126.827 96.109 C 128.043 105.454,128.316 105.913,129.438 100.500 C 130.070 97.451,130.192 94.113,130.382 74.600 C 130.620 50.154,130.530 51.074,133.002 47.833 C 133.576 47.080,134.572 44.965,135.214 43.132 C 135.997 40.901,136.729 39.536,137.429 39.000 C 138.545 38.146,140.233 36.498,142.230 34.311 C 143.206 33.241,144.150 32.775,146.816 32.044 C 148.663 31.538,151.259 30.569,152.587 29.891 C 155.955 28.170,160.660 28.207,163.772 29.978 C 164.887 30.613,166.850 31.499,168.133 31.948 C 172.346 33.419,173.840 34.568,176.246 38.183 C 178.145 41.037,178.724 41.615,180.275 42.207 C 181.528 42.686,182.340 43.331,182.914 44.303 C 184.000 46.144,184.249 45.534,185.000 39.200 C 185.930 31.359,186.554 29.313,188.694 27.111 C 189.489 26.293,190.524 24.853,190.992 23.911 C 191.531 22.831,192.565 21.713,193.800 20.878 C 194.876 20.151,196.153 18.971,196.639 18.256 C 198.014 16.233,208.830 13.196,212.321 13.852 C 212.827 13.948,215.065 14.391,217.294 14.838 " stroke="none" fill="#e3142c" fill-rule="evenodd"></path><path id="path3" d="M2.400 0.377 C 2.400 0.585,1.860 1.074,1.200 1.464 C 0.540 1.854,0.000 2.503,0.000 2.906 C 0.000 3.503,0.334 3.360,1.800 2.135 C 3.687 0.558,4.001 0.000,3.000 0.000 C 2.670 0.000,2.400 0.170,2.400 0.377 M14.122 1.929 C 13.065 2.990,11.349 4.436,10.309 5.142 C 9.270 5.848,7.948 7.230,7.372 8.212 C 6.796 9.195,5.837 10.346,5.242 10.770 C 4.646 11.194,3.648 12.499,3.023 13.671 C 2.398 14.842,1.451 16.388,0.918 17.106 C 0.255 18.000,-0.010 18.820,0.075 19.706 L 0.200 21.000 1.639 19.049 C 2.431 17.976,3.398 16.209,3.789 15.123 C 4.323 13.636,4.891 12.900,6.084 12.147 C 7.107 11.501,7.938 10.537,8.430 9.426 C 9.300 7.459,9.697 7.071,12.075 5.869 C 13.020 5.391,14.207 4.370,14.713 3.600 C 15.315 2.684,16.310 1.920,17.593 1.390 C 20.341 0.254,20.432 -0.000,18.089 -0.000 C 16.178 -0.000,15.919 0.126,14.122 1.929 M381.793 0.389 C 381.925 0.603,382.748 0.992,383.622 1.254 C 384.679 1.570,385.689 2.314,386.641 3.476 C 387.429 4.437,388.932 5.659,389.983 6.191 C 391.453 6.936,392.087 7.572,392.735 8.952 C 393.199 9.938,394.322 11.342,395.230 12.072 C 396.312 12.942,397.265 14.244,397.992 15.846 C 399.297 18.724,400.000 19.367,400.000 17.683 C 400.000 13.407,387.366 -0.000,383.336 -0.000 C 382.283 -0.000,381.651 0.159,381.793 0.389 M398.400 1.000 C 399.410 2.075,400.000 2.276,400.000 1.544 C 400.000 0.972,398.787 0.030,398.030 0.013 C 397.640 0.004,397.757 0.315,398.400 1.000 M206.000 14.636 C 199.713 15.750,197.854 16.469,196.639 18.256 C 196.153 18.971,194.876 20.151,193.800 20.878 C 192.565 21.713,191.531 22.831,190.992 23.911 C 190.524 24.853,189.489 26.293,188.694 27.111 C 186.554 29.313,185.930 31.359,185.000 39.200 C 184.249 45.534,184.000 46.144,182.914 44.303 C 182.340 43.331,181.528 42.686,180.275 42.207 C 178.724 41.615,178.145 41.037,176.246 38.183 C 173.840 34.568,172.346 33.419,168.133 31.948 C 166.850 31.499,164.887 30.613,163.772 29.978 C 160.660 28.207,155.955 28.170,152.587 29.891 C 151.259 30.569,148.663 31.538,146.816 32.044 C 144.150 32.775,143.206 33.241,142.230 34.311 C 140.233 36.498,138.545 38.146,137.429 39.000 C 136.729 39.536,135.997 40.901,135.214 43.132 C 134.572 44.965,133.576 47.080,133.002 47.833 C 130.530 51.074,130.620 50.154,130.382 74.600 C 130.192 94.113,130.070 97.451,129.438 100.500 C 128.316 105.913,128.043 105.454,126.827 96.109 C 125.846 88.572,125.350 87.342,121.728 83.467 C 120.118 81.744,118.800 80.176,118.800 79.984 C 118.800 79.352,115.464 77.681,112.000 76.577 C 110.130 75.981,107.970 75.177,107.200 74.790 C 104.128 73.246,100.263 73.356,95.800 75.113 C 93.600 75.980,90.900 77.014,89.800 77.411 C 88.700 77.809,87.350 78.668,86.800 79.320 C 85.681 80.648,83.484 82.867,81.724 84.447 C 80.852 85.230,80.281 86.439,79.457 89.247 C 78.851 91.311,77.930 94.092,77.411 95.427 C 76.517 97.724,76.495 97.990,77.003 100.427 C 77.580 103.197,78.626 112.204,78.975 117.400 C 80.323 137.511,81.381 147.556,82.591 151.730 C 83.749 155.725,84.257 159.773,84.585 167.600 C 85.063 179.020,86.376 191.529,87.986 200.000 C 89.787 209.475,90.393 217.292,90.412 231.298 C 90.433 247.186,92.340 277.515,93.801 285.200 C 94.593 289.367,95.126 294.876,95.619 304.000 C 96.282 316.269,97.085 320.314,99.549 323.800 C 100.171 324.680,101.085 326.748,101.580 328.395 C 102.766 332.338,103.654 334.004,105.162 335.114 C 105.903 335.659,106.877 337.070,107.576 338.612 C 108.448 340.534,109.119 341.415,110.195 342.050 C 110.991 342.520,112.247 343.850,112.988 345.007 C 113.777 346.241,114.978 347.474,115.893 347.988 C 116.751 348.470,117.799 349.507,118.221 350.292 C 118.812 351.388,119.592 351.989,121.587 352.884 C 123.081 353.554,124.868 354.761,125.792 355.725 C 127.144 357.133,128.049 357.611,131.476 358.723 C 133.718 359.451,136.003 360.402,136.555 360.836 C 141.367 364.621,143.399 364.772,189.660 364.788 C 234.948 364.802,237.090 364.638,241.439 360.819 C 242.180 360.169,243.962 359.273,245.398 358.830 C 248.728 357.801,249.432 357.423,251.468 355.564 C 252.386 354.727,254.392 353.410,255.925 352.638 C 257.798 351.694,258.985 350.796,259.537 349.901 C 259.990 349.169,261.134 348.145,262.080 347.627 C 264.247 346.438,265.519 345.303,266.246 343.904 C 266.560 343.301,267.488 342.464,268.308 342.043 C 270.081 341.134,271.397 339.796,271.946 338.345 C 272.174 337.743,273.089 336.882,274.073 336.341 C 275.378 335.624,276.094 334.826,277.000 333.080 C 277.698 331.735,278.735 330.428,279.479 329.957 C 280.286 329.446,281.370 328.014,282.415 326.077 C 283.326 324.389,284.839 322.186,285.777 321.183 C 286.770 320.121,287.848 318.382,288.358 317.020 C 288.848 315.710,289.998 313.829,290.971 312.748 C 292.400 311.158,292.860 310.229,293.565 307.508 C 294.474 303.997,295.427 301.809,296.962 299.711 C 297.496 298.982,298.127 297.249,298.415 295.719 C 299.116 292.007,300.549 288.951,302.639 286.717 C 303.608 285.682,304.400 284.653,304.400 284.432 C 304.400 283.156,306.304 279.310,307.807 277.548 C 308.916 276.249,309.957 274.398,310.655 272.485 C 311.294 270.734,312.378 268.750,313.242 267.752 C 314.102 266.757,315.263 264.636,315.997 262.717 C 316.844 260.502,317.780 258.868,318.812 257.800 C 319.900 256.673,320.784 255.078,321.801 252.406 C 322.884 249.563,323.584 248.333,324.597 247.498 C 325.442 246.802,326.260 245.550,326.781 244.160 C 327.978 240.961,328.711 239.640,330.453 237.547 C 331.301 236.528,332.518 234.411,333.156 232.842 C 333.795 231.272,334.943 229.295,335.709 228.448 C 336.520 227.550,337.635 225.511,338.383 223.554 C 339.269 221.237,340.166 219.685,341.283 218.534 C 346.612 213.043,346.688 191.268,341.389 187.993 C 340.660 187.543,339.709 186.574,339.276 185.840 C 338.843 185.106,337.804 183.986,336.966 183.353 C 336.128 182.719,334.713 181.440,333.821 180.510 C 328.859 175.338,309.397 175.545,304.400 180.823 C 303.410 181.869,301.850 183.097,300.934 183.553 C 299.307 184.362,298.369 185.414,297.190 187.753 C 296.870 188.387,296.027 189.349,295.315 189.892 C 294.592 190.444,293.196 192.402,292.147 194.339 C 291.094 196.282,289.591 198.389,288.722 199.143 C 287.870 199.882,286.799 201.232,286.343 202.143 C 285.887 203.054,284.499 204.806,283.257 206.036 C 282.016 207.266,280.607 208.796,280.127 209.436 C 276.482 214.296,275.616 195.721,279.044 186.226 C 279.606 184.672,280.327 182.590,280.647 181.600 C 281.330 179.488,282.628 171.490,282.985 167.200 C 283.373 162.545,283.946 159.798,285.182 156.675 C 286.419 153.550,287.962 144.870,288.966 135.400 C 289.444 130.884,289.787 129.297,290.735 127.200 C 292.444 123.422,293.043 119.943,294.798 103.600 C 295.126 100.549,295.566 98.689,296.408 96.800 C 301.184 86.088,301.022 61.195,296.164 59.331 C 295.835 59.205,295.190 58.359,294.730 57.451 C 292.600 53.246,288.875 49.944,284.695 48.555 C 283.103 48.026,281.170 47.252,280.400 46.835 C 277.914 45.487,273.512 45.363,270.000 46.542 C 260.738 49.650,260.329 49.843,258.218 52.070 C 257.108 53.242,255.620 54.504,254.911 54.875 C 253.980 55.363,253.279 56.278,252.382 58.177 C 251.699 59.622,250.777 60.998,250.332 61.236 C 249.072 61.911,247.634 65.555,246.762 70.281 C 246.191 73.377,245.518 75.506,244.384 77.800 C 243.160 80.277,242.618 82.084,241.982 85.800 C 241.016 91.442,240.128 94.800,239.600 94.800 C 238.006 94.800,237.795 91.073,237.945 65.552 C 238.115 36.552,237.814 33.220,234.695 29.633 C 234.041 28.880,233.004 27.147,232.391 25.780 C 231.729 24.304,230.817 22.991,230.146 22.547 C 229.524 22.136,227.931 20.684,226.607 19.321 C 223.473 16.096,222.726 15.810,212.321 13.852 C 211.814 13.757,208.970 14.110,206.000 14.636 M216.798 16.027 C 220.448 16.620,222.657 17.705,225.200 20.157 C 226.410 21.324,227.974 22.670,228.676 23.149 C 229.434 23.667,230.385 24.948,231.022 26.310 C 231.611 27.569,232.965 30.380,234.032 32.556 C 237.384 39.395,237.363 39.159,236.869 64.741 C 236.318 93.293,236.830 99.535,239.690 99.129 C 240.774 98.975,241.176 97.584,242.329 89.995 C 242.768 87.107,243.436 84.316,243.908 83.395 C 244.358 82.518,245.197 80.894,245.772 79.786 C 246.522 78.340,246.986 76.484,247.417 73.203 C 248.059 68.314,249.068 65.528,251.144 62.909 C 251.802 62.079,252.827 60.361,253.421 59.091 C 254.403 56.993,256.107 55.200,257.118 55.200 C 257.335 55.200,258.478 54.238,259.657 53.063 C 264.525 48.209,279.993 46.685,286.200 50.448 C 288.134 51.621,293.167 57.024,293.852 58.663 C 294.198 59.492,295.172 60.954,296.015 61.912 C 299.915 66.343,299.907 81.926,295.999 91.641 C 294.384 95.656,293.835 98.640,293.393 105.800 C 293.015 111.915,292.064 117.021,290.538 121.117 C 288.902 125.510,288.200 129.351,287.615 137.121 C 287.237 142.142,286.969 143.496,285.428 148.181 C 283.392 154.368,282.559 158.839,282.020 166.466 C 281.544 173.188,280.825 176.401,279.013 179.900 C 277.708 182.420,277.558 183.107,276.773 190.200 C 276.311 194.380,275.689 199.212,275.392 200.938 C 275.048 202.938,274.983 204.388,275.213 204.938 C 275.412 205.412,275.856 206.808,276.199 208.041 C 276.999 210.918,278.328 212.275,279.662 211.579 C 281.218 210.768,286.020 205.519,286.895 203.672 C 287.346 202.722,288.510 201.282,289.484 200.472 C 290.550 199.585,291.821 197.922,292.682 196.288 C 293.469 194.796,295.032 192.514,296.156 191.217 C 297.280 189.920,298.689 188.131,299.287 187.243 C 299.884 186.354,301.144 185.143,302.087 184.552 C 303.029 183.961,304.664 182.704,305.719 181.760 C 311.328 176.743,328.886 176.495,332.613 181.381 C 333.193 182.141,334.457 183.226,335.423 183.792 C 336.492 184.419,337.592 185.526,338.235 186.624 C 338.816 187.616,339.794 188.687,340.407 189.004 C 345.296 191.532,345.406 211.427,340.561 216.791 C 339.798 217.635,338.713 219.467,338.150 220.863 C 337.587 222.258,336.393 224.377,335.496 225.572 C 334.599 226.766,333.371 229.070,332.766 230.690 C 331.688 233.582,329.921 236.400,329.188 236.400 C 328.678 236.400,327.447 238.914,326.548 241.794 C 326.000 243.547,325.303 244.687,323.943 246.056 C 322.756 247.250,321.779 248.744,321.236 250.195 C 320.016 253.455,319.264 254.837,317.964 256.210 C 317.333 256.876,316.346 258.586,315.772 260.010 C 315.197 261.435,313.985 263.587,313.080 264.794 C 312.174 266.000,311.019 268.126,310.514 269.517 C 309.230 273.055,308.652 274.072,306.877 275.920 C 305.943 276.892,304.834 278.742,304.091 280.566 C 303.412 282.233,302.196 284.402,301.390 285.386 C 300.402 286.592,299.407 288.647,298.340 291.688 C 297.469 294.170,296.329 296.830,295.808 297.600 C 295.286 298.370,294.592 299.900,294.264 301.000 C 292.162 308.066,291.796 308.966,290.194 311.030 C 289.265 312.225,288.106 314.302,287.616 315.644 C 287.024 317.269,286.159 318.638,285.027 319.742 C 284.092 320.654,282.590 322.750,281.689 324.400 C 280.788 326.050,279.397 328.030,278.599 328.800 C 277.800 329.570,276.775 330.830,276.320 331.600 C 275.865 332.370,274.572 333.912,273.446 335.026 C 272.321 336.141,271.040 337.663,270.600 338.409 C 270.160 339.155,268.900 340.381,267.800 341.133 C 266.700 341.884,265.311 343.191,264.713 344.036 C 264.115 344.882,262.767 346.013,261.713 346.551 C 260.661 347.089,259.170 348.185,258.400 348.986 C 257.630 349.788,255.509 351.257,253.686 352.251 C 251.862 353.245,250.152 354.415,249.885 354.852 C 249.150 356.055,247.135 357.159,243.791 358.190 C 242.131 358.703,239.833 359.764,238.686 360.550 C 234.343 363.523,236.499 363.400,188.600 363.400 C 141.099 363.400,143.645 363.538,140.176 360.781 C 139.366 360.137,137.690 359.317,136.451 358.957 C 131.535 357.532,129.455 356.608,127.080 354.792 C 125.716 353.750,123.892 352.650,123.027 352.348 C 122.162 352.047,120.902 351.221,120.227 350.514 C 119.552 349.806,118.608 348.816,118.129 348.314 C 117.650 347.811,116.691 346.970,115.999 346.445 C 115.307 345.920,114.303 344.796,113.768 343.949 C 113.233 343.101,112.073 341.930,111.190 341.346 C 110.015 340.569,109.250 339.577,108.334 337.642 C 107.645 336.189,106.568 334.408,105.940 333.685 C 104.357 331.863,103.081 329.199,101.856 325.161 C 101.281 323.270,100.475 321.290,100.062 320.761 C 97.660 317.679,97.283 315.755,96.814 304.200 C 95.790 278.976,95.604 276.528,94.028 267.496 C 91.990 255.815,91.195 242.718,91.230 221.400 C 91.253 206.731,90.674 197.583,89.519 194.400 C 87.685 189.342,87.263 187.517,86.652 182.000 C 86.299 178.810,85.911 173.050,85.790 169.200 C 85.335 154.793,84.398 145.679,82.945 141.520 C 81.416 137.143,80.852 132.162,79.987 115.400 C 79.544 106.820,79.092 99.510,78.982 99.155 C 78.871 98.800,79.062 96.883,79.405 94.894 C 81.501 82.751,91.499 75.120,103.649 76.389 C 112.822 77.347,115.114 78.480,120.763 84.845 C 125.668 90.373,125.469 89.544,126.771 109.929 C 127.150 115.862,127.460 116.408,130.014 115.643 C 132.884 114.783,133.107 113.481,132.415 101.600 C 130.792 73.734,131.225 54.249,133.540 50.965 C 134.186 50.048,135.014 48.267,135.380 47.008 C 136.670 42.571,137.788 40.584,139.756 39.231 C 140.769 38.533,141.866 37.447,142.191 36.816 C 143.375 34.527,145.716 33.427,152.200 32.115 C 163.181 29.893,172.383 33.326,176.364 41.130 C 176.833 42.048,177.888 43.227,178.708 43.748 C 180.867 45.120,181.574 46.051,182.592 48.862 C 184.257 53.461,185.284 51.270,185.996 41.600 C 186.509 34.625,187.474 30.986,189.370 28.883 C 190.105 28.067,191.108 26.544,191.598 25.498 C 192.477 23.624,194.167 21.871,195.823 21.117 C 196.288 20.905,196.973 20.216,197.345 19.585 C 199.256 16.350,208.438 14.671,216.798 16.027 M207.400 21.553 C 204.577 21.869,203.037 22.619,202.019 24.171 C 201.612 24.791,200.587 25.683,199.740 26.153 C 198.586 26.793,197.849 27.686,196.800 29.711 C 195.917 31.416,194.939 32.694,194.152 33.170 C 191.840 34.569,191.894 33.824,191.574 68.800 C 191.412 86.510,191.069 111.710,190.811 124.800 C 190.553 137.890,190.310 154.360,190.271 161.400 C 190.165 180.528,188.746 179.200,209.290 179.200 L 224.062 179.200 225.178 178.084 C 227.359 175.902,227.883 171.885,228.187 155.000 C 228.333 146.860,228.616 138.850,228.816 137.200 C 229.015 135.550,229.354 129.265,229.569 123.233 C 229.935 112.959,230.630 103.398,231.062 102.700 C 231.166 102.532,231.243 88.357,231.233 71.201 C 231.213 37.698,231.239 38.143,229.198 36.471 C 228.747 36.102,227.773 34.180,227.032 32.200 C 225.734 28.732,225.606 28.554,223.542 27.341 C 222.129 26.511,221.052 25.490,220.376 24.341 C 218.897 21.825,214.120 20.799,207.400 21.553 M215.370 22.393 C 217.551 22.750,217.939 22.982,220.210 25.291 C 221.568 26.671,223.310 28.289,224.080 28.888 C 225.203 29.759,225.744 30.713,226.800 33.688 C 227.525 35.729,228.550 38.235,229.078 39.256 L 230.038 41.113 229.989 58.856 C 229.961 68.743,229.697 80.408,229.393 85.200 C 229.093 89.930,228.738 101.810,228.605 111.600 C 228.472 121.390,228.199 131.380,227.998 133.800 C 227.798 136.220,227.525 145.310,227.391 154.000 C 227.106 172.462,226.761 175.285,224.510 177.557 L 223.166 178.914 220.122 178.657 C 218.449 178.516,211.958 178.400,205.700 178.400 L 194.320 178.400 193.006 177.086 C 190.686 174.766,190.638 173.968,191.197 147.200 C 191.471 134.110,191.826 104.500,191.986 81.400 C 192.309 34.782,192.205 36.482,194.913 33.669 C 195.691 32.861,196.729 31.332,197.221 30.271 C 197.713 29.210,198.748 27.860,199.521 27.271 C 200.294 26.682,201.706 25.505,202.657 24.655 C 205.534 22.086,209.349 21.407,215.370 22.393 M152.748 37.988 C 149.443 38.617,147.200 39.591,147.200 40.395 C 147.200 40.984,144.774 43.600,144.228 43.600 C 143.167 43.600,141.936 45.637,140.800 49.271 C 140.145 51.366,139.242 53.547,138.794 54.117 C 136.957 56.453,136.885 57.097,137.058 69.767 C 137.149 76.349,137.381 82.853,137.574 84.221 C 137.947 86.853,137.495 94.441,136.830 96.719 C 136.433 98.079,137.370 101.163,138.367 101.780 C 138.645 101.952,138.807 104.216,138.821 108.124 C 138.832 111.466,139.000 115.460,139.194 117.000 C 139.387 118.540,139.750 132.400,140.000 147.800 C 140.502 178.720,140.406 177.742,143.059 179.001 C 144.264 179.573,146.078 179.613,159.427 179.360 L 174.440 179.075 176.194 177.963 C 178.948 176.216,179.941 168.054,178.863 156.006 C 178.418 151.018,177.963 134.692,177.161 94.800 C 176.167 45.423,176.495 49.105,172.770 45.458 C 171.676 44.386,170.330 42.740,169.778 41.799 C 168.601 39.790,166.416 38.680,162.389 38.047 C 157.811 37.328,156.268 37.318,152.748 37.988 M161.380 38.394 C 165.565 39.080,167.422 40.313,171.000 44.783 C 176.262 51.357,175.951 48.030,176.784 106.600 C 176.994 121.340,177.377 141.534,177.635 151.476 C 178.336 178.465,178.079 179.227,168.474 178.612 C 166.343 178.476,160.190 178.532,154.800 178.738 C 139.467 179.322,141.072 182.575,140.732 150.218 C 140.491 127.280,139.626 85.262,138.994 65.742 L 138.758 58.484 140.427 52.942 C 142.475 46.138,142.763 45.565,144.896 44.029 C 145.833 43.354,146.945 42.286,147.367 41.656 C 149.319 38.735,155.160 37.376,161.380 38.394 M268.800 54.955 C 265.616 55.540,264.585 56.083,263.809 57.582 C 263.480 58.219,262.448 59.252,261.516 59.878 C 259.823 61.015,259.583 61.356,257.998 64.874 C 257.461 66.066,256.661 67.039,255.799 67.547 C 254.188 68.498,253.933 69.287,252.853 76.641 C 252.123 81.612,251.241 84.400,250.398 84.400 C 249.243 84.400,247.947 88.992,247.406 95.000 C 247.056 98.899,246.158 101.459,244.788 102.472 C 243.222 103.630,242.898 104.640,242.231 110.443 C 241.501 116.791,240.684 119.959,238.990 123.000 C 237.373 125.904,236.934 127.608,236.250 133.639 C 235.614 139.251,234.816 141.131,232.800 141.765 L 231.400 142.205 231.517 158.602 C 231.659 178.509,231.208 176.971,237.897 180.348 C 239.241 181.026,240.451 181.929,240.586 182.355 C 241.015 183.709,241.817 184.019,246.761 184.747 C 251.918 185.506,253.255 186.170,253.771 188.229 C 253.937 188.888,254.682 189.499,256.187 190.211 C 257.384 190.777,258.824 191.816,259.388 192.520 C 259.951 193.224,260.574 194.001,260.772 194.247 C 260.971 194.493,262.616 195.094,264.428 195.583 C 269.819 197.038,270.758 196.090,271.286 188.663 C 271.743 182.224,272.845 176.924,274.134 174.957 C 275.406 173.016,276.168 168.743,276.977 159.000 C 277.626 151.195,278.218 148.355,279.579 146.515 C 280.947 144.664,281.650 140.721,282.384 130.800 C 282.935 123.335,283.747 119.449,285.183 117.400 C 286.800 115.091,286.941 114.195,288.423 96.800 C 288.933 90.815,289.393 89.018,290.854 87.311 C 293.981 83.655,294.192 66.931,291.139 64.756 C 290.506 64.306,289.699 63.366,289.347 62.668 C 285.798 55.648,278.973 53.085,268.800 54.955 M280.727 55.894 C 283.287 56.655,286.153 59.093,288.022 62.099 C 288.740 63.255,289.961 65.148,290.736 66.308 C 293.138 69.904,293.167 78.701,290.794 84.000 C 288.791 88.473,288.033 92.236,287.407 100.800 C 287.058 105.574,286.098 110.941,285.162 113.352 C 283.719 117.069,282.389 123.585,281.784 129.903 C 281.148 136.539,280.540 139.719,279.238 143.220 C 277.933 146.726,277.290 150.113,276.394 158.200 C 275.506 166.214,275.011 168.679,273.448 172.841 C 272.349 175.768,271.403 180.938,270.662 188.064 C 269.901 195.379,269.295 196.098,265.008 194.773 C 263.238 194.227,261.860 193.481,260.876 192.539 C 260.064 191.761,258.455 190.584,257.300 189.924 C 256.145 189.264,254.913 188.238,254.562 187.644 C 253.542 185.917,251.674 184.960,247.474 184.015 C 244.574 183.361,243.216 182.841,242.274 182.022 C 241.573 181.412,240.187 180.556,239.192 180.120 C 233.434 177.594,232.541 176.366,233.559 172.372 C 234.200 169.859,234.353 167.301,234.551 155.800 C 234.778 142.622,234.816 142.113,235.782 139.400 C 236.331 137.860,236.784 135.941,236.790 135.135 C 236.810 132.307,238.004 127.422,239.369 124.585 C 240.960 121.277,241.785 118.323,242.797 112.313 C 243.349 109.028,243.952 107.097,245.376 104.051 C 246.426 101.805,247.417 98.971,247.653 97.538 C 248.791 90.648,249.267 88.845,250.648 86.206 C 252.400 82.858,252.629 82.110,253.412 77.200 C 254.309 71.577,254.991 69.546,256.440 68.189 C 257.138 67.535,258.217 65.895,258.839 64.543 C 259.481 63.146,260.510 61.680,261.224 61.143 C 261.914 60.625,263.407 59.277,264.541 58.149 C 266.268 56.430,266.960 56.028,268.802 55.669 C 270.011 55.434,271.360 55.161,271.800 55.063 C 273.218 54.748,278.538 55.243,280.727 55.894 M97.046 82.855 C 93.430 83.319,92.456 83.841,91.207 85.983 C 90.566 87.082,89.482 88.166,88.383 88.807 C 87.403 89.379,86.341 90.376,86.025 91.023 C 84.143 94.873,85.939 134.004,88.196 138.319 C 89.602 141.008,90.280 145.784,90.792 156.600 C 91.971 181.526,92.412 186.267,93.762 188.571 C 94.553 189.921,94.980 191.616,95.588 195.815 C 96.418 201.553,97.472 204.275,99.228 205.215 C 100.222 205.747,101.484 205.384,101.786 204.480 C 102.323 202.873,110.819 194.800,111.973 194.800 C 112.214 194.800,112.754 194.238,113.172 193.550 C 114.135 191.966,115.655 190.964,118.243 190.208 C 119.836 189.742,120.508 189.278,121.289 188.105 C 122.154 186.805,122.763 186.441,125.766 185.433 C 130.614 183.806,131.203 183.050,131.192 178.469 C 131.181 174.113,129.955 165.617,128.631 160.731 C 126.570 153.120,126.045 148.167,125.766 133.678 C 125.494 119.523,125.390 118.768,123.635 118.211 C 122.142 117.737,121.007 111.780,120.433 101.400 C 119.947 92.610,119.709 91.792,116.934 89.396 C 115.753 88.377,114.423 86.828,113.977 85.955 C 113.083 84.202,112.390 83.839,108.283 82.975 C 105.296 82.347,101.333 82.304,97.046 82.855 M109.400 83.956 C 111.119 84.525,112.083 85.127,112.799 86.076 C 113.348 86.804,114.807 88.480,116.041 89.800 C 119.064 93.033,119.564 94.651,120.012 102.654 C 120.452 110.501,121.670 118.761,122.982 122.800 C 124.112 126.279,124.596 130.132,125.196 140.400 C 125.746 149.823,126.483 155.424,128.482 165.400 C 129.399 169.978,130.174 175.145,130.294 177.479 L 130.503 181.559 129.347 182.715 C 128.623 183.438,126.977 184.275,124.945 184.952 C 122.543 185.751,121.371 186.393,120.439 187.417 C 119.746 188.178,118.059 189.316,116.690 189.945 C 113.869 191.240,109.157 195.182,103.782 200.743 L 100.164 204.487 98.910 203.431 C 97.328 202.100,96.589 199.810,95.998 194.400 C 95.746 192.090,95.018 187.320,94.380 183.800 C 92.713 174.594,92.082 169.118,91.798 161.400 C 91.479 152.727,90.294 141.702,88.796 133.460 C 84.556 110.141,84.638 91.896,88.996 89.203 C 89.774 88.721,90.929 87.575,91.562 86.655 C 94.042 83.051,102.711 81.739,109.400 83.956 M147.600 183.994 C 143.385 184.295,139.829 185.196,138.363 186.333 C 136.648 187.664,135.694 188.003,130.909 188.981 C 125.010 190.185,125.004 190.188,124.028 191.842 C 123.584 192.596,122.720 193.393,122.110 193.614 C 115.329 196.072,115.111 196.183,114.551 197.488 C 113.933 198.930,112.210 200.356,110.327 200.983 C 109.640 201.213,108.953 201.670,108.801 202.000 C 107.182 205.526,106.459 206.628,105.327 207.296 C 103.979 208.091,102.832 210.486,101.983 214.277 C 101.472 216.557,101.019 217.426,99.393 219.245 C 97.095 221.816,96.831 226.370,97.590 250.361 C 97.946 261.602,97.961 261.744,99.027 263.761 C 100.725 266.975,101.537 274.396,101.984 290.800 C 102.632 314.520,102.760 315.664,104.965 317.346 C 106.540 318.547,107.381 320.498,108.008 324.400 C 108.472 327.285,108.572 327.477,110.636 329.400 C 112.122 330.785,112.981 331.985,113.429 333.301 C 113.847 334.528,114.634 335.680,115.649 336.549 C 116.514 337.289,117.749 338.691,118.393 339.664 C 119.037 340.637,120.255 341.821,121.098 342.294 C 121.941 342.768,123.205 343.870,123.906 344.743 C 124.779 345.830,125.784 346.530,127.095 346.965 C 129.113 347.635,130.985 349.093,131.365 350.289 C 131.716 351.397,132.768 351.863,136.977 352.775 C 141.276 353.706,142.969 354.421,143.581 355.564 C 144.267 356.845,147.432 357.639,153.200 357.977 C 159.405 358.339,227.785 358.184,229.718 357.803 C 231.954 357.362,233.358 356.694,234.883 355.345 C 235.851 354.488,237.376 353.741,239.283 353.188 C 243.571 351.945,245.265 351.159,246.542 349.822 C 247.170 349.164,248.960 347.990,250.519 347.213 C 252.764 346.093,253.524 345.475,254.177 344.236 C 254.775 343.099,255.614 342.353,257.244 341.504 C 258.830 340.679,259.747 339.876,260.372 338.764 C 260.858 337.899,261.828 336.902,262.528 336.548 C 264.333 335.634,265.177 334.812,266.033 333.135 C 266.493 332.234,267.437 331.311,268.490 330.735 C 269.820 330.008,270.442 329.292,271.290 327.513 C 272.137 325.735,272.738 325.044,273.990 324.405 C 275.281 323.747,275.854 323.062,276.885 320.947 C 277.592 319.497,278.735 317.880,279.425 317.353 C 280.792 316.311,281.610 314.698,282.640 311.012 C 283.163 309.143,283.715 308.230,285.181 306.812 C 286.820 305.227,287.119 304.674,287.563 302.400 C 288.487 297.678,289.318 295.450,290.681 294.041 C 293.854 290.760,294.151 275.940,291.073 274.469 C 289.263 273.604,288.550 271.955,288.045 267.469 C 287.425 261.960,286.952 260.449,285.399 259.015 C 283.539 257.298,282.877 255.387,282.147 249.634 C 281.488 244.443,281.232 243.744,279.782 243.193 C 278.847 242.838,277.706 236.539,276.833 226.919 C 276.376 221.886,275.799 220.160,273.851 218.004 C 273.045 217.112,272.159 215.439,271.638 213.826 C 270.717 210.975,269.109 208.204,268.167 207.843 C 267.855 207.723,266.780 206.357,265.777 204.807 C 264.774 203.256,263.469 201.688,262.877 201.321 C 260.961 200.135,259.628 198.698,259.178 197.334 C 258.868 196.395,258.421 195.923,257.669 195.742 C 255.713 195.271,251.821 193.119,250.140 191.579 C 248.932 190.471,247.681 189.828,245.540 189.213 C 240.763 187.840,239.251 187.192,239.003 186.410 C 238.173 183.796,235.133 183.627,189.800 183.679 C 168.680 183.703,149.690 183.845,147.600 183.994 M313.416 184.178 C 311.965 184.489,310.868 184.967,310.616 185.398 C 309.584 187.158,308.147 188.515,306.346 189.427 C 304.848 190.186,304.206 190.821,303.573 192.169 C 302.706 194.012,301.777 195.038,300.316 195.767 C 299.832 196.008,298.780 197.374,297.978 198.803 C 297.176 200.231,295.684 202.326,294.661 203.458 C 293.639 204.590,292.361 206.480,291.822 207.658 C 291.158 209.109,290.290 210.196,289.130 211.027 C 287.866 211.934,287.235 212.770,286.717 214.227 C 286.206 215.667,285.394 216.755,283.713 218.253 L 281.409 220.305 281.517 225.253 C 281.576 227.974,281.648 231.190,281.676 232.400 C 281.704 233.610,281.660 235.699,281.579 237.042 C 281.415 239.762,282.221 241.600,283.576 241.600 C 284.450 241.600,286.042 245.933,286.809 250.400 C 287.680 255.471,288.022 256.391,289.283 257.043 C 290.763 257.808,291.374 259.294,291.979 263.600 C 293.204 272.306,293.637 272.959,298.462 273.368 C 302.603 273.718,303.244 273.168,304.526 268.170 C 305.529 264.258,306.219 262.958,307.672 262.248 C 308.808 261.692,309.758 259.821,310.625 256.428 C 311.439 253.246,311.811 252.638,313.407 251.877 C 314.111 251.541,314.863 250.769,315.102 250.137 C 315.339 249.512,316.029 247.650,316.637 246.000 C 317.245 244.350,318.025 242.776,318.371 242.501 C 320.079 241.146,320.700 240.310,321.173 238.727 C 321.947 236.138,323.103 234.070,324.633 232.541 C 325.636 231.537,326.245 230.347,326.902 228.105 C 327.661 225.513,328.112 224.728,329.820 223.020 C 331.553 221.286,331.971 220.546,332.769 217.800 C 333.757 214.400,334.355 213.451,336.066 212.566 C 338.087 211.521,339.093 201.270,337.658 196.337 C 337.024 194.156,333.487 189.690,331.347 188.367 C 330.555 187.877,329.126 186.801,328.172 185.976 C 325.474 183.640,319.385 182.899,313.416 184.178 M233.954 185.137 C 234.919 185.407,236.449 186.160,237.354 186.810 C 238.260 187.459,240.611 188.458,242.581 189.029 C 246.647 190.207,248.661 191.140,249.760 192.355 C 250.178 192.818,252.158 194.081,254.160 195.162 C 256.638 196.501,258.032 197.526,258.527 198.372 C 258.927 199.055,260.208 200.335,261.373 201.215 C 262.539 202.095,264.330 204.027,265.353 205.508 C 266.376 206.988,267.900 209.063,268.739 210.117 C 269.578 211.171,270.682 213.219,271.194 214.667 C 271.705 216.115,272.696 218.050,273.396 218.967 C 275.208 221.341,275.993 223.962,276.403 229.000 C 276.745 233.197,277.768 241.222,278.198 243.069 C 278.309 243.547,278.826 244.447,279.346 245.069 C 280.333 246.250,281.183 248.847,281.980 253.126 C 282.523 256.043,283.723 259.047,284.808 260.205 C 286.012 261.492,286.783 263.759,287.389 267.791 C 287.999 271.860,288.667 273.538,290.417 275.400 C 293.290 278.457,293.126 285.476,290.017 292.600 C 288.960 295.020,287.779 298.350,287.392 300.000 C 286.573 303.491,286.042 304.658,284.702 305.910 C 283.731 306.816,282.645 308.978,281.441 312.400 C 281.093 313.390,279.992 315.190,278.996 316.400 C 277.999 317.610,276.814 319.359,276.362 320.288 C 275.910 321.216,274.645 322.725,273.549 323.642 C 272.454 324.560,271.119 326.175,270.584 327.233 C 269.968 328.448,268.945 329.612,267.805 330.397 C 266.812 331.080,266.000 331.796,266.000 331.989 C 266.000 332.636,263.879 334.866,262.337 335.840 C 261.496 336.371,260.348 337.499,259.787 338.348 C 259.217 339.209,257.911 340.357,256.833 340.944 C 255.770 341.522,254.231 342.812,253.414 343.809 C 252.586 344.820,251.013 346.083,249.864 346.662 C 248.729 347.233,246.767 348.473,245.505 349.416 C 243.924 350.599,242.010 351.519,239.351 352.375 C 237.229 353.058,234.476 354.245,233.234 355.012 C 229.279 357.453,231.095 357.340,193.077 357.502 C 151.358 357.679,150.250 357.623,145.015 355.059 C 142.980 354.062,139.813 352.863,137.977 352.394 C 133.883 351.349,133.309 351.059,131.820 349.284 C 131.152 348.487,129.576 347.395,128.184 346.763 C 126.832 346.151,125.176 345.023,124.504 344.257 C 123.832 343.492,122.558 342.387,121.673 341.801 C 120.788 341.215,119.572 339.985,118.970 339.068 C 118.369 338.151,117.191 336.806,116.352 336.081 C 115.487 335.332,114.378 333.761,113.789 332.447 C 113.207 331.151,111.988 329.416,111.016 328.501 C 109.427 327.006,109.210 326.556,108.428 323.134 C 107.959 321.081,107.134 318.680,106.594 317.800 C 103.516 312.780,103.323 311.568,102.806 294.000 C 102.337 278.082,101.825 271.809,99.638 255.200 C 97.150 236.304,97.398 224.718,100.399 219.600 C 101.237 218.170,102.228 215.922,102.600 214.605 C 103.489 211.464,104.164 210.207,106.244 207.825 C 107.193 206.738,108.374 205.085,108.870 204.150 C 109.433 203.088,110.377 202.111,111.386 201.546 C 112.274 201.048,113.856 199.764,114.901 198.693 C 116.236 197.325,117.904 196.229,120.501 195.015 C 122.536 194.064,124.560 192.888,124.999 192.402 C 126.207 191.066,127.695 190.431,131.636 189.571 C 135.125 188.810,136.250 188.427,141.532 186.206 C 143.083 185.555,145.331 185.017,147.332 184.818 C 152.876 184.269,231.896 184.560,233.954 185.137 M325.076 185.300 C 329.140 187.522,332.368 190.033,334.115 192.331 C 337.346 196.579,337.400 196.751,337.400 202.800 C 337.400 209.348,337.251 209.938,335.028 212.193 C 333.775 213.464,333.029 214.711,332.412 216.564 C 331.574 219.081,331.226 219.676,328.523 223.194 C 327.821 224.108,326.870 225.988,326.409 227.372 C 325.949 228.757,324.939 230.628,324.166 231.531 C 323.393 232.434,322.053 234.705,321.188 236.577 C 320.324 238.448,319.008 240.660,318.265 241.490 C 317.523 242.321,316.526 244.050,316.051 245.333 C 314.774 248.779,314.045 250.041,312.409 251.634 C 311.277 252.735,310.692 253.849,309.886 256.435 C 309.057 259.092,308.503 260.127,307.261 261.340 C 305.630 262.933,304.940 264.258,303.795 267.992 C 302.553 272.046,301.947 272.547,298.656 272.241 C 294.493 271.854,293.963 271.053,292.574 263.053 C 291.846 258.854,291.290 257.370,289.873 255.841 C 288.863 254.751,287.928 252.407,287.385 249.600 C 286.801 246.580,284.648 239.327,283.943 238.006 C 283.525 237.221,283.200 235.798,283.200 234.749 C 283.200 233.724,282.909 231.477,282.553 229.756 C 281.412 224.242,281.958 221.138,284.547 218.410 C 285.701 217.195,287.053 215.352,287.551 214.315 C 288.080 213.213,289.008 212.089,289.784 211.610 C 290.607 211.101,291.491 209.994,292.111 208.695 C 292.661 207.543,294.010 205.578,295.109 204.330 C 296.208 203.081,297.661 201.092,298.337 199.910 C 299.013 198.728,300.280 197.121,301.151 196.339 C 302.023 195.556,303.310 193.984,304.011 192.844 C 304.873 191.443,305.822 190.502,306.943 189.938 C 307.854 189.479,309.368 188.286,310.308 187.288 C 313.096 184.324,321.277 183.222,325.076 185.300 M0.000 379.976 C 0.000 380.623,0.184 381.267,0.410 381.406 C 0.635 381.546,1.449 382.909,2.218 384.435 C 3.050 386.088,4.827 388.526,6.608 390.461 C 8.254 392.248,9.600 393.866,9.600 394.057 C 9.600 394.248,11.310 395.501,13.400 396.841 C 15.490 398.181,17.200 399.441,17.200 399.639 C 17.200 399.838,17.650 400.000,18.200 400.000 C 20.229 400.000,18.605 397.958,14.861 395.800 C 11.896 394.091,3.898 385.425,2.965 382.909 C 1.623 379.291,0.000 377.686,0.000 379.976 M398.539 382.800 C 397.850 384.230,396.445 386.283,395.416 387.363 C 394.387 388.443,392.638 390.369,391.529 391.645 C 390.419 392.920,388.317 394.725,386.856 395.655 C 384.039 397.449,382.000 399.137,382.000 399.675 C 382.000 400.169,383.914 400.063,384.230 399.552 C 384.382 399.306,385.860 398.237,387.515 397.177 C 393.376 393.422,400.195 384.919,399.921 381.708 L 399.792 380.200 398.539 382.800 M0.000 396.582 C 0.000 396.682,0.419 397.183,0.932 397.695 C 1.444 398.208,2.061 398.980,2.302 399.410 C 2.543 399.841,2.868 400.065,3.024 399.909 C 3.345 399.588,2.186 397.652,1.230 396.913 C 0.586 396.414,-0.000 396.257,0.000 396.582 M399.032 398.095 C 398.643 398.689,398.395 399.385,398.481 399.642 C 398.566 399.899,398.955 399.624,399.343 399.030 C 399.732 398.437,399.980 397.741,399.895 397.484 C 399.809 397.227,399.421 397.502,399.032 398.095 " stroke="none" fill="#833e47" fill-rule="evenodd"></path><path id="path4" d="M0.000 1.000 C 0.000 2.178,0.114 2.206,1.414 1.354 C 2.735 0.489,2.657 0.000,1.200 0.000 C 0.187 0.000,0.000 0.156,0.000 1.000 M205.893 22.573 C 205.065 22.868,203.608 23.805,202.657 24.655 C 201.706 25.505,200.294 26.682,199.521 27.271 C 198.748 27.860,197.713 29.210,197.221 30.271 C 196.729 31.332,195.691 32.861,194.913 33.669 C 192.205 36.482,192.309 34.782,191.986 81.400 C 191.826 104.500,191.471 134.110,191.197 147.200 C 190.638 173.968,190.686 174.766,193.006 177.086 L 194.320 178.400 205.700 178.400 C 211.958 178.400,218.449 178.516,220.122 178.657 L 223.166 178.914 224.510 177.557 C 226.761 175.285,227.106 172.462,227.391 154.000 C 227.525 145.310,227.798 136.220,227.998 133.800 C 228.199 131.380,228.472 121.390,228.605 111.600 C 228.738 101.810,229.093 89.930,229.393 85.200 C 229.697 80.408,229.961 68.743,229.989 58.856 L 230.038 41.113 229.078 39.256 C 228.550 38.235,227.525 35.729,226.800 33.688 C 225.744 30.713,225.203 29.759,224.080 28.888 C 223.310 28.289,221.568 26.671,220.210 25.291 C 217.063 22.092,210.652 20.875,205.893 22.573 M214.371 24.628 C 215.961 25.100,216.925 25.733,218.250 27.170 C 219.219 28.223,220.723 29.404,221.591 29.796 C 223.052 30.455,223.243 30.736,224.140 33.554 C 226.508 40.997,226.496 40.779,226.035 66.400 C 225.804 79.270,225.428 107.710,225.200 129.600 C 224.791 168.799,224.593 173.836,223.395 175.474 C 222.788 176.304,195.739 176.307,194.942 175.477 C 193.307 173.773,193.113 170.923,193.388 152.607 C 193.533 142.923,193.805 113.898,193.993 88.108 L 194.334 41.216 195.305 39.108 C 195.838 37.948,196.754 36.299,197.339 35.442 C 197.924 34.586,198.613 33.146,198.870 32.242 C 199.460 30.171,200.214 29.283,201.992 28.565 C 202.766 28.253,204.066 27.242,204.879 26.319 C 206.106 24.928,206.686 24.596,208.279 24.374 C 211.413 23.938,212.150 23.969,214.371 24.628 M152.200 38.752 C 149.304 39.592,148.373 40.151,147.367 41.656 C 146.945 42.286,145.833 43.354,144.896 44.029 C 142.763 45.565,142.475 46.138,140.427 52.942 L 138.758 58.484 138.994 65.742 C 139.626 85.262,140.491 127.280,140.732 150.218 C 141.072 182.575,139.467 179.322,154.800 178.738 C 160.190 178.532,166.343 178.476,168.474 178.612 C 178.079 179.227,178.336 178.465,177.635 151.476 C 177.377 141.534,176.994 121.340,176.784 106.600 C 175.951 48.030,176.262 51.357,171.000 44.783 C 165.962 38.488,159.863 36.532,152.200 38.752 M162.600 41.000 C 164.384 41.757,168.757 45.945,169.689 47.789 C 170.137 48.675,171.176 50.134,171.997 51.032 L 173.490 52.663 173.743 58.232 C 174.892 83.603,174.936 172.352,173.800 174.543 L 173.000 176.086 162.800 176.225 C 157.190 176.301,150.903 176.540,148.828 176.757 C 144.486 177.211,143.720 176.974,143.444 175.095 C 143.054 172.444,142.400 56.977,142.761 54.600 C 143.554 49.378,144.414 47.209,146.012 46.394 C 147.393 45.689,149.295 43.795,150.213 42.211 C 151.210 40.489,159.489 39.679,162.600 41.000 M271.800 55.063 C 271.360 55.161,270.011 55.434,268.802 55.669 C 266.960 56.028,266.268 56.430,264.541 58.149 C 263.407 59.277,261.914 60.625,261.224 61.143 C 260.510 61.680,259.481 63.146,258.839 64.543 C 258.217 65.895,257.138 67.535,256.440 68.189 C 254.991 69.546,254.309 71.577,253.412 77.200 C 252.629 82.110,252.400 82.858,250.648 86.206 C 249.267 88.845,248.791 90.648,247.653 97.538 C 247.417 98.971,246.426 101.805,245.376 104.051 C 243.952 107.097,243.349 109.028,242.797 112.313 C 241.785 118.323,240.960 121.277,239.369 124.585 C 238.004 127.422,236.810 132.307,236.790 135.135 C 236.784 135.941,236.331 137.860,235.782 139.400 C 234.816 142.113,234.778 142.622,234.551 155.800 C 234.353 167.301,234.200 169.859,233.559 172.372 C 232.541 176.366,233.434 177.594,239.192 180.120 C 240.187 180.556,241.573 181.412,242.274 182.022 C 243.216 182.841,244.574 183.361,247.474 184.015 C 251.674 184.960,253.542 185.917,254.562 187.644 C 254.913 188.238,256.145 189.264,257.300 189.924 C 258.455 190.584,260.064 191.761,260.876 192.539 C 261.860 193.481,263.238 194.227,265.008 194.773 C 269.295 196.098,269.901 195.379,270.662 188.064 C 271.403 180.938,272.349 175.768,273.448 172.841 C 275.011 168.679,275.506 166.214,276.394 158.200 C 277.290 150.113,277.933 146.726,279.238 143.220 C 280.540 139.719,281.148 136.539,281.784 129.903 C 282.389 123.585,283.719 117.069,285.162 113.352 C 286.098 110.941,287.058 105.574,287.407 100.800 C 288.033 92.236,288.791 88.473,290.794 84.000 C 293.167 78.701,293.138 69.904,290.736 66.308 C 289.961 65.148,288.740 63.255,288.022 62.099 C 284.758 56.849,277.644 53.764,271.800 55.063 M279.333 57.575 C 280.235 57.917,281.571 59.040,285.074 62.398 C 285.863 63.153,286.585 64.430,286.967 65.746 C 287.307 66.917,287.926 68.307,288.341 68.837 C 289.289 70.045,290.221 75.237,289.675 76.269 C 288.213 79.031,286.764 85.769,286.000 93.353 C 285.060 102.699,284.715 104.614,283.644 106.453 C 282.435 108.526,281.676 112.063,280.811 119.651 C 279.619 130.114,279.227 132.272,277.935 135.499 C 276.472 139.153,275.823 142.472,275.020 150.418 C 274.115 159.369,273.653 161.883,272.377 164.823 C 270.809 168.437,270.574 169.625,269.220 180.824 C 267.814 192.457,267.864 192.265,266.547 191.230 C 266.013 190.810,264.833 190.341,263.924 190.187 C 261.943 189.852,258.472 187.744,256.000 185.374 C 254.572 184.004,253.601 183.482,251.306 182.851 C 248.066 181.959,247.986 181.921,245.912 180.309 C 245.093 179.672,243.170 178.741,241.638 178.239 C 237.661 176.936,236.649 176.200,237.001 174.865 C 237.156 174.279,237.423 166.240,237.596 157.000 C 237.950 138.065,238.500 133.102,240.595 129.935 C 242.116 127.637,242.591 126.066,243.798 119.351 C 244.659 114.556,245.206 112.662,246.617 109.600 C 248.042 106.505,248.586 104.607,249.549 99.369 C 250.527 94.043,250.945 92.600,251.981 90.969 C 253.543 88.511,254.165 86.362,255.198 79.860 C 256.077 74.328,256.049 74.410,258.179 71.176 C 258.965 69.983,259.895 68.195,260.247 67.203 C 260.599 66.211,261.070 64.903,261.293 64.297 C 261.559 63.574,262.274 62.939,263.363 62.458 C 264.886 61.784,266.905 59.884,267.274 58.777 C 267.665 57.606,276.974 56.678,279.333 57.575 M97.620 83.385 C 93.876 84.096,92.996 84.570,91.562 86.655 C 90.929 87.575,89.774 88.721,88.996 89.203 C 84.638 91.896,84.556 110.141,88.796 133.460 C 90.294 141.702,91.479 152.727,91.798 161.400 C 92.082 169.118,92.713 174.594,94.380 183.800 C 95.018 187.320,95.746 192.090,95.998 194.400 C 96.589 199.810,97.328 202.100,98.910 203.431 L 100.164 204.487 103.782 200.743 C 109.157 195.182,113.869 191.240,116.690 189.945 C 118.059 189.316,119.746 188.178,120.439 187.417 C 121.371 186.393,122.543 185.751,124.945 184.952 C 126.977 184.275,128.623 183.438,129.347 182.715 L 130.503 181.559 130.294 177.479 C 130.174 175.145,129.399 169.978,128.482 165.400 C 126.483 155.424,125.746 149.823,125.196 140.400 C 124.596 130.132,124.112 126.279,122.982 122.800 C 121.670 118.761,120.452 110.501,120.012 102.654 C 119.564 94.651,119.064 93.033,116.041 89.800 C 114.807 88.480,113.348 86.804,112.799 86.076 C 110.843 83.482,103.742 82.223,97.620 83.385 M107.814 85.951 C 109.534 86.732,113.563 90.881,114.853 93.200 C 115.282 93.970,116.047 95.170,116.553 95.866 C 117.336 96.942,117.512 97.810,117.730 101.666 C 118.591 116.921,119.775 126.586,121.790 134.800 C 122.472 137.577,123.023 141.575,123.417 146.600 C 124.662 162.471,125.598 171.064,126.390 173.895 C 128.194 180.344,127.696 181.569,122.600 183.211 C 120.594 183.858,119.397 184.533,118.378 185.591 C 117.597 186.404,115.566 187.738,113.866 188.556 C 111.711 189.592,110.142 190.711,108.687 192.249 C 107.539 193.463,105.951 194.821,105.158 195.269 C 104.365 195.716,103.015 197.052,102.158 198.239 C 99.343 202.135,98.988 201.259,97.994 187.957 C 97.190 177.195,96.907 175.134,95.559 170.200 C 94.598 166.681,93.825 159.202,92.788 143.400 C 91.867 129.362,91.462 125.503,90.583 122.384 C 86.758 108.823,86.788 93.733,90.643 91.319 C 91.626 90.704,92.982 89.345,93.657 88.300 C 94.331 87.255,95.000 86.392,95.142 86.382 C 95.284 86.373,96.300 86.115,97.400 85.809 C 100.392 84.978,105.836 85.052,107.814 85.951 M147.332 184.818 C 145.331 185.017,143.083 185.555,141.532 186.206 C 136.250 188.427,135.125 188.810,131.636 189.571 C 127.695 190.431,126.207 191.066,124.999 192.402 C 124.560 192.888,122.536 194.064,120.501 195.015 C 117.904 196.229,116.236 197.325,114.901 198.693 C 113.856 199.764,112.274 201.048,111.386 201.546 C 110.377 202.111,109.433 203.088,108.870 204.150 C 108.374 205.085,107.193 206.738,106.244 207.825 C 104.164 210.207,103.489 211.464,102.600 214.605 C 102.228 215.922,101.237 218.170,100.399 219.600 C 97.398 224.718,97.150 236.304,99.638 255.200 C 101.825 271.809,102.337 278.082,102.806 294.000 C 103.323 311.568,103.516 312.780,106.594 317.800 C 107.134 318.680,107.959 321.081,108.428 323.134 C 109.210 326.556,109.427 327.006,111.016 328.501 C 111.988 329.416,113.207 331.151,113.789 332.447 C 114.378 333.761,115.487 335.332,116.352 336.081 C 117.191 336.806,118.369 338.151,118.970 339.068 C 119.572 339.985,120.788 341.215,121.673 341.801 C 122.558 342.387,123.832 343.492,124.504 344.257 C 125.176 345.023,126.832 346.151,128.184 346.763 C 129.576 347.395,131.152 348.487,131.820 349.284 C 133.309 351.059,133.883 351.349,137.977 352.394 C 139.813 352.863,142.980 354.062,145.015 355.059 C 150.250 357.623,151.358 357.679,193.077 357.502 C 231.095 357.340,229.279 357.453,233.234 355.012 C 234.476 354.245,237.229 353.058,239.351 352.375 C 242.010 351.519,243.924 350.599,245.505 349.416 C 246.767 348.473,248.729 347.233,249.864 346.662 C 251.013 346.083,252.586 344.820,253.414 343.809 C 254.231 342.812,255.770 341.522,256.833 340.944 C 257.911 340.357,259.217 339.209,259.787 338.348 C 260.348 337.499,261.496 336.371,262.337 335.840 C 263.879 334.866,266.000 332.636,266.000 331.989 C 266.000 331.796,266.812 331.080,267.805 330.397 C 268.945 329.612,269.968 328.448,270.584 327.233 C 271.119 326.175,272.454 324.560,273.549 323.642 C 274.645 322.725,275.910 321.216,276.362 320.288 C 276.814 319.359,277.999 317.610,278.996 316.400 C 279.992 315.190,281.093 313.390,281.441 312.400 C 282.645 308.978,283.731 306.816,284.702 305.910 C 286.042 304.658,286.573 303.491,287.392 300.000 C 287.779 298.350,288.960 295.020,290.017 292.600 C 293.126 285.476,293.290 278.457,290.417 275.400 C 288.667 273.538,287.999 271.860,287.389 267.791 C 286.783 263.759,286.012 261.492,284.808 260.205 C 283.723 259.047,282.523 256.043,281.980 253.126 C 281.183 248.847,280.333 246.250,279.346 245.069 C 278.826 244.447,278.309 243.547,278.198 243.069 C 277.768 241.222,276.745 233.197,276.403 229.000 C 275.993 223.962,275.208 221.341,273.396 218.967 C 272.696 218.050,271.705 216.115,271.194 214.667 C 270.682 213.219,269.578 211.171,268.739 210.117 C 267.900 209.063,266.376 206.988,265.353 205.508 C 264.330 204.027,262.539 202.095,261.373 201.215 C 260.208 200.335,258.927 199.055,258.527 198.372 C 258.032 197.526,256.638 196.501,254.160 195.162 C 252.158 194.081,250.178 192.818,249.760 192.355 C 248.661 191.140,246.647 190.207,242.581 189.029 C 240.611 188.458,238.260 187.459,237.354 186.810 C 236.449 186.160,234.919 185.407,233.954 185.137 C 231.896 184.560,152.876 184.269,147.332 184.818 M313.908 184.963 C 312.550 185.329,311.533 185.985,310.308 187.288 C 309.368 188.286,307.854 189.479,306.943 189.938 C 305.822 190.502,304.873 191.443,304.011 192.844 C 303.310 193.984,302.023 195.556,301.151 196.339 C 300.280 197.121,299.013 198.728,298.337 199.910 C 297.661 201.092,296.208 203.081,295.109 204.330 C 294.010 205.578,292.661 207.543,292.111 208.695 C 291.491 209.994,290.607 211.101,289.784 211.610 C 289.008 212.089,288.080 213.213,287.551 214.315 C 287.053 215.352,285.701 217.195,284.547 218.410 C 281.958 221.138,281.412 224.242,282.553 229.756 C 282.909 231.477,283.200 233.724,283.200 234.749 C 283.200 235.798,283.525 237.221,283.943 238.006 C 284.648 239.327,286.801 246.580,287.385 249.600 C 287.928 252.407,288.863 254.751,289.873 255.841 C 291.290 257.370,291.846 258.854,292.574 263.053 C 293.963 271.053,294.493 271.854,298.656 272.241 C 301.947 272.547,302.553 272.046,303.795 267.992 C 304.940 264.258,305.630 262.933,307.261 261.340 C 308.503 260.127,309.057 259.092,309.886 256.435 C 310.692 253.849,311.277 252.735,312.409 251.634 C 314.045 250.041,314.774 248.779,316.051 245.333 C 316.526 244.050,317.523 242.321,318.265 241.490 C 319.008 240.660,320.324 238.448,321.188 236.577 C 322.053 234.705,323.393 232.434,324.166 231.531 C 324.939 230.628,325.949 228.757,326.409 227.372 C 326.870 225.988,327.821 224.108,328.523 223.194 C 331.226 219.676,331.574 219.081,332.412 216.564 C 333.029 214.711,333.775 213.464,335.028 212.193 C 337.251 209.938,337.400 209.348,337.400 202.800 C 337.400 196.751,337.346 196.579,334.115 192.331 C 332.368 190.033,329.140 187.522,325.076 185.300 C 323.149 184.246,317.235 184.068,313.908 184.963 M232.600 188.446 C 235.240 189.462,238.840 190.599,240.600 190.973 C 245.409 191.995,246.128 192.291,247.000 193.610 C 247.507 194.377,248.853 195.323,250.671 196.190 C 254.568 198.047,261.273 204.221,264.016 208.477 C 265.106 210.169,266.376 211.818,266.836 212.140 C 268.173 213.077,268.845 214.288,269.439 216.835 C 270.008 219.273,271.661 222.943,272.395 223.397 C 273.813 224.273,274.439 227.818,275.161 239.057 C 275.536 244.892,276.242 247.491,277.970 249.395 C 279.187 250.737,279.576 251.792,280.434 256.084 C 281.297 260.402,282.344 263.245,283.570 264.595 C 284.759 265.906,285.107 266.845,285.955 271.026 C 286.753 274.961,288.231 279.272,289.388 281.037 C 289.936 281.874,289.874 282.298,288.650 286.075 C 287.915 288.344,286.918 292.090,286.435 294.400 C 285.472 299.000,284.515 302.000,284.009 302.000 C 283.343 302.000,281.245 305.893,280.446 308.609 C 279.812 310.768,279.249 311.780,278.015 312.986 C 277.126 313.854,275.693 316.019,274.805 317.837 C 273.586 320.332,272.859 321.322,271.778 321.960 C 270.786 322.545,270.048 323.471,269.338 325.024 C 268.556 326.731,267.889 327.517,266.472 328.399 C 265.226 329.174,264.360 330.108,263.811 331.265 C 263.206 332.542,262.505 333.243,261.077 333.998 C 259.772 334.687,258.775 335.625,257.969 336.920 C 257.286 338.017,256.319 338.994,255.691 339.222 C 253.524 340.006,252.662 340.626,251.687 342.100 C 250.906 343.279,249.872 343.986,246.847 345.410 C 244.557 346.488,242.590 347.714,241.987 348.439 C 241.132 349.467,240.264 349.841,236.387 350.850 C 233.864 351.507,230.720 352.554,229.400 353.178 C 225.728 354.913,226.689 354.867,191.000 355.007 C 155.279 355.147,154.209 355.100,149.468 353.202 C 147.836 352.548,145.173 351.717,143.550 351.355 C 137.329 349.967,136.517 349.645,134.155 347.629 C 132.717 346.402,131.043 345.408,129.702 344.987 C 127.972 344.442,127.359 344.002,126.551 342.722 C 125.999 341.848,125.002 340.833,124.334 340.466 C 122.193 339.290,121.196 338.360,120.397 336.794 C 119.968 335.952,118.848 334.749,117.908 334.120 C 116.503 333.179,116.072 332.574,115.478 330.707 C 115.015 329.251,114.122 327.732,112.988 326.471 C 111.018 324.280,110.603 323.390,109.789 319.609 C 109.247 317.092,107.952 312.862,106.626 309.280 C 105.902 307.323,104.981 296.414,104.609 285.400 C 104.189 272.947,102.836 249.607,102.114 242.361 C 101.132 232.498,101.245 227.968,102.599 223.000 C 103.199 220.800,103.851 218.280,104.048 217.400 C 104.245 216.520,104.496 215.404,104.606 214.920 C 104.715 214.437,105.661 213.062,106.708 211.866 C 107.754 210.671,109.298 208.517,110.137 207.081 C 111.283 205.123,112.229 204.095,113.927 202.968 C 115.171 202.142,117.092 200.621,118.195 199.588 C 120.487 197.441,121.292 196.967,124.022 196.157 C 125.099 195.837,126.789 194.875,127.777 194.019 C 129.450 192.572,132.768 191.210,134.662 191.194 C 135.891 191.183,142.526 189.701,144.216 189.059 C 150.577 186.644,153.667 186.485,193.000 186.546 L 227.800 186.600 232.600 188.446 M321.027 186.832 C 322.717 187.139,323.746 187.595,324.601 188.415 C 325.262 189.048,326.607 189.850,327.590 190.197 C 329.889 191.008,331.064 192.135,332.087 194.514 C 332.540 195.568,333.352 196.776,333.891 197.200 C 335.128 198.173,335.790 202.488,335.189 205.657 C 334.975 206.786,334.800 207.755,334.800 207.811 C 334.800 207.867,334.075 208.787,333.189 209.856 C 332.303 210.925,331.329 212.632,331.026 213.649 C 330.273 216.170,329.265 218.034,328.203 218.869 C 327.123 219.718,325.357 223.161,324.768 225.563 C 324.478 226.743,323.871 227.734,322.929 228.563 C 321.397 229.910,320.097 232.220,319.021 235.506 C 318.551 236.942,317.908 237.935,316.999 238.628 C 315.978 239.406,315.317 240.544,314.183 243.471 C 313.070 246.343,312.268 247.735,310.965 249.057 C 309.637 250.404,309.038 251.458,308.418 253.538 C 307.846 255.461,307.025 256.986,305.618 258.738 C 304.160 260.555,303.402 261.989,302.779 264.109 C 301.601 268.117,301.457 268.226,298.434 267.378 C 295.492 266.552,295.489 266.548,294.416 260.987 C 293.544 256.468,292.371 253.374,290.670 251.106 C 289.502 249.548,288.339 244.299,287.411 236.400 C 286.887 231.937,286.561 230.568,285.532 228.507 L 284.288 226.014 285.199 223.515 C 285.700 222.141,286.622 220.379,287.248 219.600 C 287.874 218.822,288.662 217.378,288.999 216.392 C 289.461 215.043,289.992 214.383,291.149 213.721 C 292.298 213.064,293.017 212.178,293.993 210.214 C 294.819 208.552,295.736 207.331,296.486 206.893 C 297.161 206.499,298.373 204.992,299.295 203.400 C 300.188 201.860,301.855 199.606,303.000 198.392 C 304.144 197.178,305.451 195.349,305.902 194.328 C 306.583 192.790,307.055 192.325,308.657 191.616 C 309.720 191.146,310.952 190.428,311.395 190.021 C 312.501 189.004,317.258 186.410,318.027 186.405 C 318.371 186.402,319.721 186.594,321.027 186.832 M0.000 398.600 C 0.000 399.889,0.095 400.000,1.200 400.000 C 2.624 400.000,2.652 399.877,1.573 398.362 C 0.477 396.823,0.000 396.896,0.000 398.600 M399.200 399.200 C 398.858 399.839,398.896 400.000,399.386 400.000 C 399.733 400.000,400.000 399.653,400.000 399.200 C 400.000 398.760,399.916 398.400,399.814 398.400 C 399.712 398.400,399.435 398.760,399.200 399.200 " stroke="none" fill="#8b8c8c" fill-rule="evenodd"></path></g></svg>