<svg id="svg" version="1.1" xmlns="http://www.w3.org/2000/svg" xmlns:xlink="http://www.w3.org/1999/xlink" width="400" height="400" viewBox="0, 0, 400,400"><g id="svgg"><path id="path0" d="M206.400 59.863 C 203.452 60.065,200.210 61.700,198.934 63.629 C 196.714 66.982,196.798 64.782,196.830 119.164 C 196.860 170.778,196.903 172.603,198.103 173.358 C 198.854 173.830,199.123 173.710,202.262 171.507 C 206.136 168.787,215.668 169.032,223.168 172.046 C 225.304 172.904,227.855 173.490,231.800 174.030 C 234.880 174.451,239.065 175.085,241.101 175.440 C 247.873 176.620,247.203 182.467,247.182 122.313 C 247.161 60.174,247.423 63.204,241.879 60.975 L 239.000 59.817 223.800 59.765 C 215.440 59.736,207.610 59.780,206.400 59.863 M136.814 77.938 C 133.528 78.666,133.677 78.511,131.973 82.968 C 130.011 88.099,130.017 87.898,130.008 149.851 C 129.999 212.157,129.974 211.311,131.980 215.200 C 132.377 215.970,132.911 217.253,133.166 218.052 C 134.164 221.174,132.867 221.000,155.200 221.000 C 177.629 221.000,176.200 221.202,177.178 217.894 C 177.453 216.962,178.136 215.593,178.696 214.852 C 181.343 211.346,181.201 215.090,181.194 149.264 C 181.187 85.219,181.237 86.798,179.116 83.961 C 178.557 83.212,177.892 81.951,177.638 81.159 C 176.465 77.492,174.681 77.187,154.723 77.238 C 142.413 77.270,139.277 77.392,136.814 77.938 M266.597 84.328 C 263.458 85.494,262.930 85.979,261.521 88.983 L 260.200 91.800 260.082 135.295 L 259.964 178.790 261.157 179.516 C 261.892 179.963,264.012 180.442,266.675 180.764 C 273.132 181.544,276.295 182.262,278.207 183.383 C 280.632 184.804,283.694 185.511,289.538 185.998 C 295.878 186.527,301.312 187.430,302.810 188.205 C 303.443 188.532,304.555 188.800,305.283 188.800 C 306.010 188.800,307.202 188.971,307.931 189.180 C 310.523 189.924,310.411 192.078,310.462 140.493 C 310.513 89.695,310.608 91.950,308.330 89.746 C 307.451 88.896,306.385 87.528,305.961 86.706 C 304.417 83.715,305.079 83.814,285.819 83.692 C 269.854 83.591,268.454 83.637,266.597 84.328 M72.835 89.218 C 67.223 90.620,67.601 86.721,67.600 143.313 L 67.600 189.626 68.815 192.776 C 70.236 196.460,70.341 196.568,73.120 197.153 C 76.056 197.772,110.930 197.773,112.086 197.154 C 113.497 196.399,118.000 191.643,118.007 190.901 C 118.010 190.515,118.020 168.960,118.029 143.000 C 118.046 87.477,118.471 92.570,113.616 90.081 L 110.428 88.446 93.114 88.462 C 77.629 88.476,75.487 88.556,72.835 89.218 M206.800 182.946 C 203.189 183.524,203.008 183.625,201.977 185.645 C 201.531 186.520,200.526 187.944,199.744 188.809 C 198.179 190.541,198.457 189.261,196.227 205.003 C 195.260 211.828,195.011 212.791,192.977 217.600 C 189.721 225.295,192.385 231.709,200.192 234.971 C 201.053 235.331,202.307 236.042,202.978 236.552 C 204.022 237.344,205.424 237.637,212.600 238.558 C 223.249 239.926,226.389 240.566,229.503 242.005 C 232.315 243.304,234.241 243.705,242.000 244.610 C 251.253 245.689,256.444 246.839,259.075 248.391 C 260.617 249.301,263.269 249.773,270.400 250.405 C 276.233 250.922,281.625 252.014,284.304 253.219 C 287.437 254.629,289.588 255.164,294.000 255.632 C 303.446 256.634,311.375 258.312,313.800 259.823 C 316.250 261.349,321.213 261.269,323.918 259.660 C 325.082 258.967,326.193 258.400,326.387 258.400 C 326.938 258.400,330.400 254.184,330.400 253.513 C 330.400 253.182,330.840 252.263,331.378 251.470 C 333.044 249.015,333.097 248.802,333.984 241.000 C 334.995 232.104,336.043 226.959,337.643 223.032 C 339.320 218.916,339.349 213.906,337.700 213.048 C 336.197 212.266,334.955 210.868,334.237 209.151 C 333.444 207.252,330.921 206.410,323.000 205.400 C 319.575 204.963,316.296 204.036,313.800 202.797 C 311.784 201.797,310.490 201.511,305.718 201.010 C 294.920 199.875,289.864 198.910,286.800 197.398 C 284.350 196.189,281.979 195.692,275.395 195.010 C 267.576 194.200,262.340 192.989,257.547 190.883 C 255.617 190.035,252.041 189.423,246.600 189.010 C 240.325 188.533,233.967 187.223,230.200 185.630 C 224.992 183.429,212.637 182.011,206.800 182.946 M113.200 208.843 L 110.200 210.064 93.000 209.950 L 75.800 209.837 74.731 211.801 L 73.662 213.765 73.853 221.182 C 74.039 228.408,74.763 240.092,75.627 249.800 C 75.925 253.157,76.391 255.562,77.175 257.800 C 78.397 261.286,79.211 265.837,80.215 274.800 C 81.068 282.411,81.549 285.180,82.233 286.398 C 84.058 289.652,85.178 293.842,86.606 302.770 C 87.218 306.598,88.020 308.800,88.802 308.800 C 89.327 308.800,90.743 312.199,91.413 315.070 C 92.704 320.602,92.937 321.262,94.104 322.716 C 96.140 325.252,97.061 326.918,97.764 329.334 C 98.290 331.146,98.881 332.091,100.421 333.582 C 101.509 334.637,102.400 335.678,102.400 335.895 C 102.400 337.616,109.406 343.778,112.095 344.422 C 113.253 344.699,114.779 345.168,115.487 345.463 C 117.839 346.444,249.876 346.235,255.731 345.241 C 258.189 344.824,262.237 344.168,264.727 343.783 C 268.086 343.264,269.583 342.841,270.527 342.146 C 273.593 339.888,275.454 338.773,277.166 338.165 C 278.175 337.807,279.480 337.337,280.066 337.122 C 280.652 336.907,281.343 336.220,281.602 335.595 C 282.040 334.538,284.563 332.418,285.422 332.386 C 286.109 332.360,287.788 330.624,288.516 329.188 C 288.920 328.391,289.990 327.317,290.972 326.724 C 292.407 325.857,292.834 325.303,293.414 323.558 C 293.904 322.082,294.693 320.890,296.025 319.614 C 298.045 317.676,298.774 316.205,299.798 312.000 C 300.145 310.570,301.233 307.780,302.214 305.800 C 304.538 301.107,304.772 299.141,304.812 283.963 C 304.845 271.153,304.685 270.000,302.866 270.000 C 301.456 270.000,295.906 268.355,293.476 267.216 C 290.990 266.052,290.044 265.876,279.440 264.602 C 272.157 263.727,268.650 262.940,265.200 261.404 C 262.653 260.271,261.294 259.970,256.200 259.415 C 247.038 258.417,241.056 257.263,237.391 255.785 C 233.547 254.235,231.395 253.792,223.800 252.985 C 216.161 252.173,210.264 250.882,208.635 249.665 C 207.890 249.109,205.197 248.473,199.804 247.579 C 194.007 246.619,192.156 245.863,190.518 243.783 C 189.903 243.003,188.500 241.761,187.400 241.022 C 184.725 239.227,183.945 238.275,182.623 235.200 C 180.985 231.391,180.967 231.380,178.174 232.688 L 175.800 233.800 156.400 233.800 C 135.758 233.800,134.686 233.726,132.829 232.163 C 132.172 231.610,130.502 230.700,129.117 230.141 C 125.961 228.866,125.329 228.301,124.194 225.742 C 123.689 224.603,122.709 223.263,122.001 222.742 C 120.322 221.507,119.415 219.631,118.839 216.200 C 117.185 206.358,117.689 207.016,113.200 208.843 " stroke="none" fill="#f2f2f2" fill-rule="evenodd"></path><path id="path1" d="M5.600 0.430 C 5.600 1.069,1.165 5.600,0.539 5.600 C 0.088 5.600,0.000 37.676,0.000 202.800 L 0.000 400.000 200.000 400.000 L 400.000 400.000 400.000 200.000 L 400.000 0.000 202.800 0.000 C 62.515 0.000,5.600 0.124,5.600 0.430 M244.056 48.200 C 250.502 51.740,254.307 55.616,255.732 60.092 C 256.343 62.013,257.080 63.723,257.368 63.892 C 258.184 64.371,259.062 66.374,259.599 68.980 C 260.676 74.204,261.868 74.798,266.915 72.628 C 268.255 72.052,270.532 71.990,286.545 72.088 L 304.659 72.200 306.430 73.388 C 307.403 74.042,309.190 74.980,310.400 75.473 C 311.646 75.981,312.945 76.853,313.395 77.485 C 313.832 78.098,315.229 79.598,316.499 80.817 C 318.584 82.820,318.849 83.266,319.237 85.417 C 319.473 86.728,319.909 88.610,320.207 89.600 C 321.373 93.485,321.593 102.153,321.629 145.788 C 321.650 170.297,321.822 190.067,322.018 190.434 C 322.459 191.257,325.812 192.863,329.416 193.976 C 330.928 194.443,332.464 195.096,332.830 195.427 C 333.196 195.759,334.895 196.569,336.604 197.227 C 340.152 198.593,341.679 199.737,343.239 202.197 C 343.842 203.148,344.678 204.034,345.097 204.167 C 347.733 205.004,349.752 210.314,349.676 216.209 C 349.584 223.248,347.539 236.484,345.814 241.200 C 345.025 243.356,343.824 248.650,342.819 254.400 C 341.817 260.133,341.774 260.212,337.218 264.743 C 332.320 269.614,330.873 270.265,321.565 271.778 C 320.061 272.023,317.135 274.232,316.323 275.735 C 316.000 276.333,315.885 279.192,315.950 285.000 C 316.018 291.094,315.870 294.498,315.412 297.400 C 312.815 313.862,312.739 314.152,310.185 317.442 C 309.122 318.810,308.176 320.596,307.795 321.953 C 306.756 325.658,306.363 326.376,304.579 327.838 C 303.589 328.650,302.590 329.943,302.201 330.919 C 301.833 331.843,300.419 333.770,299.061 335.200 C 297.703 336.630,296.026 338.461,295.335 339.270 C 294.643 340.078,293.540 341.017,292.882 341.358 C 292.224 341.698,291.130 342.678,290.450 343.537 C 289.570 344.648,288.535 345.351,286.850 345.981 C 285.429 346.513,283.603 347.653,282.270 348.841 C 279.874 350.977,278.437 351.613,273.200 352.857 C 270.940 353.394,269.456 353.991,268.774 354.637 C 268.112 355.264,266.336 355.998,263.774 356.704 L 259.800 357.800 185.800 357.800 C 103.243 357.800,110.205 358.064,106.592 354.793 C 105.430 353.740,104.060 352.746,103.549 352.584 C 101.921 352.067,98.804 349.692,97.189 347.737 C 96.329 346.697,95.350 345.692,95.013 345.503 C 94.676 345.315,94.400 344.895,94.400 344.572 C 94.400 344.248,93.422 342.989,92.226 341.774 C 90.724 340.248,89.842 338.932,89.372 337.514 C 88.997 336.386,88.018 334.729,87.197 333.832 C 85.228 331.680,84.114 329.405,83.329 325.927 C 82.849 323.800,82.344 322.698,81.343 321.590 C 79.418 319.459,78.596 317.311,77.373 311.218 C 76.601 307.374,75.856 304.935,74.767 302.682 C 73.035 299.101,72.754 297.935,71.448 288.891 C 70.814 284.506,70.294 282.146,69.855 281.661 C 68.422 280.078,66.724 269.798,65.815 257.200 C 65.390 251.321,64.388 244.240,63.834 243.200 C 62.600 240.887,61.191 227.113,60.988 215.395 C 60.786 203.681,59.831 198.000,58.066 198.000 C 57.424 198.000,55.948 194.754,55.389 192.113 C 54.683 188.780,54.515 98.889,55.207 94.400 C 55.824 90.394,55.886 90.233,57.448 88.577 C 58.253 87.723,59.410 85.915,60.018 84.559 C 61.151 82.036,61.412 81.772,65.190 79.338 C 70.214 76.102,71.096 75.996,92.729 76.016 C 106.675 76.029,110.349 76.147,112.800 76.661 C 119.084 77.980,122.305 77.224,123.634 74.118 C 124.723 71.571,125.727 70.558,128.600 69.110 C 129.920 68.444,131.761 67.202,132.691 66.350 L 134.382 64.800 150.491 64.700 C 176.756 64.537,175.989 64.457,179.062 67.664 C 182.061 70.795,185.455 68.278,187.771 61.206 C 188.970 57.546,191.072 54.146,192.796 53.080 C 193.564 52.604,195.349 51.329,196.762 50.246 C 200.836 47.124,200.029 47.215,222.600 47.313 C 241.760 47.396,242.661 47.434,244.056 48.200 " stroke="none" fill="#1baba3" fill-rule="evenodd"></path><path id="path2" d="M0.000 1.600 C 0.000 3.540,0.386 3.598,1.978 1.900 C 3.561 0.211,3.519 0.000,1.600 0.000 L 0.000 0.000 0.000 1.600 M201.756 49.995 C 200.460 50.652,199.188 51.192,198.929 51.195 C 198.669 51.198,198.216 51.442,197.920 51.737 C 197.625 52.032,196.937 52.511,196.392 52.801 C 192.215 55.024,189.246 59.643,188.937 64.400 C 188.654 68.760,187.604 69.880,183.437 70.269 C 179.762 70.613,178.080 70.188,176.565 68.534 C 174.786 66.592,173.040 66.426,154.400 66.427 C 137.030 66.428,134.820 66.662,132.662 68.722 C 131.968 69.385,130.730 70.108,129.911 70.328 C 127.301 71.031,126.158 72.170,124.989 75.229 C 123.481 79.174,117.781 81.837,115.478 79.673 C 113.141 77.478,112.770 77.437,94.000 77.279 C 74.363 77.114,72.622 77.307,68.296 80.130 C 67.143 80.882,65.719 81.611,65.131 81.749 C 63.536 82.123,61.751 84.138,60.994 86.419 C 60.624 87.531,59.654 89.214,58.837 90.157 C 56.282 93.110,56.334 91.902,56.474 144.400 L 56.600 191.400 57.693 193.200 C 62.064 200.398,62.784 203.356,62.806 214.200 C 62.819 220.910,63.944 230.013,64.897 231.119 C 65.312 231.600,65.494 232.846,65.517 235.366 C 65.535 237.327,65.732 240.477,65.956 242.366 C 66.577 247.599,66.739 249.699,67.008 256.000 C 67.361 264.272,69.525 275.200,70.810 275.200 C 70.982 275.200,71.211 276.055,71.318 277.100 C 72.711 290.640,74.569 299.600,75.985 299.600 C 76.594 299.600,77.193 301.754,78.008 306.876 C 79.172 314.182,79.539 315.458,81.042 317.428 C 82.809 319.742,83.359 320.884,84.400 324.400 C 85.443 327.920,86.054 329.188,87.834 331.523 C 88.557 332.471,89.617 334.474,90.190 335.973 C 90.948 337.956,91.746 339.188,93.116 340.489 C 94.152 341.472,95.604 343.132,96.341 344.176 C 97.079 345.221,98.294 346.436,99.041 346.877 C 99.789 347.318,100.400 347.837,100.400 348.030 C 100.400 348.707,104.481 351.600,105.436 351.600 C 106.441 351.600,107.242 352.237,108.613 354.129 C 110.714 357.025,105.749 356.850,185.200 356.830 C 264.437 356.809,257.676 357.044,264.000 354.089 C 265.430 353.421,267.230 352.757,268.000 352.613 C 274.812 351.339,277.700 350.245,280.200 347.993 C 281.384 346.927,283.183 345.886,286.083 344.588 C 287.582 343.918,289.600 342.176,289.600 341.552 C 289.600 341.366,290.493 340.761,291.584 340.208 C 293.041 339.470,294.002 338.564,295.199 336.801 C 296.096 335.481,296.997 334.400,297.201 334.400 C 298.069 334.400,300.385 331.835,301.343 329.811 C 301.913 328.607,303.078 326.902,303.933 326.021 C 305.363 324.548,307.600 319.340,307.600 317.484 C 307.600 317.184,308.067 316.503,308.638 315.970 C 312.313 312.537,314.480 299.209,313.865 283.829 C 313.599 277.186,314.097 272.382,315.146 271.476 C 315.800 270.912,319.326 270.270,324.600 269.758 C 329.286 269.302,332.148 267.477,337.545 261.502 C 341.561 257.056,341.516 257.205,342.807 243.866 C 343.215 239.654,343.798 236.972,344.385 236.609 C 346.103 235.547,348.568 221.805,348.135 215.705 C 347.666 209.106,346.846 207.334,343.031 204.680 C 342.461 204.283,341.647 203.276,341.221 202.441 C 340.116 200.276,339.270 199.805,333.200 197.972 C 330.516 197.162,327.269 195.792,325.600 194.766 C 325.270 194.563,324.065 193.931,322.922 193.362 C 319.310 191.563,319.642 196.605,319.507 141.535 C 319.368 84.855,319.427 85.699,315.379 82.611 C 314.574 81.997,313.671 80.910,313.372 80.195 C 312.250 77.509,307.091 75.013,302.800 75.079 C 301.810 75.095,293.980 75.121,285.400 75.137 C 276.820 75.153,268.090 75.361,266.000 75.599 C 259.158 76.380,255.603 74.717,256.410 71.111 C 256.842 69.181,256.795 68.707,255.898 65.992 C 255.354 64.346,254.570 61.933,254.155 60.628 C 253.108 57.337,248.800 52.998,245.200 51.609 C 244.430 51.311,243.523 50.835,243.185 50.549 C 241.192 48.867,240.377 48.800,221.869 48.800 L 204.113 48.800 201.756 49.995 M236.651 54.017 C 238.593 54.377,239.278 54.709,239.945 55.611 C 240.531 56.404,241.830 57.146,244.225 58.055 C 250.762 60.539,250.565 58.425,250.412 124.398 C 250.326 161.848,250.165 176.640,249.833 177.798 C 249.323 179.578,246.299 182.000,244.587 182.000 C 243.284 182.000,241.169 183.285,241.295 184.000 C 241.591 185.687,250.733 186.966,262.686 186.992 C 269.539 187.007,269.531 184.861,262.670 183.123 C 258.026 181.947,254.111 179.961,253.306 178.374 C 252.923 177.620,252.814 168.205,252.823 136.600 C 252.834 91.438,252.775 92.514,255.306 91.287 C 256.253 90.827,258.000 88.851,258.000 88.239 C 258.000 86.290,260.603 82.810,262.709 81.943 L 265.000 81.000 284.600 81.000 C 306.917 81.000,305.433 80.789,309.702 84.564 C 313.705 88.104,313.400 83.473,313.400 140.629 L 313.400 190.258 312.299 191.922 C 310.953 193.957,310.176 194.176,305.465 193.853 C 300.119 193.487,296.453 194.632,298.014 196.181 C 298.900 197.061,303.039 198.000,306.028 198.000 C 308.611 198.000,318.159 198.875,322.981 199.553 C 324.969 199.833,325.540 200.102,326.446 201.187 C 327.346 202.266,328.162 202.655,331.242 203.475 C 335.531 204.616,336.298 205.067,337.422 207.108 C 337.894 207.964,338.864 208.907,339.697 209.321 C 342.167 210.546,342.578 212.321,342.247 220.319 C 341.894 228.869,341.294 231.815,339.628 233.184 C 338.047 234.484,337.340 237.576,336.790 245.600 C 336.289 252.928,335.324 256.486,333.651 257.179 C 332.146 257.802,330.662 259.401,329.736 261.399 C 328.487 264.093,322.460 265.027,312.834 264.020 C 305.426 263.245,303.126 264.399,305.770 267.564 C 307.879 270.088,308.028 271.516,307.787 286.921 C 307.474 307.037,306.955 310.672,304.221 311.918 C 303.638 312.183,303.119 312.837,302.976 313.486 C 301.848 318.587,299.991 322.400,298.636 322.400 C 297.769 322.400,296.130 324.581,295.842 326.118 C 295.601 327.403,293.205 330.400,292.419 330.400 C 292.230 330.400,291.591 331.228,290.998 332.240 C 290.147 333.692,289.460 334.283,287.737 335.045 C 286.034 335.798,285.428 336.314,284.975 337.397 C 284.299 339.015,283.278 339.756,280.836 340.400 C 278.606 340.988,277.443 341.748,276.879 342.986 C 276.286 344.289,274.543 345.134,271.072 345.802 C 263.633 347.235,261.058 348.159,260.615 349.552 C 260.173 350.947,258.955 350.973,187.400 351.108 C 111.503 351.252,114.380 351.325,111.981 349.183 C 111.222 348.504,108.848 347.105,106.706 346.074 C 103.329 344.449,102.753 344.025,102.368 342.879 C 102.124 342.152,100.941 340.551,99.739 339.320 C 97.372 336.896,95.905 334.366,95.168 331.438 C 94.852 330.183,94.315 329.288,93.519 328.689 C 90.819 326.656,90.579 326.277,90.040 323.200 C 89.091 317.781,88.528 316.245,86.971 314.828 C 85.000 313.035,84.444 311.495,83.954 306.479 C 83.409 300.895,82.515 297.635,81.390 297.122 C 79.377 296.205,78.819 293.880,77.848 282.357 C 77.228 275.007,76.427 272.294,74.676 271.629 C 73.519 271.189,73.213 270.212,73.205 266.942 C 73.202 265.591,73.023 262.711,72.808 260.542 C 72.592 258.374,72.228 251.830,72.000 246.000 C 71.771 240.170,71.410 234.680,71.198 233.800 C 70.985 232.920,70.627 230.580,70.401 228.600 C 70.176 226.620,69.736 224.460,69.425 223.800 C 69.114 223.140,68.645 221.250,68.383 219.600 C 68.121 217.950,67.752 215.978,67.563 215.219 C 67.274 214.055,67.392 213.559,68.310 212.075 C 68.909 211.106,69.862 209.568,70.426 208.657 C 70.990 207.747,72.160 206.507,73.026 205.903 L 74.600 204.804 95.000 204.610 C 106.220 204.504,116.016 204.402,116.769 204.385 C 119.236 204.327,120.429 206.031,120.885 210.259 C 121.346 214.539,122.289 217.221,123.552 217.851 C 124.470 218.308,127.164 223.178,127.188 224.424 C 127.213 225.704,128.296 226.453,131.206 227.201 C 134.324 228.004,173.095 228.472,178.829 227.777 C 182.200 227.368,183.335 228.118,185.052 231.887 C 186.705 235.513,189.386 238.241,193.100 240.075 C 195.137 241.081,195.600 241.489,195.600 242.277 C 195.600 244.185,197.897 244.708,207.703 245.031 C 216.865 245.333,218.000 245.150,218.000 243.365 C 218.000 242.519,211.642 241.202,207.552 241.201 C 202.020 241.199,196.000 239.629,196.000 238.187 C 196.000 236.972,193.956 235.292,191.765 234.706 C 189.729 234.162,189.752 234.206,189.023 229.356 C 188.050 222.876,189.250 211.054,191.396 205.972 C 193.473 201.055,194.035 198.976,194.412 194.800 C 195.289 185.111,197.229 182.143,203.702 180.590 C 207.490 179.681,209.200 178.968,209.200 178.297 C 209.200 176.318,206.155 175.386,202.497 176.247 C 198.123 177.276,195.265 176.771,193.824 174.713 C 193.061 173.624,192.867 77.332,193.613 70.063 C 194.088 65.435,195.523 60.025,196.400 59.561 C 196.730 59.386,198.440 58.616,200.200 57.851 C 202.207 56.978,203.579 56.119,203.879 55.545 C 204.938 53.525,228.176 52.441,236.651 54.017 M171.733 72.424 C 172.717 73.291,173.765 74.002,174.061 74.004 C 175.199 74.012,178.735 75.966,179.450 76.982 C 179.862 77.568,181.034 79.053,182.054 80.281 C 184.990 83.818,184.800 79.065,184.798 149.046 C 184.795 217.772,184.895 214.785,182.522 217.158 C 181.754 217.926,180.527 219.490,179.796 220.634 C 177.514 224.201,177.521 224.200,156.000 224.200 C 132.583 224.200,131.668 224.054,130.481 220.124 C 129.889 218.165,128.240 216.400,127.002 216.400 C 125.406 216.400,125.400 216.134,125.400 149.200 C 125.400 79.127,125.268 83.006,127.691 81.753 C 128.472 81.349,129.185 80.429,129.807 79.023 C 130.945 76.449,132.158 75.434,134.872 74.783 C 136.453 74.403,137.316 73.880,138.567 72.543 L 140.200 70.798 155.071 70.823 L 169.942 70.848 171.733 72.424 M110.910 82.732 C 111.520 82.983,112.399 83.830,112.862 84.615 C 113.463 85.633,114.489 86.438,116.442 87.421 C 121.427 89.932,121.173 86.916,121.188 143.680 C 121.202 196.568,121.316 194.623,118.008 197.930 C 115.561 200.378,114.718 200.452,91.001 200.319 C 65.680 200.178,68.367 200.773,65.650 194.700 C 64.986 193.215,64.190 192.000,63.883 192.000 C 61.562 192.000,61.602 192.881,61.590 141.584 C 61.578 93.135,61.501 95.122,63.438 94.385 C 64.035 94.159,64.648 93.169,65.384 91.242 C 66.527 88.250,67.356 87.468,70.570 86.347 C 71.586 85.993,72.414 85.337,72.916 84.489 C 74.439 81.916,74.022 81.965,92.800 82.128 C 104.283 82.228,110.160 82.424,110.910 82.732 M215.462 176.993 C 212.662 177.605,211.307 178.626,212.838 178.970 C 225.065 181.721,239.621 181.883,239.117 179.262 C 238.758 177.400,221.274 175.723,215.462 176.993 M270.259 188.738 C 268.223 190.863,271.067 191.844,280.886 192.405 C 284.848 192.631,288.835 192.988,289.745 193.198 C 293.659 194.102,296.800 193.488,296.800 191.819 C 296.800 189.759,293.883 188.967,285.000 188.614 C 281.700 188.483,278.280 188.206,277.400 187.998 C 274.080 187.212,271.461 187.484,270.259 188.738 M221.500 246.881 C 218.893 247.573,219.596 249.133,222.800 249.763 C 231.875 251.547,245.800 251.418,245.800 249.550 C 245.800 247.625,226.627 245.519,221.500 246.881 M248.870 252.926 C 246.709 255.226,247.860 255.548,262.663 256.792 C 271.587 257.541,275.200 257.105,275.200 255.280 C 275.200 254.109,270.821 253.319,260.392 252.611 C 249.146 251.848,249.901 251.828,248.870 252.926 M278.071 258.784 C 274.807 260.846,277.107 261.430,294.024 262.833 C 300.239 263.349,301.547 263.143,302.563 261.489 C 303.448 260.047,300.757 259.241,293.600 258.801 C 278.373 257.867,279.521 257.868,278.071 258.784 " stroke="none" fill="#222f2f" fill-rule="evenodd"></path><path id="path3" d="M2.400 1.403 C 1.850 2.162,1.085 2.889,0.700 3.019 C -0.151 3.305,-0.294 5.600,0.539 5.600 C 1.165 5.600,5.600 1.069,5.600 0.430 C 5.600 -0.626,3.380 0.049,2.400 1.403 M200.966 47.751 C 200.067 48.040,198.176 49.163,196.762 50.246 C 195.349 51.329,193.564 52.604,192.796 53.080 C 191.072 54.146,188.970 57.546,187.771 61.206 C 185.455 68.278,182.061 70.795,179.062 67.664 C 175.989 64.457,176.756 64.537,150.491 64.700 L 134.382 64.800 132.691 66.350 C 131.761 67.202,129.920 68.444,128.600 69.110 C 125.727 70.558,124.723 71.571,123.634 74.118 C 122.305 77.224,119.084 77.980,112.800 76.661 C 110.349 76.147,106.675 76.029,92.729 76.016 C 71.096 75.996,70.214 76.102,65.190 79.338 C 61.412 81.772,61.151 82.036,60.018 84.559 C 59.410 85.915,58.253 87.723,57.448 88.577 C 55.886 90.233,55.824 90.394,55.207 94.400 C 54.515 98.889,54.683 188.780,55.389 192.113 C 55.948 194.754,57.424 198.000,58.066 198.000 C 59.831 198.000,60.786 203.681,60.988 215.395 C 61.191 227.113,62.600 240.887,63.834 243.200 C 64.388 244.240,65.390 251.321,65.815 257.200 C 66.724 269.798,68.422 280.078,69.855 281.661 C 70.294 282.146,70.814 284.506,71.448 288.891 C 72.754 297.935,73.035 299.101,74.767 302.682 C 75.856 304.935,76.601 307.374,77.373 311.218 C 78.596 317.311,79.418 319.459,81.343 321.590 C 82.344 322.698,82.849 323.800,83.329 325.927 C 84.114 329.405,85.228 331.680,87.197 333.832 C 88.018 334.729,88.997 336.386,89.372 337.514 C 89.842 338.932,90.724 340.248,92.226 341.774 C 93.422 342.989,94.400 344.248,94.400 344.572 C 94.400 344.895,94.676 345.315,95.013 345.503 C 95.350 345.692,96.329 346.697,97.189 347.737 C 98.804 349.692,101.921 352.067,103.549 352.584 C 104.060 352.746,105.430 353.740,106.592 354.793 C 110.205 358.064,103.243 357.800,185.800 357.800 L 259.800 357.800 263.774 356.704 C 266.336 355.998,268.112 355.264,268.774 354.637 C 269.456 353.991,270.940 353.394,273.200 352.857 C 278.437 351.613,279.874 350.977,282.270 348.841 C 283.603 347.653,285.429 346.513,286.850 345.981 C 288.535 345.351,289.570 344.648,290.450 343.537 C 291.130 342.678,292.224 341.698,292.882 341.358 C 293.540 341.017,294.643 340.078,295.335 339.270 C 296.026 338.461,297.703 336.630,299.061 335.200 C 300.419 333.770,301.833 331.843,302.201 330.919 C 302.590 329.943,303.589 328.650,304.579 327.838 C 306.363 326.376,306.756 325.658,307.795 321.953 C 308.176 320.596,309.122 318.810,310.185 317.442 C 312.739 314.152,312.815 313.862,315.412 297.400 C 315.870 294.498,316.018 291.094,315.950 285.000 C 315.885 279.192,316.000 276.333,316.323 275.735 C 317.135 274.232,320.061 272.023,321.565 271.778 C 330.873 270.265,332.320 269.614,337.218 264.743 C 341.774 260.212,341.817 260.133,342.819 254.400 C 343.824 248.650,345.025 243.356,345.814 241.200 C 347.539 236.484,349.584 223.248,349.676 216.209 C 349.752 210.314,347.733 205.004,345.097 204.167 C 344.678 204.034,343.842 203.148,343.239 202.197 C 341.679 199.737,340.152 198.593,336.604 197.227 C 334.895 196.569,333.196 195.759,332.830 195.427 C 332.464 195.096,330.928 194.443,329.416 193.976 C 325.812 192.863,322.459 191.257,322.018 190.434 C 321.822 190.067,321.650 170.297,321.629 145.788 C 321.593 102.153,321.373 93.485,320.207 89.600 C 319.909 88.610,319.473 86.728,319.237 85.417 C 318.849 83.266,318.584 82.820,316.499 80.817 C 315.229 79.598,313.832 78.098,313.395 77.485 C 312.945 76.853,311.646 75.981,310.400 75.473 C 309.190 74.980,307.403 74.042,306.430 73.388 L 304.659 72.200 286.545 72.088 C 270.532 71.990,268.255 72.052,266.915 72.628 C 261.868 74.798,260.676 74.204,259.599 68.980 C 259.062 66.374,258.184 64.371,257.368 63.892 C 257.080 63.723,256.343 62.013,255.732 60.092 C 254.307 55.616,250.502 51.740,244.056 48.200 C 242.191 47.176,203.995 46.778,200.966 47.751 M241.098 49.415 C 241.908 49.754,242.847 50.264,243.185 50.549 C 243.523 50.835,244.430 51.311,245.200 51.609 C 248.800 52.998,253.108 57.337,254.155 60.628 C 254.570 61.933,255.354 64.346,255.898 65.992 C 256.795 68.707,256.842 69.181,256.410 71.111 C 255.603 74.717,259.158 76.380,266.000 75.599 C 268.090 75.361,276.820 75.153,285.400 75.137 C 293.980 75.121,301.810 75.095,302.800 75.079 C 307.091 75.013,312.250 77.509,313.372 80.195 C 313.671 80.910,314.574 81.997,315.379 82.611 C 319.427 85.699,319.368 84.855,319.507 141.535 C 319.642 196.605,319.310 191.563,322.922 193.362 C 324.065 193.931,325.270 194.563,325.600 194.766 C 327.269 195.792,330.516 197.162,333.200 197.972 C 339.270 199.805,340.116 200.276,341.221 202.441 C 341.647 203.276,342.461 204.283,343.031 204.680 C 346.846 207.334,347.666 209.106,348.135 215.705 C 348.568 221.805,346.103 235.547,344.385 236.609 C 343.798 236.972,343.215 239.654,342.807 243.866 C 341.516 257.205,341.561 257.056,337.545 261.502 C 332.148 267.477,329.286 269.302,324.600 269.758 C 319.326 270.270,315.800 270.912,315.146 271.476 C 314.097 272.382,313.599 277.186,313.865 283.829 C 314.480 299.209,312.313 312.537,308.638 315.970 C 308.067 316.503,307.600 317.184,307.600 317.484 C 307.600 319.340,305.363 324.548,303.933 326.021 C 303.078 326.902,301.913 328.607,301.343 329.811 C 300.385 331.835,298.069 334.400,297.201 334.400 C 296.997 334.400,296.096 335.481,295.199 336.801 C 294.002 338.564,293.041 339.470,291.584 340.208 C 290.493 340.761,289.600 341.366,289.600 341.552 C 289.600 342.176,287.582 343.918,286.083 344.588 C 283.183 345.886,281.384 346.927,280.200 347.993 C 277.700 350.245,274.812 351.339,268.000 352.613 C 267.230 352.757,265.430 353.421,264.000 354.089 C 257.676 357.044,264.437 356.809,185.200 356.830 C 105.749 356.850,110.714 357.025,108.613 354.129 C 107.242 352.237,106.441 351.600,105.436 351.600 C 104.481 351.600,100.400 348.707,100.400 348.030 C 100.400 347.837,99.789 347.318,99.041 346.877 C 98.294 346.436,97.079 345.221,96.341 344.176 C 95.604 343.132,94.152 341.472,93.116 340.489 C 91.746 339.188,90.948 337.956,90.190 335.973 C 89.617 334.474,88.557 332.471,87.834 331.523 C 86.054 329.188,85.443 327.920,84.400 324.400 C 83.359 320.884,82.809 319.742,81.042 317.428 C 79.539 315.458,79.172 314.182,78.008 306.876 C 77.193 301.754,76.594 299.600,75.985 299.600 C 74.569 299.600,72.711 290.640,71.318 277.100 C 71.211 276.055,70.982 275.200,70.810 275.200 C 69.525 275.200,67.361 264.272,67.008 256.000 C 66.739 249.699,66.577 247.599,65.956 242.366 C 65.732 240.477,65.535 237.327,65.517 235.366 C 65.494 232.846,65.312 231.600,64.897 231.119 C 63.944 230.013,62.819 220.910,62.806 214.200 C 62.784 203.356,62.064 200.398,57.693 193.200 L 56.600 191.400 56.474 144.400 C 56.334 91.902,56.282 93.110,58.837 90.157 C 59.654 89.214,60.624 87.531,60.994 86.419 C 61.751 84.138,63.536 82.123,65.131 81.749 C 65.719 81.611,67.143 80.882,68.296 80.130 C 72.622 77.307,74.363 77.114,94.000 77.279 C 112.770 77.437,113.141 77.478,115.478 79.673 C 117.781 81.837,123.481 79.174,124.989 75.229 C 126.158 72.170,127.301 71.031,129.911 70.328 C 130.730 70.108,131.968 69.385,132.662 68.722 C 134.820 66.662,137.030 66.428,154.400 66.427 C 173.040 66.426,174.786 66.592,176.565 68.534 C 178.080 70.188,179.762 70.613,183.437 70.269 C 187.604 69.880,188.654 68.760,188.937 64.400 C 189.246 59.643,192.215 55.024,196.392 52.801 C 196.937 52.511,197.625 52.032,197.920 51.737 C 198.216 51.442,198.669 51.198,198.929 51.195 C 199.188 51.192,200.460 50.652,201.756 49.995 L 204.113 48.800 221.869 48.800 C 236.944 48.800,239.848 48.893,241.098 49.415 M207.051 54.015 C 205.018 54.479,204.241 54.854,203.879 55.545 C 203.579 56.119,202.207 56.978,200.200 57.851 C 198.440 58.616,196.730 59.386,196.400 59.561 C 195.523 60.025,194.088 65.435,193.613 70.063 C 192.867 77.332,193.061 173.624,193.824 174.713 C 195.265 176.771,198.123 177.276,202.497 176.247 C 206.155 175.386,209.200 176.318,209.200 178.297 C 209.200 178.968,207.490 179.681,203.702 180.590 C 197.229 182.143,195.289 185.111,194.412 194.800 C 194.035 198.976,193.473 201.055,191.396 205.972 C 189.250 211.054,188.050 222.876,189.023 229.356 C 189.752 234.206,189.729 234.162,191.765 234.706 C 193.956 235.292,196.000 236.972,196.000 238.187 C 196.000 239.629,202.020 241.199,207.552 241.201 C 211.642 241.202,218.000 242.519,218.000 243.365 C 218.000 245.150,216.865 245.333,207.703 245.031 C 197.897 244.708,195.600 244.185,195.600 242.277 C 195.600 241.489,195.137 241.081,193.100 240.075 C 189.386 238.241,186.705 235.513,185.052 231.887 C 183.335 228.118,182.200 227.368,178.829 227.777 C 173.095 228.472,134.324 228.004,131.206 227.201 C 128.296 226.453,127.213 225.704,127.188 224.424 C 127.164 223.178,124.470 218.308,123.552 217.851 C 122.289 217.221,121.346 214.539,120.885 210.259 C 120.429 206.031,119.236 204.327,116.769 204.385 C 116.016 204.402,106.220 204.504,95.000 204.610 L 74.600 204.804 73.026 205.903 C 72.160 206.507,70.990 207.747,70.426 208.657 C 69.862 209.568,68.909 211.106,68.310 212.075 C 67.392 213.559,67.274 214.055,67.563 215.219 C 67.752 215.978,68.121 217.950,68.383 219.600 C 68.645 221.250,69.114 223.140,69.425 223.800 C 69.736 224.460,70.176 226.620,70.401 228.600 C 70.627 230.580,70.985 232.920,71.198 233.800 C 71.410 234.680,71.771 240.170,72.000 246.000 C 72.228 251.830,72.592 258.374,72.808 260.542 C 73.023 262.711,73.202 265.591,73.205 266.942 C 73.213 270.212,73.519 271.189,74.676 271.629 C 76.427 272.294,77.228 275.007,77.848 282.357 C 78.819 293.880,79.377 296.205,81.390 297.122 C 82.515 297.635,83.409 300.895,83.954 306.479 C 84.444 311.495,85.000 313.035,86.971 314.828 C 88.528 316.245,89.091 317.781,90.040 323.200 C 90.579 326.277,90.819 326.656,93.519 328.689 C 94.315 329.288,94.852 330.183,95.168 331.438 C 95.905 334.366,97.372 336.896,99.739 339.320 C 100.941 340.551,102.124 342.152,102.368 342.879 C 102.753 344.025,103.329 344.449,106.706 346.074 C 108.848 347.105,111.222 348.504,111.981 349.183 C 114.380 351.325,111.503 351.252,187.400 351.108 C 258.955 350.973,260.173 350.947,260.615 349.552 C 261.058 348.159,263.633 347.235,271.072 345.802 C 274.543 345.134,276.286 344.289,276.879 342.986 C 277.443 341.748,278.606 340.988,280.836 340.400 C 283.278 339.756,284.299 339.015,284.975 337.397 C 285.428 336.314,286.034 335.798,287.737 335.045 C 289.460 334.283,290.147 333.692,290.998 332.240 C 291.591 331.228,292.230 330.400,292.419 330.400 C 293.205 330.400,295.601 327.403,295.842 326.118 C 296.130 324.581,297.769 322.400,298.636 322.400 C 299.991 322.400,301.848 318.587,302.976 313.486 C 303.119 312.837,303.638 312.183,304.221 311.918 C 306.955 310.672,307.474 307.037,307.787 286.921 C 308.028 271.516,307.879 270.088,305.770 267.564 C 303.126 264.399,305.426 263.245,312.834 264.020 C 322.460 265.027,328.487 264.093,329.736 261.399 C 330.662 259.401,332.146 257.802,333.651 257.179 C 335.324 256.486,336.289 252.928,336.790 245.600 C 337.340 237.576,338.047 234.484,339.628 233.184 C 341.294 231.815,341.894 228.869,342.247 220.319 C 342.578 212.321,342.167 210.546,339.697 209.321 C 338.864 208.907,337.894 207.964,337.422 207.108 C 336.298 205.067,335.531 204.616,331.242 203.475 C 328.162 202.655,327.346 202.266,326.446 201.187 C 325.540 200.102,324.969 199.833,322.981 199.553 C 318.159 198.875,308.611 198.000,306.028 198.000 C 303.039 198.000,298.900 197.061,298.014 196.181 C 296.453 194.632,300.119 193.487,305.465 193.853 C 310.176 194.176,310.953 193.957,312.299 191.922 L 313.400 190.258 313.400 140.629 C 313.400 83.473,313.705 88.104,309.702 84.564 C 305.433 80.789,306.917 81.000,284.600 81.000 L 265.000 81.000 262.709 81.943 C 260.603 82.810,258.000 86.290,258.000 88.239 C 258.000 88.851,256.253 90.827,255.306 91.287 C 252.775 92.514,252.834 91.438,252.823 136.600 C 252.814 168.205,252.923 177.620,253.306 178.374 C 254.111 179.961,258.026 181.947,262.670 183.123 C 269.531 184.861,269.539 187.007,262.686 186.992 C 250.733 186.966,241.591 185.687,241.295 184.000 C 241.169 183.285,243.284 182.000,244.587 182.000 C 246.299 182.000,249.323 179.578,249.833 177.798 C 250.165 176.640,250.326 161.848,250.412 124.398 C 250.565 58.425,250.762 60.539,244.225 58.055 C 241.830 57.146,240.531 56.404,239.945 55.611 C 238.672 53.889,236.001 53.573,221.972 53.480 C 212.182 53.416,209.207 53.523,207.051 54.015 M242.600 58.814 C 249.767 62.015,249.356 58.049,249.222 122.749 C 249.112 175.754,249.120 175.518,247.363 178.053 C 245.964 180.072,245.182 180.256,243.111 179.052 C 240.753 177.680,235.612 176.447,230.278 175.975 C 223.710 175.394,218.032 174.452,216.191 173.637 C 211.590 171.602,209.373 171.674,204.156 174.026 C 200.088 175.860,197.778 175.988,196.000 174.477 L 194.600 173.288 194.600 120.744 L 194.600 68.200 195.564 65.082 C 197.817 57.789,201.109 56.842,223.800 56.954 L 238.600 57.027 242.600 58.814 M138.567 72.543 C 137.316 73.880,136.453 74.403,134.872 74.783 C 132.158 75.434,130.945 76.449,129.807 79.023 C 129.185 80.429,128.472 81.349,127.691 81.753 C 125.268 83.006,125.400 79.127,125.400 149.200 C 125.400 216.134,125.406 216.400,127.002 216.400 C 128.240 216.400,129.889 218.165,130.481 220.124 C 131.668 224.054,132.583 224.200,156.000 224.200 C 177.521 224.200,177.514 224.201,179.796 220.634 C 180.527 219.490,181.754 217.926,182.522 217.158 C 184.895 214.785,184.795 217.772,184.798 149.046 C 184.800 79.065,184.990 83.818,182.054 80.281 C 181.034 79.053,179.862 77.568,179.450 76.982 C 178.735 75.966,175.199 74.012,174.061 74.004 C 173.765 74.002,172.717 73.291,171.733 72.424 L 169.942 70.848 155.071 70.823 L 140.200 70.798 138.567 72.543 M172.366 75.010 C 176.552 75.750,177.585 76.499,180.591 80.969 C 183.779 85.712,183.580 81.220,183.588 148.600 C 183.596 215.765,183.686 213.287,181.125 216.542 C 180.176 217.748,179.040 219.326,178.600 220.048 C 176.784 223.029,177.085 222.985,157.337 223.126 C 133.611 223.295,133.301 223.243,131.033 218.653 C 130.475 217.524,129.409 215.942,128.663 215.137 C 127.424 213.799,127.271 213.353,126.882 209.937 C 126.318 204.986,126.216 101.543,126.767 92.303 L 127.166 85.607 128.745 83.281 C 129.614 82.002,130.588 80.335,130.911 79.578 C 131.849 77.372,133.298 76.353,136.893 75.366 C 141.147 74.200,166.352 73.946,172.366 75.010 M304.711 82.569 C 306.906 83.501,311.258 88.481,311.978 90.886 C 312.526 92.712,312.680 184.707,312.142 188.397 C 311.845 190.435,310.693 192.230,309.478 192.548 C 307.738 193.003,302.754 192.033,300.651 190.829 C 297.573 189.068,293.350 188.124,286.400 187.643 C 280.141 187.210,276.558 186.470,271.800 184.629 C 270.480 184.118,268.140 183.397,266.600 183.027 C 258.683 181.123,257.073 180.131,256.661 176.904 C 255.877 170.765,256.325 96.994,257.162 94.513 C 257.623 93.145,258.000 91.821,258.000 91.572 C 258.000 90.717,261.075 84.601,261.847 83.920 C 264.526 81.559,299.717 80.450,304.711 82.569 M74.746 82.579 C 74.167 82.908,73.343 83.767,72.916 84.489 C 72.414 85.337,71.586 85.993,70.570 86.347 C 67.356 87.468,66.527 88.250,65.384 91.242 C 64.648 93.169,64.035 94.159,63.438 94.385 C 61.501 95.122,61.578 93.135,61.590 141.584 C 61.602 192.881,61.562 192.000,63.883 192.000 C 64.190 192.000,64.986 193.215,65.650 194.700 C 68.367 200.773,65.680 200.178,91.001 200.319 C 114.718 200.452,115.561 200.378,118.008 197.930 C 121.316 194.623,121.202 196.568,121.188 143.680 C 121.173 86.916,121.427 89.932,116.442 87.421 C 114.489 86.438,113.463 85.633,112.862 84.615 C 112.399 83.830,111.520 82.983,110.910 82.732 C 109.026 81.958,76.085 81.818,74.746 82.579 M99.800 85.298 L 110.200 85.400 114.200 87.627 C 120.480 91.124,119.781 84.440,119.908 142.196 L 120.015 191.392 118.810 193.840 C 116.095 199.355,114.998 199.602,93.236 199.592 C 68.723 199.581,69.344 199.725,66.428 193.378 L 64.600 189.400 64.486 143.521 L 64.371 97.642 65.653 93.972 C 67.239 89.430,68.201 88.234,70.915 87.432 C 72.062 87.093,73.667 86.407,74.482 85.908 C 75.887 85.047,76.309 85.005,82.682 85.098 C 86.377 85.152,94.080 85.242,99.800 85.298 M228.600 176.984 C 238.375 177.789,241.279 178.922,237.797 180.575 C 235.151 181.830,221.709 180.966,212.838 178.970 C 210.255 178.389,215.434 176.516,219.800 176.453 C 220.900 176.437,224.860 176.676,228.600 176.984 M216.400 180.770 C 219.150 181.190,222.840 181.654,224.600 181.802 C 229.611 182.224,234.633 183.396,239.188 185.209 C 243.033 186.738,243.821 186.905,248.788 187.244 C 256.309 187.758,263.315 189.001,265.356 190.185 C 267.687 191.537,273.765 193.200,276.383 193.201 C 281.813 193.204,289.763 194.585,293.569 196.187 C 297.276 197.747,302.293 198.849,307.400 199.225 C 313.010 199.637,317.433 200.439,320.680 201.631 C 321.956 202.099,323.900 202.714,325.000 202.997 C 333.415 205.161,334.414 205.591,336.249 207.849 C 337.102 208.897,338.591 210.552,339.558 211.525 L 341.316 213.295 341.073 218.547 C 340.816 224.094,340.286 226.697,338.836 229.532 C 337.517 232.112,336.551 236.396,336.025 242.000 C 335.127 251.550,334.458 253.831,331.738 256.600 C 330.874 257.480,329.485 259.046,328.652 260.080 C 325.513 263.975,313.592 264.244,306.367 260.583 C 303.287 259.023,298.990 258.052,293.200 257.608 C 284.560 256.946,282.146 256.476,278.600 254.761 C 275.197 253.116,270.184 252.009,266.048 251.989 C 262.340 251.972,253.283 250.193,249.861 248.810 C 245.898 247.209,242.658 246.517,236.600 245.979 C 229.938 245.386,224.106 244.193,221.124 242.811 C 218.327 241.516,213.953 240.613,207.600 240.020 C 202.099 239.507,199.521 238.702,197.462 236.857 C 196.548 236.038,194.787 234.685,193.549 233.851 C 188.646 230.548,188.318 222.025,192.574 208.476 C 194.160 203.424,195.398 197.617,195.788 193.400 C 196.396 186.811,200.788 181.339,205.600 181.173 C 206.150 181.155,207.230 180.897,208.000 180.600 C 209.888 179.873,210.605 179.887,216.400 180.770 M277.400 187.998 C 278.280 188.206,281.700 188.483,285.000 188.614 C 293.883 188.967,296.800 189.759,296.800 191.819 C 296.800 193.488,293.659 194.102,289.745 193.198 C 288.835 192.988,284.848 192.631,280.886 192.405 C 271.067 191.844,268.223 190.863,270.259 188.738 C 271.461 187.484,274.080 187.212,277.400 187.998 M117.830 205.857 C 119.292 206.814,119.613 207.652,120.018 211.570 C 120.442 215.667,121.378 218.109,123.370 220.315 C 124.155 221.183,125.227 222.863,125.752 224.047 C 127.322 227.589,130.315 229.035,138.090 230.009 C 143.828 230.728,173.890 230.296,177.978 229.437 C 181.836 228.625,182.214 228.869,184.588 233.699 C 186.201 236.981,186.667 237.580,188.703 238.987 C 189.967 239.859,191.826 241.341,192.835 242.280 C 195.472 244.734,197.453 245.461,203.000 246.008 C 209.988 246.698,213.364 247.419,216.291 248.844 C 219.072 250.199,222.136 250.779,234.983 252.379 C 240.978 253.126,242.108 253.389,244.707 254.639 C 248.281 256.358,251.367 257.024,258.262 257.567 C 263.826 258.005,270.092 259.213,272.051 260.227 C 275.173 261.841,280.678 263.018,287.000 263.424 C 292.029 263.748,297.138 264.817,300.078 266.161 C 301.327 266.733,302.526 267.200,302.744 267.200 C 303.510 267.200,305.716 269.379,306.254 270.668 C 307.349 273.287,306.810 301.042,305.575 305.729 C 305.332 306.648,304.526 308.300,303.783 309.400 C 303.040 310.500,301.884 313.105,301.214 315.189 C 300.177 318.416,299.706 319.277,298.039 320.989 C 296.963 322.095,295.679 323.806,295.187 324.791 C 294.006 327.151,288.196 333.473,286.323 334.434 C 285.511 334.851,284.357 335.834,283.759 336.618 C 283.061 337.533,281.533 338.612,279.487 339.632 C 277.735 340.507,275.608 341.815,274.761 342.541 C 272.968 344.075,272.039 344.401,264.863 346.017 C 261.928 346.677,259.011 347.484,258.383 347.809 C 254.877 349.622,256.279 349.588,184.200 349.591 C 116.887 349.595,116.188 349.587,115.000 348.796 C 114.340 348.356,112.105 347.169,110.034 346.157 C 107.500 344.920,105.656 343.689,104.397 342.396 C 101.229 339.145,97.049 333.515,96.388 331.610 C 95.483 329.003,94.639 327.559,93.246 326.235 C 92.017 325.066,91.318 323.331,90.394 319.151 C 90.120 317.913,89.297 315.843,88.565 314.551 C 85.744 309.570,85.176 307.995,84.629 303.647 C 84.110 299.521,83.015 295.941,81.232 292.542 C 80.303 290.769,78.806 283.112,78.791 280.052 C 78.782 278.212,76.996 270.074,75.005 262.800 C 74.127 259.593,73.874 257.376,73.386 248.600 C 73.067 242.880,72.632 236.760,72.419 235.000 C 72.206 233.240,71.844 228.560,71.614 224.600 C 71.385 220.640,71.096 216.627,70.972 215.683 C 70.652 213.250,72.023 209.322,73.790 207.609 L 75.162 206.280 92.681 206.343 C 106.326 206.391,110.863 206.280,113.200 205.839 C 114.850 205.527,116.341 205.256,116.514 205.236 C 116.687 205.216,117.279 205.495,117.830 205.857 M235.000 246.977 C 244.460 247.756,248.197 249.240,244.200 250.631 C 242.161 251.341,238.622 251.336,230.600 250.614 C 221.463 249.791,220.000 249.434,220.000 248.026 C 220.000 246.395,224.296 246.095,235.000 246.977 M260.392 252.611 C 270.821 253.319,275.200 254.109,275.200 255.280 C 275.200 257.105,271.587 257.541,262.663 256.792 C 247.860 255.548,246.709 255.226,248.870 252.926 C 249.901 251.828,249.146 251.848,260.392 252.611 M293.600 258.801 C 300.757 259.241,303.448 260.047,302.563 261.489 C 301.547 263.143,300.239 263.349,294.024 262.833 C 277.107 261.430,274.807 260.846,278.071 258.784 C 279.521 257.868,278.373 257.867,293.600 258.801 " stroke="none" fill="#4a6362" fill-rule="evenodd"></path><path id="path4" d="M206.400 57.172 C 200.831 57.797,196.937 60.639,195.564 65.082 L 194.600 68.200 194.600 120.744 L 194.600 173.288 196.000 174.477 C 197.778 175.988,200.088 175.860,204.156 174.026 C 209.373 171.674,211.590 171.602,216.191 173.637 C 218.032 174.452,223.710 175.394,230.278 175.975 C 235.612 176.447,240.753 177.680,243.111 179.052 C 245.182 180.256,245.964 180.072,247.363 178.053 C 249.120 175.518,249.112 175.754,249.222 122.749 C 249.356 58.049,249.767 62.015,242.600 58.814 L 238.600 57.027 223.800 56.954 C 215.660 56.914,207.830 57.012,206.400 57.172 M241.879 60.975 C 247.423 63.204,247.161 60.174,247.182 122.313 C 247.203 182.467,247.873 176.620,241.101 175.440 C 239.065 175.085,234.880 174.451,231.800 174.030 C 227.855 173.490,225.304 172.904,223.168 172.046 C 215.668 169.032,206.136 168.787,202.262 171.507 C 196.356 175.652,196.866 180.561,196.830 119.164 C 196.798 64.782,196.714 66.982,198.934 63.629 C 201.393 59.912,202.806 59.692,223.800 59.765 L 239.000 59.817 241.879 60.975 M136.893 75.366 C 133.298 76.353,131.849 77.372,130.911 79.578 C 130.588 80.335,129.614 82.002,128.745 83.281 L 127.166 85.607 126.767 92.303 C 126.216 101.543,126.318 204.986,126.882 209.937 C 127.271 213.353,127.424 213.799,128.663 215.137 C 129.409 215.942,130.475 217.524,131.033 218.653 C 133.301 223.243,133.611 223.295,157.337 223.126 C 177.085 222.985,176.784 223.029,178.600 220.048 C 179.040 219.326,180.176 217.748,181.125 216.542 C 182.453 214.854,182.936 213.826,183.223 212.075 C 183.701 209.155,183.707 87.944,183.229 85.885 C 182.785 83.971,178.719 77.884,177.017 76.586 C 173.867 74.183,144.467 73.289,136.893 75.366 M172.523 77.639 C 175.776 78.134,176.923 78.924,177.638 81.159 C 177.892 81.951,178.557 83.212,179.116 83.961 C 181.237 86.798,181.187 85.219,181.194 149.264 C 181.201 215.090,181.343 211.346,178.696 214.852 C 178.136 215.593,177.453 216.962,177.178 217.894 C 176.200 221.202,177.629 221.000,155.200 221.000 C 132.867 221.000,134.164 221.174,133.166 218.052 C 132.911 217.253,132.377 215.970,131.980 215.200 C 129.974 211.311,129.999 212.157,130.008 149.851 C 130.017 87.898,130.011 88.099,131.973 82.968 C 133.677 78.511,133.528 78.666,136.814 77.938 C 140.467 77.129,167.681 76.900,172.523 77.639 M265.409 82.444 C 263.874 82.882,262.271 83.547,261.847 83.920 C 261.075 84.601,258.000 90.717,258.000 91.572 C 258.000 91.821,257.623 93.145,257.162 94.513 C 256.325 96.994,255.877 170.765,256.661 176.904 C 257.073 180.131,258.683 181.123,266.600 183.027 C 268.140 183.397,270.480 184.118,271.800 184.629 C 276.558 186.470,280.141 187.210,286.400 187.643 C 293.350 188.124,297.573 189.068,300.651 190.829 C 302.754 192.033,307.738 193.003,309.478 192.548 C 310.693 192.230,311.845 190.435,312.142 188.397 C 312.680 184.707,312.526 92.712,311.978 90.886 C 311.258 88.481,306.906 83.501,304.711 82.569 C 301.939 81.393,269.454 81.289,265.409 82.444 M304.113 84.507 C 304.705 84.894,305.537 85.884,305.961 86.706 C 306.385 87.528,307.451 88.896,308.330 89.746 C 310.608 91.950,310.513 89.695,310.462 140.493 C 310.411 192.078,310.523 189.924,307.931 189.180 C 307.202 188.971,306.010 188.800,305.283 188.800 C 304.555 188.800,303.443 188.532,302.810 188.205 C 301.312 187.430,295.878 186.527,289.538 185.998 C 283.694 185.511,280.632 184.804,278.207 183.383 C 276.295 182.262,273.132 181.544,266.675 180.764 C 264.012 180.442,261.892 179.963,261.157 179.516 L 259.964 178.790 260.082 135.295 L 260.200 91.800 261.521 88.983 C 262.930 85.979,263.458 85.494,266.597 84.328 C 269.554 83.228,302.402 83.385,304.113 84.507 M74.482 85.908 C 73.667 86.407,72.062 87.093,70.915 87.432 C 68.201 88.234,67.239 89.430,65.653 93.972 L 64.371 97.642 64.486 143.521 L 64.600 189.400 66.428 193.378 C 69.344 199.725,68.723 199.581,93.236 199.592 C 114.998 199.602,116.095 199.355,118.810 193.840 L 120.015 191.392 119.908 142.196 C 119.781 84.440,120.480 91.124,114.200 87.627 L 110.200 85.400 99.800 85.298 C 94.080 85.242,86.377 85.152,82.682 85.098 C 76.309 85.005,75.887 85.047,74.482 85.908 M113.616 90.081 C 118.471 92.570,118.046 87.477,118.029 143.000 C 118.020 168.960,118.010 190.515,118.007 190.901 C 118.000 191.643,113.497 196.399,112.086 197.154 C 110.930 197.773,76.056 197.772,73.120 197.153 C 70.341 196.568,70.236 196.460,68.815 192.776 L 67.600 189.626 67.600 143.313 C 67.601 86.721,67.223 90.620,72.835 89.218 C 75.487 88.556,77.629 88.476,93.114 88.462 L 110.428 88.446 113.616 90.081 M208.000 180.600 C 207.230 180.897,206.150 181.155,205.600 181.173 C 200.788 181.339,196.396 186.811,195.788 193.400 C 195.398 197.617,194.160 203.424,192.574 208.476 C 189.462 218.383,188.837 226.932,190.894 231.447 C 191.117 231.936,192.312 233.017,193.549 233.851 C 194.787 234.685,196.548 236.038,197.462 236.857 C 199.521 238.702,202.099 239.507,207.600 240.020 C 213.953 240.613,218.327 241.516,221.124 242.811 C 224.106 244.193,229.938 245.386,236.600 245.979 C 242.658 246.517,245.898 247.209,249.861 248.810 C 253.283 250.193,262.340 251.972,266.048 251.989 C 270.184 252.009,275.197 253.116,278.600 254.761 C 282.146 256.476,284.560 256.946,293.200 257.608 C 298.990 258.052,303.287 259.023,306.367 260.583 C 313.592 264.244,325.513 263.975,328.652 260.080 C 329.485 259.046,330.874 257.480,331.738 256.600 C 334.458 253.831,335.127 251.550,336.025 242.000 C 336.551 236.396,337.517 232.112,338.836 229.532 C 340.286 226.697,340.816 224.094,341.073 218.547 L 341.316 213.295 339.558 211.525 C 338.591 210.552,337.102 208.897,336.249 207.849 C 334.414 205.591,333.415 205.161,325.000 202.997 C 323.900 202.714,321.956 202.099,320.680 201.631 C 317.433 200.439,313.010 199.637,307.400 199.225 C 302.293 198.849,297.276 197.747,293.569 196.187 C 289.763 194.585,281.813 193.204,276.383 193.201 C 273.765 193.200,267.687 191.537,265.356 190.185 C 263.315 189.001,256.309 187.758,248.788 187.244 C 243.821 186.905,243.033 186.738,239.188 185.209 C 234.633 183.396,229.611 182.224,224.600 181.802 C 222.840 181.654,219.150 181.190,216.400 180.770 C 210.605 179.887,209.888 179.873,208.000 180.600 M221.000 183.466 C 225.734 184.009,227.157 184.344,230.200 185.630 C 233.967 187.223,240.325 188.533,246.600 189.010 C 252.041 189.423,255.617 190.035,257.547 190.883 C 262.340 192.989,267.576 194.200,275.395 195.010 C 281.979 195.692,284.350 196.189,286.800 197.398 C 289.864 198.910,294.920 199.875,305.718 201.010 C 310.490 201.511,311.784 201.797,313.800 202.797 C 316.296 204.036,319.575 204.963,323.000 205.400 C 330.921 206.410,333.444 207.252,334.237 209.151 C 334.955 210.868,336.197 212.266,337.700 213.048 C 339.349 213.906,339.320 218.916,337.643 223.032 C 336.043 226.959,334.995 232.104,333.984 241.000 C 333.097 248.802,333.044 249.015,331.378 251.470 C 330.840 252.263,330.400 253.182,330.400 253.513 C 330.400 254.184,326.938 258.400,326.387 258.400 C 326.193 258.400,325.082 258.967,323.918 259.660 C 321.213 261.269,316.250 261.349,313.800 259.823 C 311.375 258.312,303.446 256.634,294.000 255.632 C 289.588 255.164,287.437 254.629,284.304 253.219 C 281.625 252.014,276.233 250.922,270.400 250.405 C 263.269 249.773,260.617 249.301,259.075 248.391 C 256.444 246.839,251.253 245.689,242.000 244.610 C 234.241 243.705,232.315 243.304,229.503 242.005 C 226.389 240.566,223.249 239.926,212.600 238.558 C 205.424 237.637,204.022 237.344,202.978 236.552 C 202.307 236.042,201.053 235.331,200.192 234.971 C 192.385 231.709,189.721 225.295,192.977 217.600 C 195.011 212.791,195.260 211.828,196.227 205.003 C 198.457 189.261,198.179 190.541,199.744 188.809 C 200.526 187.944,201.531 186.520,201.977 185.645 C 203.632 182.401,207.673 181.938,221.000 183.466 M113.200 205.839 C 110.863 206.280,106.326 206.391,92.681 206.343 L 75.162 206.280 73.790 207.609 C 72.023 209.322,70.652 213.250,70.972 215.683 C 71.096 216.627,71.385 220.640,71.614 224.600 C 71.844 228.560,72.206 233.240,72.419 235.000 C 72.632 236.760,73.067 242.880,73.386 248.600 C 73.874 257.376,74.127 259.593,75.005 262.800 C 76.996 270.074,78.782 278.212,78.791 280.052 C 78.806 283.112,80.303 290.769,81.232 292.542 C 83.015 295.941,84.110 299.521,84.629 303.647 C 85.176 307.995,85.744 309.570,88.565 314.551 C 89.297 315.843,90.120 317.913,90.394 319.151 C 91.318 323.331,92.017 325.066,93.246 326.235 C 94.639 327.559,95.483 329.003,96.388 331.610 C 97.049 333.515,101.229 339.145,104.397 342.396 C 105.656 343.689,107.500 344.920,110.034 346.157 C 112.105 347.169,114.340 348.356,115.000 348.796 C 116.188 349.587,116.887 349.595,184.200 349.591 C 256.279 349.588,254.877 349.622,258.383 347.809 C 259.011 347.484,261.928 346.677,264.863 346.017 C 272.039 344.401,272.968 344.075,274.761 342.541 C 275.608 341.815,277.735 340.507,279.487 339.632 C 281.533 338.612,283.061 337.533,283.759 336.618 C 284.357 335.834,285.511 334.851,286.323 334.434 C 288.196 333.473,294.006 327.151,295.187 324.791 C 295.679 323.806,296.963 322.095,298.039 320.989 C 299.706 319.277,300.177 318.416,301.214 315.189 C 301.884 313.105,303.040 310.500,303.783 309.400 C 304.526 308.300,305.332 306.648,305.575 305.729 C 306.810 301.042,307.349 273.287,306.254 270.668 C 305.716 269.379,303.510 267.200,302.744 267.200 C 302.526 267.200,301.327 266.733,300.078 266.161 C 297.138 264.817,292.029 263.748,287.000 263.424 C 280.678 263.018,275.173 261.841,272.051 260.227 C 270.092 259.213,263.826 258.005,258.262 257.567 C 251.367 257.024,248.281 256.358,244.707 254.639 C 242.108 253.389,240.978 253.126,234.983 252.379 C 222.136 250.779,219.072 250.199,216.291 248.844 C 213.364 247.419,209.988 246.698,203.000 246.008 C 197.453 245.461,195.472 244.734,192.835 242.280 C 191.826 241.341,189.967 239.859,188.703 238.987 C 186.667 237.580,186.201 236.981,184.588 233.699 C 182.214 228.869,181.836 228.625,177.978 229.437 C 173.890 230.296,143.828 230.728,138.090 230.009 C 130.315 229.035,127.322 227.589,125.752 224.047 C 125.227 222.863,124.155 221.183,123.370 220.315 C 121.378 218.109,120.442 215.667,120.018 211.570 C 119.578 207.322,118.310 205.030,116.514 205.236 C 116.341 205.256,114.850 205.527,113.200 205.839 M117.113 208.100 C 117.505 208.575,117.754 209.748,118.839 216.200 C 119.415 219.631,120.322 221.507,122.001 222.742 C 122.709 223.263,123.689 224.603,124.194 225.742 C 125.329 228.301,125.961 228.866,129.117 230.141 C 130.502 230.700,132.172 231.610,132.829 232.163 C 134.686 233.726,135.758 233.800,156.400 233.800 L 175.800 233.800 178.174 232.688 C 180.967 231.380,180.985 231.391,182.623 235.200 C 183.945 238.275,184.725 239.227,187.400 241.022 C 188.500 241.761,189.903 243.003,190.518 243.783 C 192.156 245.863,194.007 246.619,199.804 247.579 C 205.197 248.473,207.890 249.109,208.635 249.665 C 210.264 250.882,216.161 252.173,223.800 252.985 C 231.395 253.792,233.547 254.235,237.391 255.785 C 241.056 257.263,247.038 258.417,256.200 259.415 C 261.294 259.970,262.653 260.271,265.200 261.404 C 268.650 262.940,272.157 263.727,279.440 264.602 C 290.044 265.876,290.990 266.052,293.476 267.216 C 295.906 268.355,301.456 270.000,302.866 270.000 C 304.685 270.000,304.845 271.153,304.812 283.963 C 304.772 299.141,304.538 301.107,302.214 305.800 C 301.233 307.780,300.145 310.570,299.798 312.000 C 298.774 316.205,298.045 317.676,296.025 319.614 C 294.693 320.890,293.904 322.082,293.414 323.558 C 292.834 325.303,292.407 325.857,290.972 326.724 C 289.990 327.317,288.920 328.391,288.516 329.188 C 287.788 330.624,286.109 332.360,285.422 332.386 C 284.563 332.418,282.040 334.538,281.602 335.595 C 281.343 336.220,280.652 336.907,280.066 337.122 C 279.480 337.337,278.175 337.807,277.166 338.165 C 275.454 338.773,273.593 339.888,270.527 342.146 C 269.583 342.841,268.086 343.264,264.727 343.783 C 262.237 344.168,258.189 344.824,255.731 345.241 C 249.876 346.235,117.839 346.444,115.487 345.463 C 114.779 345.168,113.253 344.699,112.095 344.422 C 109.406 343.778,102.400 337.616,102.400 335.895 C 102.400 335.678,101.509 334.637,100.421 333.582 C 98.881 332.091,98.290 331.146,97.764 329.334 C 97.061 326.918,96.140 325.252,94.104 322.716 C 92.937 321.262,92.704 320.602,91.413 315.070 C 90.743 312.199,89.327 308.800,88.802 308.800 C 88.020 308.800,87.218 306.598,86.606 302.770 C 85.178 293.842,84.058 289.652,82.233 286.398 C 81.549 285.180,81.068 282.411,80.215 274.800 C 79.211 265.837,78.397 261.286,77.175 257.800 C 76.391 255.562,75.925 253.157,75.627 249.800 C 74.763 240.092,74.039 228.408,73.853 221.182 L 73.662 213.765 74.731 211.801 L 75.800 209.837 93.000 209.950 L 110.200 210.064 113.200 208.843 C 116.676 207.429,116.577 207.447,117.113 208.100 " stroke="none" fill="#848485" fill-rule="evenodd"></path></g></svg>