<?xml version="1.0" standalone="no"?>
<!DOCTYPE svg PUBLIC "-//W3C//DTD SVG 20010904//EN"
 "http://www.w3.org/TR/2001/REC-SVG-20010904/DTD/svg10.dtd">
<svg version="1.0" xmlns="http://www.w3.org/2000/svg"
 width="1700.000000pt" height="1700.000000pt" viewBox="0 0 1700.000000 1700.000000"
 preserveAspectRatio="xMidYMid meet">
<metadata>
Created by potrace 1.16, written by Peter Selinger 2001-2019
</metadata>
<g transform="translate(0.000000,1700.000000) scale(0.100000,-0.100000)"
fill="#000000" stroke="none">
<path d="M0 8500 l0 -8500 8500 0 8500 0 0 8500 0 8500 -8500 0 -8500 0 0
-8500z m4664 7626 c44 -18 66 -52 66 -101 0 -71 -53 -115 -140 -115 l-40 0 0
-60 0 -60 -30 0 -30 0 0 175 0 175 70 0 c39 0 86 -6 104 -14z m340 -153 c36
-93 66 -172 66 -176 0 -5 -14 -7 -31 -5 -33 3 -42 12 -59 61 -9 26 -13 27 -75
27 l-66 0 -19 -45 c-17 -39 -23 -45 -50 -45 -16 0 -30 4 -30 10 0 5 26 76 58
157 33 82 62 156 65 166 4 12 17 17 41 17 l35 0 65 -167z m293 156 c52 -19 73
-48 73 -99 0 -26 -7 -55 -16 -69 -21 -30 -72 -51 -124 -51 l-40 0 0 -60 0 -60
-30 0 -30 0 0 175 0 175 69 0 c38 0 82 -5 98 -11z m363 -19 l0 -30 -75 0 -75
0 0 -45 0 -45 60 0 c57 0 60 -1 60 -25 0 -24 -3 -25 -60 -25 l-60 0 0 -45 0
-45 75 0 75 0 0 -30 0 -30 -110 0 -110 0 0 175 0 175 110 0 110 0 0 -30z m242
20 c47 -13 68 -43 68 -96 0 -34 -6 -48 -29 -70 l-29 -27 39 -59 c57 -84 58
-88 15 -88 -33 0 -39 5 -78 65 -66 99 -88 99 -88 -1 l0 -65 -32 3 -33 3 -3
160 c-1 87 0 165 2 172 7 16 114 18 168 3z m3236 -6 c68 -27 84 -104 32 -156
-16 -16 -30 -31 -30 -33 0 -2 20 -33 45 -68 25 -36 45 -68 45 -71 0 -3 -16 -6
-35 -6 -31 0 -40 6 -68 47 -39 57 -72 93 -87 93 -6 0 -10 -28 -10 -70 l0 -70
-35 0 -35 0 0 175 0 175 70 0 c40 0 86 -7 108 -16z m379 0 c54 -26 86 -76 91
-144 8 -111 -53 -182 -162 -188 -80 -4 -131 24 -163 88 -63 123 17 259 150
260 27 0 65 -7 84 -16z m401 -4 c36 -22 39 -32 16 -51 -12 -10 -22 -10 -48 -1
-53 19 -85 15 -117 -17 -25 -26 -29 -37 -29 -86 0 -49 4 -60 29 -86 34 -34 91
-40 129 -13 21 15 25 15 43 -2 15 -13 16 -20 7 -31 -25 -31 -70 -45 -128 -41
-100 7 -150 65 -150 173 0 71 27 124 79 153 48 28 124 29 169 2z m172 -50 c0
-53 3 -70 14 -70 8 0 39 32 70 70 51 62 61 70 91 70 19 0 35 -3 35 -7 0 -3
-27 -40 -61 -80 l-60 -74 65 -88 c36 -49 66 -91 66 -95 0 -3 -16 -6 -35 -6
-32 0 -40 7 -92 74 -32 41 -66 75 -75 75 -16 1 -18 -9 -18 -74 l0 -75 -35 0
-35 0 0 175 0 175 35 0 35 0 0 -70z m3230 55 c34 -18 36 -23 16 -51 -13 -16
-18 -17 -35 -6 -30 18 -90 16 -98 -4 -10 -26 10 -47 62 -66 80 -29 103 -64 83
-135 -17 -63 -104 -92 -182 -59 -44 18 -52 33 -31 56 16 18 20 18 47 4 36 -19
87 -15 102 9 16 26 -2 47 -60 68 -67 25 -89 50 -89 101 0 57 47 98 111 98 25
0 58 -7 74 -15z m352 -9 c23 -15 25 -20 15 -37 -9 -15 -19 -19 -37 -14 -93 23
-123 18 -150 -28 -35 -56 -19 -151 29 -177 29 -15 84 -12 110 6 21 15 24 15
43 -4 24 -24 20 -34 -26 -56 -107 -51 -231 14 -243 127 -11 92 23 162 92 193
40 19 132 13 167 -10z m158 -152 l0 -175 -32 3 -33 3 -3 160 c-1 87 0 165 2
172 3 7 19 13 36 13 l30 0 0 -176z m270 159 c25 -14 27 -19 17 -40 -8 -19 -16
-23 -31 -18 -12 4 -38 9 -58 12 -30 4 -39 1 -45 -12 -10 -27 10 -48 63 -68 63
-23 84 -48 84 -101 -1 -68 -45 -106 -122 -106 -41 0 -108 30 -108 47 0 5 7 16
14 26 13 17 16 17 45 3 47 -25 89 -21 103 9 15 33 0 49 -57 65 -95 27 -122
112 -55 173 36 32 105 37 150 10z m280 2 c34 -18 36 -23 16 -51 -13 -16 -18
-17 -35 -6 -30 18 -90 16 -98 -4 -10 -26 10 -48 63 -67 70 -26 84 -42 84 -94
0 -24 -5 -53 -10 -64 -25 -45 -109 -62 -174 -35 -44 18 -52 33 -31 56 16 18
20 18 47 4 36 -19 87 -15 102 9 16 26 -2 47 -60 68 -67 25 -89 50 -89 101 0
57 47 98 111 98 25 0 58 -7 74 -15z m346 -4 c59 -27 89 -79 89 -156 0 -114
-73 -181 -187 -173 -62 5 -96 23 -132 71 -24 32 -33 121 -17 169 30 92 147
134 247 89z m341 4 c47 -20 62 -41 63 -88 0 -30 -7 -45 -31 -69 l-30 -31 45
-68 c25 -38 46 -71 46 -74 0 -4 -17 -5 -37 -3 -33 3 -42 10 -83 68 -26 36 -54
66 -63 68 -15 3 -17 -6 -17 -67 l0 -71 -35 0 -35 0 0 175 0 175 70 0 c40 0 86
-6 107 -15z m323 0 c34 -18 36 -23 16 -51 -13 -16 -18 -17 -35 -6 -30 18 -90
16 -98 -4 -10 -26 10 -47 62 -66 80 -29 103 -64 83 -135 -17 -63 -104 -92
-182 -59 -44 18 -52 33 -31 56 16 18 20 18 47 4 36 -19 87 -15 102 9 16 26 -2
47 -60 68 -67 25 -89 50 -89 101 0 57 47 98 111 98 25 0 58 -7 74 -15z m-9200
-1250 l0 -625 -43 0 -44 0 -6 -212 c-4 -116 -7 -297 -7 -402 0 -177 2 -193 21
-216 94 -115 162 -256 202 -419 20 -84 21 -111 24 -1145 3 -743 1 -1074 -7
-1110 -38 -180 -250 -226 -355 -77 l-30 43 -3 504 -3 504 -44 0 -45 0 0 -730
c0 -790 2 -761 -55 -828 -44 -52 -99 -76 -175 -76 -105 0 -191 60 -219 153 -8
27 -11 248 -11 760 l0 721 -45 0 -45 0 0 -723 0 -723 -26 -52 c-43 -87 -134
-142 -233 -142 -53 0 -132 41 -174 91 -68 79 -67 63 -67 846 l0 703 -45 0 -45
0 0 -592 -1 -593 -23 -45 c-55 -108 -193 -155 -301 -102 -43 21 -83 61 -108
107 l-22 40 -3 892 -2 891 322 4 323 3 88 32 c106 37 180 81 258 151 l58 53
-31 28 -32 28 -63 -53 c-64 -55 -151 -104 -232 -132 -37 -12 -117 -16 -402
-21 l-356 -6 -129 -123 c-154 -147 -227 -189 -340 -199 -184 -15 -380 101
-359 213 4 26 64 97 267 316 143 156 333 362 421 458 88 96 205 220 259 276
l98 101 0 190 c0 104 -3 285 -7 401 l-6 212 -44 0 -43 0 0 625 0 625 945 0
945 0 0 -625z m4418 3 l-3 -623 -47 -3 -48 -3 -2 -257 c-5 -472 -6 -450 20
-467 12 -9 22 -20 22 -24 0 -4 21 -29 46 -57 136 -145 252 -376 290 -572 14
-74 21 -502 8 -502 -4 0 -22 14 -42 31 -63 56 -116 73 -222 74 -84 0 -102 -3
-151 -28 -32 -15 -79 -51 -107 -81 l-52 -54 -32 56 c-42 75 -138 169 -213 209
-103 54 -158 63 -394 63 -116 0 -211 3 -211 8 0 4 19 20 41 35 56 41 132 135
168 210 44 92 61 175 61 305 l0 112 -45 0 -45 0 0 -113 c0 -120 -15 -197 -51
-270 -78 -155 -226 -257 -406 -282 l-53 -7 0 -44 0 -44 378 0 c312 0 387 -3
430 -15 196 -59 322 -234 322 -450 0 -89 -9 -109 -53 -120 -12 -3 -353 -4
-757 -3 l-735 3 -72 26 c-175 64 -307 214 -344 389 -20 95 -6 305 30 440 73
280 187 466 415 677 l56 52 0 139 c0 76 -3 234 -7 350 l-6 212 -44 0 -43 0 0
625 0 625 950 0 950 0 -2 -622z m4632 -8 l0 -630 -43 0 -44 0 -6 -212 c-4
-116 -7 -294 -7 -395 l0 -184 51 -85 c57 -94 100 -197 131 -313 16 -60 22
-118 25 -269 l5 -192 -52 35 c-112 75 -237 84 -347 26 -33 -18 -75 -48 -93
-66 l-33 -34 -34 57 c-47 78 -105 135 -176 173 -85 45 -147 59 -266 59 l-105
0 67 64 c114 112 167 251 167 444 l0 82 -45 0 -45 0 0 -98 c0 -168 -46 -281
-152 -377 -63 -57 -139 -94 -222 -108 l-66 -11 0 -42 0 -43 273 -3 272 -3 59
-29 c119 -59 203 -181 214 -311 5 -63 4 -65 -31 -100 l-36 -36 -523 3 -523 3
-60 24 c-161 64 -271 180 -325 341 -18 51 -22 88 -22 172 1 192 48 367 144
534 l51 89 -7 406 -6 407 172 7 c95 3 480 5 856 3 375 -2 678 -1 672 0 -5 2
-10 7 -10 11 0 12 43 6 48 -7 2 -7 14 -12 28 -12 l23 0 1 611 c0 336 3 615 6
620 3 5 0 9 -5 9 -8 0 -12 -188 -13 -607 l-3 -608 -2 608 -3 607 -925 0 -925
0 0 -620 c1 -541 2 -618 15 -614 8 4 15 10 15 14 0 6 17 7 54 1 5 0 3 -8 -4
-16 -7 -9 -27 -14 -51 -13 l-38 1 -1 629 0 628 950 0 950 0 0 -630z m-12950
-73 c0 -30 -6 -62 -15 -74 -8 -11 -147 -125 -310 -252 -162 -128 -295 -233
-295 -234 0 -1 138 -2 307 -2 l308 0 0 -75 0 -75 -452 -3 -453 -2 0 64 0 64
53 45 c28 24 167 133 307 243 l254 199 -307 3 -307 2 0 75 0 75 455 0 455 0 0
-53z m0 -1062 l0 -85 -455 0 -455 0 0 85 0 85 455 0 455 0 0 -85z m-500 -380
c206 -64 403 -125 438 -136 l62 -21 0 -74 0 -75 -32 -13 c-18 -7 -167 -56
-331 -107 l-297 -94 330 -108 330 -108 0 -75 c0 -73 -1 -76 -27 -86 -16 -6
-219 -70 -453 -142 l-425 -132 -3 85 c-2 71 0 87 15 101 17 16 575 179 618
181 24 1 53 -10 -310 109 -154 50 -290 98 -302 106 -20 12 -23 23 -23 73 0 35
5 63 13 69 6 5 149 55 317 110 168 55 298 103 290 105 -8 3 -145 42 -305 87
-159 45 -295 86 -302 92 -9 7 -13 39 -13 95 0 76 2 84 18 79 9 -3 186 -57 392
-121z m13415 -774 c22 -10 56 -33 74 -52 67 -66 71 -86 71 -354 0 -268 -4
-288 -71 -354 -48 -48 -103 -71 -175 -71 -104 0 -189 57 -230 155 -11 27 -14
87 -14 273 0 235 0 239 25 289 27 53 70 93 127 118 47 20 145 18 193 -4z
m-1752 -309 c30 -18 88 -45 129 -60 70 -25 82 -26 335 -30 l262 -4 3 -261 c3
-249 4 -265 26 -312 13 -27 36 -66 51 -85 22 -28 31 -53 39 -115 6 -44 43
-306 82 -582 61 -436 69 -509 60 -545 -29 -105 -121 -178 -226 -178 -80 0
-172 58 -207 132 -10 21 -58 324 -126 794 -61 417 -113 769 -116 781 -7 28
-51 42 -70 22 -9 -9 -54 -291 -125 -784 -73 -501 -118 -784 -129 -811 -50
-113 -193 -167 -307 -115 -52 24 -108 90 -125 148 -14 53 -15 52 112 953 103
727 109 784 116 1037 l6 211 77 -81 c43 -45 103 -97 133 -115z m-2708 94 c52
-24 101 -72 132 -129 16 -28 18 -67 21 -308 l3 -275 -33 -65 c-53 -102 -153
-157 -264 -146 -63 6 -107 28 -157 76 -80 75 -82 83 -85 379 -4 296 1 327 63
400 77 89 212 119 320 68z m4023 -428 c-3 -258 -4 -275 -25 -314 -53 -100
-166 -156 -270 -135 -70 14 -136 60 -170 119 l-28 47 -3 263 -3 262 213 0
c159 1 221 4 243 15 17 7 34 14 38 14 5 1 7 -122 5 -271z m-6192 -9 c79 -36
188 -58 287 -59 l68 0 -3 -322 c-4 -345 -5 -353 -58 -421 -54 -68 -166 -102
-257 -76 -62 17 -143 96 -161 155 -8 29 -12 153 -12 423 l0 382 33 -25 c18
-14 65 -40 103 -57z m1678 -721 c-8 -26 -35 -69 -59 -96 -138 -153 -381 -119
-472 66 l-28 57 -3 318 -3 317 263 1 c145 1 274 4 288 8 l25 7 3 -315 c2 -266
0 -322 -14 -363z m-654 354 c0 -349 -3 -369 -71 -446 -57 -64 -130 -98 -217
-98 -121 -1 -219 61 -271 172 -26 55 -26 55 -29 368 l-3 312 295 0 296 0 0
-308z m-3930 -2807 l0 -724 85 -3 84 -3 -132 -227 c-101 -176 -134 -225 -143
-215 -13 14 -254 433 -254 441 0 4 36 6 80 6 l80 0 0 725 0 725 100 0 100 0 0
-725z m4510 0 l0 -725 85 0 c47 0 85 -3 85 -6 0 -8 -241 -427 -255 -442 -9
-10 -39 35 -143 215 l-131 228 85 3 84 3 0 724 0 725 95 0 95 0 0 -725z m4520
0 l0 -724 85 -3 84 -3 -132 -227 c-100 -174 -134 -225 -143 -215 -13 15 -254
432 -254 441 0 3 36 6 80 6 l80 0 0 725 0 725 100 0 100 0 0 -725z m-5206 695
c57 -21 81 -105 51 -175 -17 -41 -41 -54 -62 -33 -13 14 -13 19 1 46 25 49 20
93 -14 104 -26 9 -47 -10 -60 -57 -27 -95 -110 -127 -171 -66 -25 25 -29 37
-29 83 0 32 6 62 16 76 18 26 24 27 48 9 17 -13 17 -15 2 -46 -19 -35 -14 -66
13 -80 25 -14 37 -2 61 62 30 81 74 104 144 77z m-4481 -100 c22 -25 27 -40
27 -83 0 -69 -30 -123 -60 -107 -24 13 -25 27 -4 70 22 44 10 84 -28 88 -21 3
-30 -3 -42 -27 -9 -16 -16 -37 -16 -45 0 -8 -12 -28 -26 -45 -21 -25 -33 -31
-66 -31 -50 0 -74 13 -93 50 -19 38 -19 83 1 126 18 38 22 40 49 20 17 -12 18
-17 7 -40 -16 -36 -15 -71 3 -86 24 -20 43 -4 74 65 19 41 38 69 53 75 39 16
90 4 121 -30z m4257 -210 l0 -49 143 -3 142 -3 3 -32 3 -33 -145 0 -146 0 0
-50 c0 -49 -1 -50 -30 -50 l-30 0 0 135 0 135 30 0 c29 0 30 -1 30 -50z
m-4388 -59 c27 -24 32 -36 36 -90 l4 -61 59 0 59 0 0 -35 0 -35 -170 0 -170 0
0 85 c0 127 24 164 107 165 33 0 50 -6 75 -29z m8900 -113 l3 -53 143 -3 142
-3 0 -29 0 -29 -142 -3 -143 -3 -3 -52 c-3 -49 -5 -53 -28 -53 l-24 0 0 140 0
140 24 0 c23 0 25 -4 28 -52z m-4222 -137 c0 -25 -10 -35 -132 -129 l-101 -77
117 -3 116 -3 0 -29 0 -30 -175 0 -175 0 0 28 c1 22 19 41 111 112 l110 85
-111 3 -110 3 0 29 0 30 175 0 c166 0 175 -1 175 -19z m-4520 -55 c0 -30 -4
-36 -40 -50 l-40 -16 0 -68 0 -69 40 -16 c36 -14 40 -19 40 -50 l0 -35 -170
67 -171 66 3 38 3 38 160 64 c88 35 163 64 168 64 4 1 7 -14 7 -33z m8970
-112 c42 -25 60 -64 60 -129 0 -53 -3 -60 -39 -96 l-39 -39 -131 0 -131 0 0
35 0 35 118 0 c140 0 162 9 162 69 0 65 -22 75 -161 80 l-119 3 0 29 0 29 126
0 c99 0 132 -4 154 -16z m-4512 -214 c80 -49 83 -179 6 -239 -24 -19 -40 -21
-160 -21 l-134 0 0 30 0 30 104 0 c56 0 117 5 135 11 53 19 66 67 30 113 -20
26 -22 26 -145 26 l-124 0 0 35 0 35 128 0 c110 0 131 -3 160 -20z m-4458 -29
c0 -37 -3 -41 -65 -81 -42 -27 -65 -49 -65 -61 0 -17 8 -19 65 -19 l65 0 0
-35 0 -35 -171 0 -171 0 4 95 c4 110 18 133 86 142 37 5 45 2 76 -29 l34 -34
68 48 c37 26 69 48 71 48 2 0 3 -17 3 -39z m9009 -115 c30 -48 29 -141 -1
-186 -36 -53 -81 -72 -160 -68 -80 4 -113 24 -145 88 -27 53 -29 103 -5 149
20 41 31 46 56 28 17 -13 17 -15 2 -45 -45 -86 16 -161 120 -149 63 7 97 41
97 97 0 23 -5 46 -12 53 -14 14 -14 40 1 55 18 18 24 15 47 -22z m-4491 -273
l3 -103 -176 0 -175 0 0 35 0 35 145 0 145 0 0 71 0 70 28 -3 27 -3 3 -102z
m-4646 31 l128 -39 0 -32 c0 -31 0 -31 -117 -71 l-118 -39 118 -39 c116 -38
117 -39 117 -69 l0 -32 -152 -47 c-84 -26 -161 -50 -171 -53 -16 -4 -18 1 -15
34 l3 38 95 27 c52 16 102 31 110 34 8 3 -35 22 -95 42 -106 36 -110 38 -113
67 -3 31 -3 31 103 65 58 19 105 37 105 40 0 3 -46 19 -102 36 l-103 29 -3 37
-3 37 43 -13 c24 -7 100 -30 170 -52z m4594 -226 c33 -16 47 -55 52 -150 l4
-88 -176 0 -176 0 0 80 c0 47 6 95 14 114 25 60 104 69 142 18 10 -14 13 -13
23 7 21 39 63 46 117 19z m4519 -953 c53 -31 90 -82 104 -145 7 -28 11 -306
11 -752 l0 -708 40 0 39 0 3 723 c3 708 3 723 24 767 93 201 363 198 455 -4
17 -39 19 -83 19 -763 l0 -723 45 0 45 0 0 571 c0 405 3 584 12 617 17 66 95
144 162 161 56 14 114 7 166 -19 46 -24 74 -55 99 -110 20 -44 21 -61 21 -932
l0 -888 -289 0 c-314 0 -377 -7 -493 -56 -77 -32 -148 -78 -213 -138 l-50 -46
35 -29 34 -29 56 51 c69 64 152 109 250 136 68 19 102 21 403 21 l328 0 52 47
c29 26 88 82 132 124 89 85 144 120 224 143 138 40 304 -2 399 -101 26 -28 32
-42 32 -79 0 -39 -6 -51 -43 -92 -24 -26 -126 -137 -227 -247 -102 -110 -205
-222 -231 -250 -226 -246 -427 -460 -478 -510 l-61 -59 0 -197 c0 -107 3 -291
7 -407 l6 -212 44 0 43 0 0 -625 0 -625 -950 0 -950 0 0 625 0 625 43 0 44 0
6 212 c4 116 7 298 7 404 l0 194 -49 67 c-83 114 -143 251 -173 396 -10 49
-13 301 -13 1164 l0 1101 30 44 c85 122 256 116 334 -13 20 -33 21 -46 21
-536 l0 -503 45 0 44 0 3 733 3 732 24 48 c57 117 210 161 326 92z m-4231 3
c54 -16 131 -93 145 -144 6 -22 60 -381 121 -799 115 -792 115 -791 159 -783
9 2 21 14 28 28 7 14 62 368 123 788 118 817 116 810 184 869 46 41 95 56 171
51 105 -6 184 -77 204 -180 9 -53 6 -79 -119 -968 -91 -650 -106 -786 -116
-1037 l-7 -181 -37 47 c-78 99 -178 169 -300 212 -60 21 -86 23 -332 27 l-268
4 0 252 c0 284 -5 314 -65 398 l-38 52 -78 560 c-44 308 -79 576 -79 595 0 20
11 59 24 87 50 108 163 157 280 122z m-4744 -929 c54 -24 114 -80 143 -134 21
-38 22 -54 25 -367 l3 -328 -259 0 c-143 0 -274 -3 -291 -6 l-32 -7 3 329 3
329 27 51 c74 141 233 197 378 133z m687 -5 c59 -29 107 -78 137 -143 20 -43
21 -65 24 -363 l3 -318 -295 0 -296 0 0 303 c0 175 4 317 10 339 15 54 69 128
117 162 87 60 201 68 300 20z m616 -27 c44 -26 87 -79 106 -130 14 -36 15
-797 2 -797 -6 0 -12 4 -16 9 -10 18 -100 63 -175 88 -53 18 -105 27 -177 31
l-103 5 0 321 0 322 26 52 c45 91 125 135 231 128 43 -2 75 -11 106 -29z
m-1982 -382 c59 -20 112 -65 147 -123 l27 -47 3 -274 c4 -309 0 -330 -67 -404
-123 -137 -346 -109 -437 55 l-29 53 -3 245 c-3 158 0 263 8 297 35 158 198
250 351 198z m5155 -53 c50 -26 98 -77 121 -127 15 -34 18 -77 21 -292 l4
-253 -217 0 c-166 0 -224 -3 -250 -14 l-35 -15 0 267 c0 260 1 268 24 318 57
123 213 177 332 116z m-589 -263 c56 -27 117 -97 132 -152 9 -29 11 -115 9
-272 -3 -214 -5 -233 -25 -271 -105 -196 -395 -169 -459 42 -20 68 -20 431 1
501 17 59 72 123 130 152 55 29 153 29 212 0z m-7419 -201 l2 -198 120 0 120
0 0 155 0 155 70 0 70 0 0 -155 0 -155 125 0 125 0 0 200 0 201 68 -3 67 -3 3
-287 2 -288 -455 0 -455 0 0 290 0 291 68 -3 67 -3 3 -197z m4691 -3 c174 -41
317 -172 379 -349 22 -62 25 -87 25 -196 -3 -348 -143 -671 -405 -930 l-106
-105 5 -347 6 -347 46 -3 46 -3 3 -622 2 -623 -955 0 -955 0 2 623 3 622 46 3
46 3 6 211 c4 116 7 273 7 348 0 136 0 138 -29 174 -16 20 -38 44 -49 54 -62
54 -181 240 -237 370 -68 157 -77 209 -83 487 l-4 249 38 -33 c21 -19 63 -46
94 -60 47 -22 68 -26 145 -26 77 1 98 5 145 28 51 24 150 109 150 129 0 22 18
3 43 -46 38 -73 136 -168 217 -210 110 -58 157 -66 400 -66 l215 0 -35 -27
c-104 -78 -187 -198 -225 -323 -10 -33 -19 -108 -22 -187 l-6 -133 47 0 46 0
0 108 c0 174 39 287 136 392 90 96 197 151 329 166 l56 7 -3 41 -3 41 -400 5
-400 5 -68 32 c-46 22 -89 53 -131 95 -94 95 -136 201 -136 345 0 55 4 71 22
90 l21 23 731 0 c617 0 741 -3 795 -15z m4086 -310 c186 -49 337 -203 381
-391 12 -53 15 -96 10 -184 -9 -184 -55 -337 -151 -501 l-45 -79 0 -182 c0
-101 3 -281 7 -400 l6 -218 44 0 43 0 0 -630 0 -630 -945 0 -945 0 0 630 0
630 43 0 44 0 6 218 c4 119 7 297 7 394 l0 177 -40 62 c-71 111 -125 243 -156
384 -17 77 -32 415 -19 415 5 0 18 -9 29 -19 12 -11 46 -32 76 -47 47 -24 67
-28 140 -29 102 0 155 20 229 90 l49 46 31 -55 c17 -30 58 -79 91 -109 100
-93 198 -127 364 -127 l94 0 -68 -68 c-115 -115 -160 -231 -160 -415 l0 -108
43 3 42 3 6 125 c6 137 22 192 77 273 64 92 178 162 294 181 l68 10 0 43 0 42
-273 3 -273 3 -65 32 c-123 61 -200 176 -207 309 -4 68 -3 72 28 102 l32 32
502 0 c418 0 512 -3 561 -15z m-8167 -295 c66 -28 125 -94 148 -163 39 -116
13 -279 -62 -380 -38 -53 -41 -53 -111 0 -36 26 -41 47 -18 80 40 58 65 123
65 172 0 100 -40 151 -119 151 -67 0 -93 -30 -136 -160 -47 -143 -78 -190
-146 -224 -141 -70 -314 4 -365 156 -25 78 -16 218 19 289 15 31 36 64 46 73
19 17 22 17 62 -5 65 -37 68 -47 31 -126 -37 -80 -41 -140 -14 -193 21 -43 62
-64 107 -56 44 9 69 44 104 148 56 163 98 225 177 254 53 19 146 12 212 -16z
m-179 -735 c188 -45 314 -184 341 -376 27 -193 -48 -364 -200 -461 -141 -89
-365 -92 -512 -5 -55 32 -129 111 -159 168 -75 147 -65 353 23 492 97 153 309
228 507 182z m339 -1267 l2 -268 -455 0 -455 0 0 85 0 85 380 0 380 0 0 185 0
186 73 -3 72 -3 3 -267z m2456 -1222 c71 -30 88 -105 36 -158 -16 -16 -30 -31
-30 -34 0 -2 20 -33 45 -68 25 -36 45 -67 45 -70 0 -3 -16 -6 -35 -6 -31 0
-40 6 -68 47 -39 57 -72 93 -87 93 -6 0 -10 -28 -10 -70 l0 -70 -35 0 -35 0 0
175 0 175 70 0 c39 0 86 -6 104 -14z m383 -2 c54 -26 86 -76 91 -144 8 -111
-53 -182 -162 -188 -80 -4 -131 24 -163 88 -63 123 17 259 150 260 27 0 65 -7
84 -16z m401 -4 c35 -22 37 -36 9 -54 -12 -8 -22 -7 -37 2 -36 22 -89 15 -121
-17 -25 -26 -29 -37 -29 -86 0 -49 4 -60 29 -86 34 -34 91 -40 129 -13 21 15
25 15 43 -2 15 -13 16 -20 7 -31 -25 -31 -70 -45 -128 -41 -100 7 -150 65
-150 173 0 71 27 124 79 153 48 28 124 29 169 2z m172 -50 c0 -53 3 -70 14
-70 8 0 39 32 70 70 51 62 61 70 91 70 19 0 35 -3 35 -7 0 -3 -27 -40 -61 -80
l-60 -74 65 -88 c36 -49 66 -91 66 -95 0 -3 -16 -6 -35 -6 -32 0 -40 7 -92 74
-32 41 -66 75 -75 75 -16 1 -18 -9 -18 -74 l0 -75 -35 0 -35 0 0 175 0 175 35
0 35 0 0 -70z m2960 55 c34 -18 36 -23 16 -51 -13 -16 -18 -17 -35 -6 -30 18
-90 16 -98 -4 -10 -26 10 -48 63 -67 81 -31 102 -63 82 -134 -17 -63 -104 -92
-182 -59 -44 18 -52 33 -31 56 16 18 20 18 47 4 36 -19 87 -15 102 8 16 27 -2
48 -60 69 -67 25 -89 50 -89 101 0 57 47 98 111 98 25 0 58 -7 74 -15z m352
-9 c23 -15 25 -20 15 -37 -9 -15 -19 -19 -37 -14 -93 23 -123 18 -150 -28 -35
-56 -19 -151 29 -177 28 -14 77 -12 110 5 26 13 30 13 46 -5 21 -23 15 -33
-29 -54 -107 -51 -231 14 -243 127 -11 92 23 162 92 193 40 19 132 13 167 -10z
m158 -152 l0 -175 -32 3 -33 3 -3 160 c-1 87 0 165 2 172 3 7 19 13 36 13 l30
0 0 -176z m270 159 c25 -14 27 -19 17 -40 -8 -19 -16 -23 -31 -18 -12 4 -38 9
-58 12 -30 4 -39 1 -45 -12 -10 -27 10 -48 63 -68 63 -23 84 -48 84 -101 -1
-90 -97 -135 -189 -88 -41 20 -45 30 -27 55 13 17 16 17 45 3 47 -25 89 -21
103 9 15 33 0 49 -57 65 -93 26 -122 105 -61 166 29 29 41 34 81 34 26 0 60
-7 75 -17z m280 2 c34 -18 36 -23 16 -51 -13 -16 -18 -17 -35 -6 -30 18 -90
16 -98 -4 -10 -26 10 -48 63 -67 70 -26 84 -42 84 -94 0 -24 -5 -53 -10 -64
-25 -45 -109 -62 -174 -35 -44 18 -52 33 -31 56 16 18 20 18 47 4 36 -19 87
-15 102 8 16 27 -2 48 -60 69 -67 25 -89 50 -89 101 0 57 47 98 111 98 25 0
58 -7 74 -15z m346 -4 c59 -27 89 -79 89 -156 0 -114 -73 -181 -187 -173 -62
5 -96 23 -132 71 -24 32 -33 121 -17 169 30 92 147 134 247 89z m323 13 c81
-16 109 -108 50 -166 l-30 -31 45 -68 c25 -38 46 -71 46 -74 0 -4 -17 -5 -37
-3 -33 3 -42 10 -83 68 -26 36 -54 66 -63 68 -15 3 -17 -6 -17 -67 l0 -71 -35
0 -35 0 0 175 0 175 64 0 c35 0 77 -3 95 -6z m341 -9 c34 -18 36 -23 16 -51
-13 -16 -18 -17 -35 -6 -30 18 -90 16 -98 -4 -10 -26 10 -48 63 -67 81 -31
102 -63 82 -134 -17 -63 -104 -92 -182 -59 -44 18 -52 33 -31 56 16 18 20 18
47 4 36 -19 87 -15 102 8 16 27 -2 48 -60 69 -67 25 -89 50 -89 101 0 57 47
98 111 98 25 0 58 -7 74 -15z m2984 1 c44 -18 66 -52 66 -101 0 -71 -53 -115
-140 -115 l-40 0 0 -60 0 -60 -30 0 -30 0 0 175 0 175 70 0 c39 0 86 -6 104
-14z m340 -154 c36 -92 66 -171 66 -176 0 -4 -14 -6 -31 -4 -33 3 -42 12 -59
61 -9 26 -13 27 -74 27 l-65 0 -20 -45 c-17 -39 -24 -45 -50 -45 -17 0 -31 4
-31 9 0 5 24 72 54 148 30 76 59 150 65 166 9 22 17 27 45 27 l34 0 66 -168z
m293 157 c52 -19 73 -48 73 -99 0 -26 -7 -55 -16 -69 -21 -30 -72 -51 -124
-51 l-40 0 0 -60 0 -60 -30 0 -30 0 0 175 0 175 69 0 c38 0 82 -5 98 -11z
m363 -19 l0 -30 -75 0 -75 0 0 -45 0 -45 60 0 c57 0 60 -1 60 -25 0 -24 -3
-25 -60 -25 l-60 0 0 -45 0 -45 75 0 75 0 0 -30 0 -30 -110 0 -110 0 0 175 0
175 110 0 110 0 0 -30z m242 20 c47 -13 68 -43 68 -96 0 -34 -6 -48 -29 -70
l-29 -27 39 -59 c57 -84 58 -88 15 -88 -33 0 -39 5 -78 65 -66 99 -88 99 -88
-1 l0 -65 -32 3 -33 3 -3 160 c-1 87 0 165 2 172 7 16 114 18 168 3z"/>
<path d="M9383 16068 c-12 -6 -29 -25 -37 -43 -51 -106 33 -205 138 -165 69
26 74 174 7 210 -25 13 -79 12 -108 -2z"/>
<path d="M14587 16069 c-44 -26 -60 -114 -32 -170 29 -56 106 -66 157 -20 29
26 32 34 32 86 0 52 -3 60 -32 86 -34 31 -89 39 -125 18z"/>
<path d="M8710 2151 l0 -600 53 -4 52 -3 -53 -2 c-38 -1 -52 -6 -50 -14 4 -10
198 -13 929 -13 l924 0 -925 5 -925 5 922 3 c507 1 923 5 925 10 2 4 2 278 0
610 l-2 602 -925 0 -925 0 0 -599z"/>
<path d="M1705 3500 c-121 -40 -185 -127 -185 -254 0 -100 16 -143 76 -203 62
-63 130 -87 244 -85 182 1 302 106 304 265 2 128 -54 223 -156 267 -75 32
-202 37 -283 10z"/>
<path d="M4993 1138 c-12 -6 -29 -25 -37 -43 -51 -106 33 -205 138 -165 69 26
74 174 7 210 -25 13 -79 12 -108 -2z"/>
<path d="M9933 1140 c-48 -19 -68 -112 -38 -171 29 -56 106 -66 157 -20 29 26
32 34 32 86 0 52 -3 60 -32 86 -34 30 -75 37 -119 19z"/>
</g>
</svg>
