<svg id="visual" viewBox="0 0 1519 320" width="1519" height="320" xmlns="http://www.w3.org/2000/svg" xmlns:xlink="http://www.w3.org/1999/xlink" version="1.1"><rect x="0" y="0" width="1519" height="320" fill="#100e11"></rect><path d="M0 159L80 159L80 166L160 166L160 100L240 100L240 101L320 101L320 173L400 173L400 102L480 102L480 173L560 173L560 143L640 143L640 124L720 124L720 123L799 123L799 121L879 121L879 119L959 119L959 141L1039 141L1039 161L1119 161L1119 175L1199 175L1199 108L1279 108L1279 141L1359 141L1359 138L1439 138L1439 163L1519 163L1519 146L1519 321L1519 321L1439 321L1439 321L1359 321L1359 321L1279 321L1279 321L1199 321L1199 321L1119 321L1119 321L1039 321L1039 321L959 321L959 321L879 321L879 321L799 321L799 321L720 321L720 321L640 321L640 321L560 321L560 321L480 321L480 321L400 321L400 321L320 321L320 321L240 321L240 321L160 321L160 321L80 321L80 321L0 321Z" fill="#220238"></path><path d="M0 156L80 156L80 122L160 122L160 145L240 145L240 117L320 117L320 178L400 178L400 149L480 149L480 117L560 117L560 131L640 131L640 144L720 144L720 121L799 121L799 176L879 176L879 156L959 156L959 147L1039 147L1039 164L1119 164L1119 162L1199 162L1199 117L1279 117L1279 152L1359 152L1359 120L1439 120L1439 177L1519 177L1519 186L1519 321L1519 321L1439 321L1439 321L1359 321L1359 321L1279 321L1279 321L1199 321L1199 321L1119 321L1119 321L1039 321L1039 321L959 321L959 321L879 321L879 321L799 321L799 321L720 321L720 321L640 321L640 321L560 321L560 321L480 321L480 321L400 321L400 321L320 321L320 321L240 321L240 321L160 321L160 321L80 321L80 321L0 321Z" fill="#27053e"></path><path d="M0 192L80 192L80 162L160 162L160 192L240 192L240 137L320 137L320 203L400 203L400 188L480 188L480 129L560 129L560 190L640 190L640 153L720 153L720 194L799 194L799 157L879 157L879 156L959 156L959 145L1039 145L1039 200L1119 200L1119 163L1199 163L1199 143L1279 143L1279 146L1359 146L1359 158L1439 158L1439 194L1519 194L1519 193L1519 321L1519 321L1439 321L1439 321L1359 321L1359 321L1279 321L1279 321L1199 321L1199 321L1119 321L1119 321L1039 321L1039 321L959 321L959 321L879 321L879 321L799 321L799 321L720 321L720 321L640 321L640 321L560 321L560 321L480 321L480 321L400 321L400 321L320 321L320 321L240 321L240 321L160 321L160 321L80 321L80 321L0 321Z" fill="#2c0745"></path><path d="M0 192L80 192L80 161L160 161L160 177L240 177L240 192L320 192L320 156L400 156L400 159L480 159L480 161L560 161L560 216L640 216L640 155L720 155L720 184L799 184L799 166L879 166L879 193L959 193L959 151L1039 151L1039 167L1119 167L1119 211L1199 211L1199 148L1279 148L1279 168L1359 168L1359 215L1439 215L1439 180L1519 180L1519 213L1519 321L1519 321L1439 321L1439 321L1359 321L1359 321L1279 321L1279 321L1199 321L1199 321L1119 321L1119 321L1039 321L1039 321L959 321L959 321L879 321L879 321L799 321L799 321L720 321L720 321L640 321L640 321L560 321L560 321L480 321L480 321L400 321L400 321L320 321L320 321L240 321L240 321L160 321L160 321L80 321L80 321L0 321Z" fill="#310a4b"></path><path d="M0 215L80 215L80 175L160 175L160 175L240 175L240 224L320 224L320 189L400 189L400 199L480 199L480 164L560 164L560 228L640 228L640 182L720 182L720 178L799 178L799 206L879 206L879 182L959 182L959 195L1039 195L1039 185L1119 185L1119 171L1199 171L1199 206L1279 206L1279 222L1359 222L1359 222L1439 222L1439 212L1519 212L1519 204L1519 321L1519 321L1439 321L1439 321L1359 321L1359 321L1279 321L1279 321L1199 321L1199 321L1119 321L1119 321L1039 321L1039 321L959 321L959 321L879 321L879 321L799 321L799 321L720 321L720 321L640 321L640 321L560 321L560 321L480 321L480 321L400 321L400 321L320 321L320 321L240 321L240 321L160 321L160 321L80 321L80 321L0 321Z" fill="#360d52"></path><path d="M0 186L80 186L80 185L160 185L160 226L240 226L240 187L320 187L320 234L400 234L400 230L480 230L480 218L560 218L560 210L640 210L640 216L720 216L720 182L799 182L799 239L879 239L879 229L959 229L959 224L1039 224L1039 222L1119 222L1119 222L1199 222L1199 208L1279 208L1279 232L1359 232L1359 186L1439 186L1439 193L1519 193L1519 193L1519 321L1519 321L1439 321L1439 321L1359 321L1359 321L1279 321L1279 321L1199 321L1199 321L1119 321L1119 321L1039 321L1039 321L959 321L959 321L879 321L879 321L799 321L799 321L720 321L720 321L640 321L640 321L560 321L560 321L480 321L480 321L400 321L400 321L320 321L320 321L240 321L240 321L160 321L160 321L80 321L80 321L0 321Z" fill="#3b1059"></path><path d="M0 202L80 202L80 247L160 247L160 217L240 217L240 213L320 213L320 227L400 227L400 230L480 230L480 213L560 213L560 240L640 240L640 229L720 229L720 240L799 240L799 216L879 216L879 233L959 233L959 241L1039 241L1039 201L1119 201L1119 229L1199 229L1199 234L1279 234L1279 206L1359 206L1359 239L1439 239L1439 200L1519 200L1519 215L1519 321L1519 321L1439 321L1439 321L1359 321L1359 321L1279 321L1279 321L1199 321L1199 321L1119 321L1119 321L1039 321L1039 321L959 321L959 321L879 321L879 321L799 321L799 321L720 321L720 321L640 321L640 321L560 321L560 321L480 321L480 321L400 321L400 321L320 321L320 321L240 321L240 321L160 321L160 321L80 321L80 321L0 321Z" fill="#41145f"></path><path d="M0 257L80 257L80 246L160 246L160 220L240 220L240 229L320 229L320 260L400 260L400 226L480 226L480 254L560 254L560 223L640 223L640 236L720 236L720 239L799 239L799 253L879 253L879 231L959 231L959 238L1039 238L1039 256L1119 256L1119 254L1199 254L1199 232L1279 232L1279 247L1359 247L1359 236L1439 236L1439 221L1519 221L1519 253L1519 321L1519 321L1439 321L1439 321L1359 321L1359 321L1279 321L1279 321L1199 321L1199 321L1119 321L1119 321L1039 321L1039 321L959 321L959 321L879 321L879 321L799 321L799 321L720 321L720 321L640 321L640 321L560 321L560 321L480 321L480 321L400 321L400 321L320 321L320 321L240 321L240 321L160 321L160 321L80 321L80 321L0 321Z" fill="#461766"></path><path d="M0 266L80 266L80 253L160 253L160 241L240 241L240 260L320 260L320 239L400 239L400 259L480 259L480 253L560 253L560 243L640 243L640 235L720 235L720 236L799 236L799 238L879 238L879 272L959 272L959 265L1039 265L1039 240L1119 240L1119 274L1199 274L1199 239L1279 239L1279 255L1359 255L1359 247L1439 247L1439 266L1519 266L1519 251L1519 321L1519 321L1439 321L1439 321L1359 321L1359 321L1279 321L1279 321L1199 321L1199 321L1119 321L1119 321L1039 321L1039 321L959 321L959 321L879 321L879 321L799 321L799 321L720 321L720 321L640 321L640 321L560 321L560 321L480 321L480 321L400 321L400 321L320 321L320 321L240 321L240 321L160 321L160 321L80 321L80 321L0 321Z" fill="#4c1a6d"></path><path d="M0 269L80 269L80 282L160 282L160 285L240 285L240 264L320 264L320 271L400 271L400 272L480 272L480 256L560 256L560 287L640 287L640 266L720 266L720 272L799 272L799 272L879 272L879 273L959 273L959 264L1039 264L1039 252L1119 252L1119 284L1199 284L1199 271L1279 271L1279 275L1359 275L1359 253L1439 253L1439 277L1519 277L1519 282L1519 321L1519 321L1439 321L1439 321L1359 321L1359 321L1279 321L1279 321L1199 321L1199 321L1119 321L1119 321L1039 321L1039 321L959 321L959 321L879 321L879 321L799 321L799 321L720 321L720 321L640 321L640 321L560 321L560 321L480 321L480 321L400 321L400 321L320 321L320 321L240 321L240 321L160 321L160 321L80 321L80 321L0 321Z" fill="#511d75"></path><path d="M0 274L80 274L80 275L160 275L160 276L240 276L240 294L320 294L320 283L400 283L400 291L480 291L480 298L560 298L560 298L640 298L640 282L720 282L720 278L799 278L799 285L879 285L879 287L959 287L959 296L1039 296L1039 296L1119 296L1119 286L1199 286L1199 277L1279 277L1279 292L1359 292L1359 284L1439 284L1439 284L1519 284L1519 284L1519 321L1519 321L1439 321L1439 321L1359 321L1359 321L1279 321L1279 321L1199 321L1199 321L1119 321L1119 321L1039 321L1039 321L959 321L959 321L879 321L879 321L799 321L799 321L720 321L720 321L640 321L640 321L560 321L560 321L480 321L480 321L400 321L400 321L320 321L320 321L240 321L240 321L160 321L160 321L80 321L80 321L0 321Z" fill="#57217c"></path><path d="M0 291L80 291L80 303L160 303L160 298L240 298L240 293L320 293L320 300L400 300L400 299L480 299L480 303L560 303L560 294L640 294L640 305L720 305L720 307L799 307L799 298L879 298L879 289L959 289L959 311L1039 311L1039 298L1119 298L1119 304L1199 304L1199 307L1279 307L1279 303L1359 303L1359 295L1439 295L1439 293L1519 293L1519 311L1519 321L1519 321L1439 321L1439 321L1359 321L1359 321L1279 321L1279 321L1199 321L1199 321L1119 321L1119 321L1039 321L1039 321L959 321L959 321L879 321L879 321L799 321L799 321L720 321L720 321L640 321L640 321L560 321L560 321L480 321L480 321L400 321L400 321L320 321L320 321L240 321L240 321L160 321L160 321L80 321L80 321L0 321Z" fill="#5d2483"></path></svg>